M48
; DRILL file {KiCad (5.1.2)-1} date 6/7/2019 11:57:09 AM
; FORMAT={-:-/ absolute / inch / decimal}
; #@! TF.CreationDate,2019-06-07T11:57:09-04:00
; #@! TF.GenerationSoftware,Kicad,Pcbnew,(5.1.2)-1
; #@! TF.FileFunction,Plated,1,2,PTH
FMAT,2
INCH
T1C0.0315
T2C0.0394
T3C0.0394
T4C0.0472
T5C0.0787
%
G90
G05
T1
X2.05Y-5.1
X2.15Y-5.1
X2.25Y-5.1
X3.05Y-5.1
X3.15Y-5.1
X3.25Y-5.1
T2
X3.55Y-5.05
X3.6484Y-5.2469
X3.7469Y-5.05
X2.55Y-5.05
X2.6484Y-5.2469
X2.7469Y-5.05
T3
X2.2Y-5.55
X2.325Y-5.55
X2.45Y-5.55
X2.7Y-5.55
X3.75Y-5.55
X3.2Y-5.55
X3.325Y-5.55
X3.45Y-5.55
T4
X2.05Y-4.1
X2.2Y-4.1
X3.25Y-4.1
X3.4Y-4.1
T5
X4.4Y-4.8
X4.4Y-4.05
X4.4Y-5.2
X4.4Y-4.4
T0
M30
