G04 #@! TF.GenerationSoftware,KiCad,Pcbnew,(5.1.2)-1*
G04 #@! TF.CreationDate,2019-06-07T12:02:22-04:00*
G04 #@! TF.ProjectId,2spot,3273706f-742e-46b6-9963-61645f706362,rev?*
G04 #@! TF.SameCoordinates,Original*
G04 #@! TF.FileFunction,Legend,Top*
G04 #@! TF.FilePolarity,Positive*
%FSLAX46Y46*%
G04 Gerber Fmt 4.6, Leading zero omitted, Abs format (unit mm)*
G04 Created by KiCad (PCBNEW (5.1.2)-1) date 2019-06-07 12:02:22*
%MOMM*%
%LPD*%
G04 APERTURE LIST*
%ADD10C,0.120000*%
%ADD11C,0.150000*%
G04 APERTURE END LIST*
D10*
X109560000Y-100670000D02*
X113960000Y-100670000D01*
X113960000Y-100670000D02*
X113960000Y-105070000D01*
X113960000Y-105070000D02*
X109560000Y-105070000D01*
X109560000Y-105070000D02*
X109560000Y-100670000D01*
X109560000Y-134280000D02*
X109560000Y-129880000D01*
X113960000Y-134280000D02*
X109560000Y-134280000D01*
X113960000Y-129880000D02*
X113960000Y-134280000D01*
X109560000Y-129880000D02*
X113960000Y-129880000D01*
X114010000Y-111760000D02*
G75*
G03X114010000Y-111760000I-2250000J0D01*
G01*
X109560000Y-124120000D02*
X109560000Y-119720000D01*
X113960000Y-124120000D02*
X109560000Y-124120000D01*
X113960000Y-119720000D02*
X113960000Y-124120000D01*
X109560000Y-119720000D02*
X113960000Y-119720000D01*
X83485000Y-130036000D02*
X83485000Y-132000000D01*
X83485000Y-127260000D02*
X83485000Y-129046000D01*
X76535000Y-130036000D02*
X76535000Y-132000000D01*
X76535000Y-127260000D02*
X76535000Y-129046000D01*
X76535000Y-132000000D02*
X83485000Y-132000000D01*
X76535000Y-127260000D02*
X83485000Y-127260000D01*
X58085000Y-130036000D02*
X58085000Y-132000000D01*
X58085000Y-127260000D02*
X58085000Y-129046000D01*
X51135000Y-130036000D02*
X51135000Y-132000000D01*
X51135000Y-127260000D02*
X51135000Y-129046000D01*
X51135000Y-132000000D02*
X58085000Y-132000000D01*
X51135000Y-127260000D02*
X58085000Y-127260000D01*
X89460000Y-126860000D02*
X90880000Y-126860000D01*
X90880000Y-127060000D02*
X94460000Y-127060000D01*
X94460000Y-127060000D02*
X94460000Y-126860000D01*
X94460000Y-126860000D02*
X95880000Y-126860000D01*
X95880000Y-126860000D02*
X95880000Y-127060000D01*
X92160000Y-134080000D02*
X90670000Y-134080000D01*
X89360000Y-132770000D02*
X89360000Y-129230000D01*
X95980000Y-128790000D02*
X95980000Y-132770000D01*
X94670000Y-134080000D02*
X93180000Y-134080000D01*
X90670000Y-134080000D02*
G75*
G02X89360000Y-132770000I0J1310000D01*
G01*
X95980000Y-132770000D02*
G75*
G02X94670000Y-134080000I-1310000J0D01*
G01*
X90880000Y-127060000D02*
X90880000Y-126860000D01*
X89460000Y-126860000D02*
X89460000Y-127060000D01*
X89460000Y-127060000D02*
X89360000Y-127060000D01*
X89360000Y-127060000D02*
X89360000Y-127310000D01*
X95880000Y-127060000D02*
X95980000Y-127060000D01*
X95980000Y-127060000D02*
X95980000Y-127750000D01*
X64060000Y-126860000D02*
X65480000Y-126860000D01*
X65480000Y-127060000D02*
X69060000Y-127060000D01*
X69060000Y-127060000D02*
X69060000Y-126860000D01*
X69060000Y-126860000D02*
X70480000Y-126860000D01*
X70480000Y-126860000D02*
X70480000Y-127060000D01*
X66760000Y-134080000D02*
X65270000Y-134080000D01*
X63960000Y-132770000D02*
X63960000Y-129230000D01*
X70580000Y-128790000D02*
X70580000Y-132770000D01*
X69270000Y-134080000D02*
X67780000Y-134080000D01*
X65270000Y-134080000D02*
G75*
G02X63960000Y-132770000I0J1310000D01*
G01*
X70580000Y-132770000D02*
G75*
G02X69270000Y-134080000I-1310000J0D01*
G01*
X65480000Y-127060000D02*
X65480000Y-126860000D01*
X64060000Y-126860000D02*
X64060000Y-127060000D01*
X64060000Y-127060000D02*
X63960000Y-127060000D01*
X63960000Y-127060000D02*
X63960000Y-127310000D01*
X70480000Y-127060000D02*
X70580000Y-127060000D01*
X70580000Y-127060000D02*
X70580000Y-127750000D01*
D11*
X63675238Y-136612380D02*
X64008571Y-137612380D01*
X64341904Y-136612380D01*
X64675238Y-137612380D02*
X64675238Y-136945714D01*
X64675238Y-137040952D02*
X64722857Y-136993333D01*
X64818095Y-136945714D01*
X64960952Y-136945714D01*
X65056190Y-136993333D01*
X65103809Y-137088571D01*
X65103809Y-137612380D01*
X65103809Y-137088571D02*
X65151428Y-136993333D01*
X65246666Y-136945714D01*
X65389523Y-136945714D01*
X65484761Y-136993333D01*
X65532380Y-137088571D01*
X65532380Y-137612380D01*
X66151428Y-137612380D02*
X66056190Y-137564761D01*
X66008571Y-137517142D01*
X65960952Y-137421904D01*
X65960952Y-137136190D01*
X66008571Y-137040952D01*
X66056190Y-136993333D01*
X66151428Y-136945714D01*
X66294285Y-136945714D01*
X66389523Y-136993333D01*
X66437142Y-137040952D01*
X66484761Y-137136190D01*
X66484761Y-137421904D01*
X66437142Y-137517142D01*
X66389523Y-137564761D01*
X66294285Y-137612380D01*
X66151428Y-137612380D01*
X67341904Y-137612380D02*
X67341904Y-136612380D01*
X67341904Y-137564761D02*
X67246666Y-137612380D01*
X67056190Y-137612380D01*
X66960952Y-137564761D01*
X66913333Y-137517142D01*
X66865714Y-137421904D01*
X66865714Y-137136190D01*
X66913333Y-137040952D01*
X66960952Y-136993333D01*
X67056190Y-136945714D01*
X67246666Y-136945714D01*
X67341904Y-136993333D01*
X69103809Y-136660000D02*
X69008571Y-136612380D01*
X68865714Y-136612380D01*
X68722857Y-136660000D01*
X68627619Y-136755238D01*
X68580000Y-136850476D01*
X68532380Y-137040952D01*
X68532380Y-137183809D01*
X68580000Y-137374285D01*
X68627619Y-137469523D01*
X68722857Y-137564761D01*
X68865714Y-137612380D01*
X68960952Y-137612380D01*
X69103809Y-137564761D01*
X69151428Y-137517142D01*
X69151428Y-137183809D01*
X68960952Y-137183809D01*
X69580000Y-137612380D02*
X69580000Y-136945714D01*
X69580000Y-137136190D02*
X69627619Y-137040952D01*
X69675238Y-136993333D01*
X69770476Y-136945714D01*
X69865714Y-136945714D01*
X70341904Y-137612380D02*
X70246666Y-137564761D01*
X70199047Y-137517142D01*
X70151428Y-137421904D01*
X70151428Y-137136190D01*
X70199047Y-137040952D01*
X70246666Y-136993333D01*
X70341904Y-136945714D01*
X70484761Y-136945714D01*
X70580000Y-136993333D01*
X70627619Y-137040952D01*
X70675238Y-137136190D01*
X70675238Y-137421904D01*
X70627619Y-137517142D01*
X70580000Y-137564761D01*
X70484761Y-137612380D01*
X70341904Y-137612380D01*
X71532380Y-136945714D02*
X71532380Y-137612380D01*
X71103809Y-136945714D02*
X71103809Y-137469523D01*
X71151428Y-137564761D01*
X71246666Y-137612380D01*
X71389523Y-137612380D01*
X71484761Y-137564761D01*
X71532380Y-137517142D01*
X72008571Y-136945714D02*
X72008571Y-137612380D01*
X72008571Y-137040952D02*
X72056190Y-136993333D01*
X72151428Y-136945714D01*
X72294285Y-136945714D01*
X72389523Y-136993333D01*
X72437142Y-137088571D01*
X72437142Y-137612380D01*
X73341904Y-137612380D02*
X73341904Y-136612380D01*
X73341904Y-137564761D02*
X73246666Y-137612380D01*
X73056190Y-137612380D01*
X72960952Y-137564761D01*
X72913333Y-137517142D01*
X72865714Y-137421904D01*
X72865714Y-137136190D01*
X72913333Y-137040952D01*
X72960952Y-136993333D01*
X73056190Y-136945714D01*
X73246666Y-136945714D01*
X73341904Y-136993333D01*
X90345238Y-136612380D02*
X90678571Y-137612380D01*
X91011904Y-136612380D01*
X91345238Y-137612380D02*
X91345238Y-136945714D01*
X91345238Y-137040952D02*
X91392857Y-136993333D01*
X91488095Y-136945714D01*
X91630952Y-136945714D01*
X91726190Y-136993333D01*
X91773809Y-137088571D01*
X91773809Y-137612380D01*
X91773809Y-137088571D02*
X91821428Y-136993333D01*
X91916666Y-136945714D01*
X92059523Y-136945714D01*
X92154761Y-136993333D01*
X92202380Y-137088571D01*
X92202380Y-137612380D01*
X92821428Y-137612380D02*
X92726190Y-137564761D01*
X92678571Y-137517142D01*
X92630952Y-137421904D01*
X92630952Y-137136190D01*
X92678571Y-137040952D01*
X92726190Y-136993333D01*
X92821428Y-136945714D01*
X92964285Y-136945714D01*
X93059523Y-136993333D01*
X93107142Y-137040952D01*
X93154761Y-137136190D01*
X93154761Y-137421904D01*
X93107142Y-137517142D01*
X93059523Y-137564761D01*
X92964285Y-137612380D01*
X92821428Y-137612380D01*
X94011904Y-137612380D02*
X94011904Y-136612380D01*
X94011904Y-137564761D02*
X93916666Y-137612380D01*
X93726190Y-137612380D01*
X93630952Y-137564761D01*
X93583333Y-137517142D01*
X93535714Y-137421904D01*
X93535714Y-137136190D01*
X93583333Y-137040952D01*
X93630952Y-136993333D01*
X93726190Y-136945714D01*
X93916666Y-136945714D01*
X94011904Y-136993333D01*
X95773809Y-136660000D02*
X95678571Y-136612380D01*
X95535714Y-136612380D01*
X95392857Y-136660000D01*
X95297619Y-136755238D01*
X95250000Y-136850476D01*
X95202380Y-137040952D01*
X95202380Y-137183809D01*
X95250000Y-137374285D01*
X95297619Y-137469523D01*
X95392857Y-137564761D01*
X95535714Y-137612380D01*
X95630952Y-137612380D01*
X95773809Y-137564761D01*
X95821428Y-137517142D01*
X95821428Y-137183809D01*
X95630952Y-137183809D01*
X96250000Y-137612380D02*
X96250000Y-136945714D01*
X96250000Y-137136190D02*
X96297619Y-137040952D01*
X96345238Y-136993333D01*
X96440476Y-136945714D01*
X96535714Y-136945714D01*
X97011904Y-137612380D02*
X96916666Y-137564761D01*
X96869047Y-137517142D01*
X96821428Y-137421904D01*
X96821428Y-137136190D01*
X96869047Y-137040952D01*
X96916666Y-136993333D01*
X97011904Y-136945714D01*
X97154761Y-136945714D01*
X97250000Y-136993333D01*
X97297619Y-137040952D01*
X97345238Y-137136190D01*
X97345238Y-137421904D01*
X97297619Y-137517142D01*
X97250000Y-137564761D01*
X97154761Y-137612380D01*
X97011904Y-137612380D01*
X98202380Y-136945714D02*
X98202380Y-137612380D01*
X97773809Y-136945714D02*
X97773809Y-137469523D01*
X97821428Y-137564761D01*
X97916666Y-137612380D01*
X98059523Y-137612380D01*
X98154761Y-137564761D01*
X98202380Y-137517142D01*
X98678571Y-136945714D02*
X98678571Y-137612380D01*
X98678571Y-137040952D02*
X98726190Y-136993333D01*
X98821428Y-136945714D01*
X98964285Y-136945714D01*
X99059523Y-136993333D01*
X99107142Y-137088571D01*
X99107142Y-137612380D01*
X100011904Y-137612380D02*
X100011904Y-136612380D01*
X100011904Y-137564761D02*
X99916666Y-137612380D01*
X99726190Y-137612380D01*
X99630952Y-137564761D01*
X99583333Y-137517142D01*
X99535714Y-137421904D01*
X99535714Y-137136190D01*
X99583333Y-137040952D01*
X99630952Y-136993333D01*
X99726190Y-136945714D01*
X99916666Y-136945714D01*
X100011904Y-136993333D01*
X108839047Y-99131428D02*
X109600952Y-99131428D01*
X109220000Y-99512380D02*
X109220000Y-98750476D01*
X108839047Y-128341428D02*
X109600952Y-128341428D01*
X111379047Y-108933428D02*
X112140952Y-108933428D01*
X111760000Y-109314380D02*
X111760000Y-108552476D01*
X111379047Y-119093428D02*
X112140952Y-119093428D01*
X82216904Y-100401428D02*
X82978809Y-100401428D01*
X84455000Y-101115714D02*
X84455000Y-99687142D01*
X85931190Y-100401428D02*
X86693095Y-100401428D01*
X86312142Y-100782380D02*
X86312142Y-100020476D01*
X51736904Y-100401428D02*
X52498809Y-100401428D01*
X53975000Y-101115714D02*
X53975000Y-99687142D01*
X55451190Y-100401428D02*
X56213095Y-100401428D01*
X55832142Y-100782380D02*
X55832142Y-100020476D01*
M02*
