G04 #@! TF.GenerationSoftware,KiCad,Pcbnew,(5.1.2)-1*
G04 #@! TF.CreationDate,2019-06-07T12:02:22-04:00*
G04 #@! TF.ProjectId,2spot,3273706f-742e-46b6-9963-61645f706362,rev?*
G04 #@! TF.SameCoordinates,Original*
G04 #@! TF.FileFunction,Copper,L2,Bot*
G04 #@! TF.FilePolarity,Positive*
%FSLAX46Y46*%
G04 Gerber Fmt 4.6, Leading zero omitted, Abs format (unit mm)*
G04 Created by KiCad (PCBNEW (5.1.2)-1) date 2019-06-07 12:02:22*
%MOMM*%
%LPD*%
G04 APERTURE LIST*
%ADD10C,0.381000*%
%ADD11C,0.010000*%
%ADD12C,2.499360*%
%ADD13R,4.000000X4.000000*%
%ADD14C,4.000000*%
%ADD15C,2.999740*%
%ADD16R,2.999740X2.999740*%
%ADD17R,2.499360X2.499360*%
%ADD18C,1.440000*%
%ADD19C,1.550000*%
%ADD20R,1.550000X1.550000*%
%ADD21C,2.000000*%
%ADD22C,1.000000*%
G04 APERTURE END LIST*
D10*
X41910000Y-131572000D02*
X42291000Y-131572000D01*
X41529000Y-131572000D02*
X41910000Y-131572000D01*
X41021000Y-131318000D02*
X41529000Y-131572000D01*
X40767000Y-131191000D02*
X41021000Y-131318000D01*
X40640000Y-130810000D02*
X40767000Y-131191000D01*
X40640000Y-130429000D02*
X40640000Y-130810000D01*
X40767000Y-130048000D02*
X40640000Y-130429000D01*
X41021000Y-129540000D02*
X40767000Y-130048000D01*
X41275000Y-129159000D02*
X41021000Y-129540000D01*
X41783000Y-128651000D02*
X41275000Y-129159000D01*
X42418000Y-128397000D02*
X41783000Y-128651000D01*
X43053000Y-128270000D02*
X42418000Y-128397000D01*
X43561000Y-128270000D02*
X43053000Y-128270000D01*
X44196000Y-128524000D02*
X43561000Y-128270000D01*
X44831000Y-128905000D02*
X44196000Y-128524000D01*
X45339000Y-129413000D02*
X44831000Y-128905000D01*
X45593000Y-130048000D02*
X45339000Y-129413000D01*
X45720000Y-130556000D02*
X45593000Y-130048000D01*
X45720000Y-130810000D02*
X45720000Y-130556000D01*
X44323000Y-131572000D02*
X43942000Y-131572000D01*
X44958000Y-131445000D02*
X44323000Y-131572000D01*
X45466000Y-131318000D02*
X44958000Y-131445000D01*
X45593000Y-131064000D02*
X45466000Y-131318000D01*
X45720000Y-130810000D02*
X45593000Y-131064000D01*
X44196000Y-132334000D02*
X44196000Y-131572000D01*
X44196000Y-132715000D02*
X44196000Y-132334000D01*
X43053000Y-133350000D02*
X43434000Y-133350000D01*
X42545000Y-133223000D02*
X43053000Y-133350000D01*
X42164000Y-133096000D02*
X42545000Y-133223000D01*
X42037000Y-132715000D02*
X42164000Y-133096000D01*
X42037000Y-132334000D02*
X42037000Y-132715000D01*
X42037000Y-131572000D02*
X42037000Y-132334000D01*
X43815000Y-133223000D02*
X43434000Y-133350000D01*
X44069000Y-132969000D02*
X43815000Y-133223000D01*
X44196000Y-132715000D02*
X44069000Y-132969000D01*
X43434000Y-131191000D02*
X43180000Y-130429000D01*
X42926000Y-131191000D02*
X43434000Y-131191000D01*
X43180000Y-130429000D02*
X42926000Y-131191000D01*
X42447981Y-130429000D02*
G75*
G03X42447981Y-130429000I-283981J0D01*
G01*
X44479981Y-130429000D02*
G75*
G03X44479981Y-130429000I-283981J0D01*
G01*
X43688000Y-132461000D02*
X43688000Y-131953000D01*
X42545000Y-132461000D02*
X43688000Y-132461000D01*
X42545000Y-131953000D02*
X42545000Y-132461000D01*
X43688000Y-131953000D02*
X42545000Y-131953000D01*
X43053000Y-132080000D02*
X43053000Y-132334000D01*
X40894000Y-129159000D02*
X40259000Y-128651000D01*
X40259000Y-128651000D02*
X40259000Y-128143000D01*
X40259000Y-128651000D02*
X39751000Y-128524000D01*
X44831000Y-131953000D02*
X45847000Y-132842000D01*
X45847000Y-132842000D02*
X46228000Y-132842000D01*
X45847000Y-132842000D02*
X45847000Y-133350000D01*
X45593000Y-129159000D02*
X46101000Y-128778000D01*
X46101000Y-128778000D02*
X46101000Y-128397000D01*
X46101000Y-128778000D02*
X46482000Y-128905000D01*
X40513000Y-132842000D02*
X40259000Y-132842000D01*
X41402000Y-131953000D02*
X40513000Y-132842000D01*
X40513000Y-133223000D02*
X40386000Y-133223000D01*
X40513000Y-132842000D02*
X40513000Y-133223000D01*
D11*
G36*
X101496090Y-126782348D02*
G01*
X101417546Y-126782778D01*
X101360702Y-126783942D01*
X101321895Y-126786207D01*
X101297462Y-126789940D01*
X101283738Y-126795506D01*
X101277060Y-126803273D01*
X101273764Y-126813605D01*
X101273444Y-126814943D01*
X101268438Y-126839079D01*
X101259171Y-126886701D01*
X101246608Y-126952741D01*
X101231713Y-127032128D01*
X101215449Y-127119796D01*
X101214881Y-127122875D01*
X101198590Y-127208789D01*
X101183348Y-127284696D01*
X101170139Y-127346045D01*
X101159946Y-127388282D01*
X101153752Y-127406855D01*
X101153457Y-127407184D01*
X101135212Y-127416253D01*
X101097595Y-127431367D01*
X101048729Y-127449262D01*
X101048457Y-127449358D01*
X100986907Y-127472493D01*
X100914343Y-127501965D01*
X100845943Y-127531597D01*
X100842706Y-127533062D01*
X100731298Y-127583626D01*
X100484601Y-127415160D01*
X100408923Y-127363803D01*
X100340369Y-127317889D01*
X100282912Y-127280030D01*
X100240524Y-127252837D01*
X100217175Y-127238921D01*
X100214958Y-127237889D01*
X100197990Y-127242484D01*
X100166299Y-127264655D01*
X100118648Y-127305447D01*
X100053802Y-127365905D01*
X99987603Y-127430227D01*
X99923786Y-127493612D01*
X99866671Y-127551451D01*
X99819695Y-127600175D01*
X99786297Y-127636210D01*
X99769915Y-127655984D01*
X99769306Y-127657002D01*
X99767495Y-127670572D01*
X99774317Y-127692733D01*
X99791460Y-127726478D01*
X99820607Y-127774800D01*
X99863445Y-127840692D01*
X99920552Y-127925517D01*
X99971234Y-128000177D01*
X100016539Y-128067140D01*
X100053850Y-128122516D01*
X100080548Y-128162420D01*
X100094015Y-128182962D01*
X100094863Y-128184356D01*
X100093219Y-128204038D01*
X100080755Y-128242293D01*
X100059952Y-128291889D01*
X100052538Y-128307728D01*
X100020186Y-128378290D01*
X99985672Y-128458353D01*
X99957635Y-128527629D01*
X99937432Y-128579045D01*
X99921385Y-128618119D01*
X99912112Y-128638541D01*
X99910959Y-128640114D01*
X99893904Y-128642721D01*
X99853702Y-128649863D01*
X99795698Y-128660523D01*
X99725237Y-128673685D01*
X99647665Y-128688333D01*
X99568328Y-128703449D01*
X99492569Y-128718018D01*
X99425736Y-128731022D01*
X99373172Y-128741445D01*
X99340224Y-128748270D01*
X99332143Y-128750199D01*
X99323795Y-128754962D01*
X99317494Y-128765718D01*
X99312955Y-128786098D01*
X99309896Y-128819734D01*
X99308033Y-128870255D01*
X99307082Y-128941292D01*
X99306760Y-129036476D01*
X99306743Y-129075492D01*
X99306743Y-129392799D01*
X99382943Y-129407839D01*
X99425337Y-129415995D01*
X99488600Y-129427899D01*
X99565038Y-129442116D01*
X99646957Y-129457210D01*
X99669600Y-129461355D01*
X99745194Y-129476053D01*
X99811047Y-129490505D01*
X99861634Y-129503375D01*
X99891426Y-129513322D01*
X99896388Y-129516287D01*
X99908574Y-129537283D01*
X99926047Y-129577967D01*
X99945423Y-129630322D01*
X99949266Y-129641600D01*
X99974661Y-129711523D01*
X100006183Y-129790418D01*
X100037031Y-129861266D01*
X100037183Y-129861595D01*
X100088553Y-129972733D01*
X99919601Y-130221253D01*
X99750648Y-130469772D01*
X99967571Y-130687058D01*
X100033181Y-130751726D01*
X100093021Y-130808733D01*
X100143733Y-130855033D01*
X100181954Y-130887584D01*
X100204325Y-130903343D01*
X100207534Y-130904343D01*
X100226374Y-130896469D01*
X100264820Y-130874578D01*
X100318670Y-130841267D01*
X100383724Y-130799131D01*
X100454060Y-130751943D01*
X100525445Y-130703810D01*
X100589092Y-130661928D01*
X100640959Y-130628871D01*
X100677005Y-130607218D01*
X100693133Y-130599543D01*
X100712811Y-130606037D01*
X100750125Y-130623150D01*
X100797379Y-130647326D01*
X100802388Y-130650013D01*
X100866023Y-130681927D01*
X100909659Y-130697579D01*
X100936798Y-130697745D01*
X100950943Y-130683204D01*
X100951025Y-130683000D01*
X100958095Y-130665779D01*
X100974958Y-130624899D01*
X101000305Y-130563525D01*
X101032829Y-130484819D01*
X101071222Y-130391947D01*
X101114178Y-130288072D01*
X101155778Y-130187502D01*
X101201496Y-130076516D01*
X101243474Y-129973703D01*
X101280452Y-129882215D01*
X101311173Y-129805201D01*
X101334378Y-129745815D01*
X101348810Y-129707209D01*
X101353257Y-129692800D01*
X101342104Y-129676272D01*
X101312931Y-129649930D01*
X101274029Y-129620887D01*
X101163243Y-129529039D01*
X101076649Y-129423759D01*
X101015284Y-129307266D01*
X100980185Y-129181776D01*
X100972392Y-129049507D01*
X100978057Y-128988457D01*
X101008922Y-128861795D01*
X101062080Y-128749941D01*
X101134233Y-128654001D01*
X101222083Y-128575076D01*
X101322335Y-128514270D01*
X101431690Y-128472687D01*
X101546853Y-128451428D01*
X101664525Y-128451599D01*
X101781410Y-128474301D01*
X101894211Y-128520638D01*
X101999631Y-128591713D01*
X102043632Y-128631911D01*
X102128021Y-128735129D01*
X102186778Y-128847925D01*
X102220296Y-128967010D01*
X102228965Y-129089095D01*
X102213177Y-129210893D01*
X102173322Y-129329116D01*
X102109793Y-129440475D01*
X102022979Y-129541684D01*
X101925971Y-129620887D01*
X101885563Y-129651162D01*
X101857018Y-129677219D01*
X101846743Y-129692825D01*
X101852123Y-129709843D01*
X101867425Y-129750500D01*
X101891388Y-129811642D01*
X101922756Y-129890119D01*
X101960268Y-129982780D01*
X102002667Y-130086472D01*
X102044337Y-130187526D01*
X102090310Y-130298607D01*
X102132893Y-130401541D01*
X102170779Y-130493165D01*
X102202660Y-130570316D01*
X102227229Y-130629831D01*
X102243180Y-130668544D01*
X102249090Y-130683000D01*
X102263052Y-130697685D01*
X102290060Y-130697642D01*
X102333587Y-130682099D01*
X102397110Y-130650284D01*
X102397612Y-130650013D01*
X102445440Y-130625323D01*
X102484103Y-130607338D01*
X102505905Y-130599614D01*
X102506867Y-130599543D01*
X102523279Y-130607378D01*
X102559513Y-130629165D01*
X102611526Y-130662328D01*
X102675275Y-130704291D01*
X102745940Y-130751943D01*
X102817884Y-130800191D01*
X102882726Y-130842151D01*
X102936265Y-130875227D01*
X102974303Y-130896821D01*
X102992467Y-130904343D01*
X103009192Y-130894457D01*
X103042820Y-130866826D01*
X103089990Y-130824495D01*
X103147342Y-130770505D01*
X103211516Y-130707899D01*
X103232503Y-130686983D01*
X103449501Y-130469623D01*
X103284332Y-130227220D01*
X103234136Y-130152781D01*
X103190081Y-130085972D01*
X103154638Y-130030665D01*
X103130281Y-129990729D01*
X103119478Y-129970036D01*
X103119162Y-129968563D01*
X103124857Y-129949058D01*
X103140174Y-129909822D01*
X103162463Y-129857430D01*
X103178107Y-129822355D01*
X103207359Y-129755201D01*
X103234906Y-129687358D01*
X103256263Y-129630034D01*
X103262065Y-129612572D01*
X103278548Y-129565938D01*
X103294660Y-129529905D01*
X103303510Y-129516287D01*
X103323040Y-129507952D01*
X103365666Y-129496137D01*
X103425855Y-129482181D01*
X103498078Y-129467422D01*
X103530400Y-129461355D01*
X103612478Y-129446273D01*
X103691205Y-129431669D01*
X103758891Y-129418980D01*
X103807840Y-129409642D01*
X103817057Y-129407839D01*
X103893257Y-129392799D01*
X103893257Y-129075492D01*
X103893086Y-128971154D01*
X103892384Y-128892213D01*
X103890866Y-128835038D01*
X103888251Y-128795999D01*
X103884254Y-128771465D01*
X103878591Y-128757805D01*
X103870980Y-128751389D01*
X103867857Y-128750199D01*
X103849022Y-128745980D01*
X103807412Y-128737562D01*
X103748370Y-128725961D01*
X103677243Y-128712195D01*
X103599375Y-128697280D01*
X103520113Y-128682232D01*
X103444802Y-128668069D01*
X103378787Y-128655806D01*
X103327413Y-128646461D01*
X103296025Y-128641050D01*
X103289041Y-128640114D01*
X103282715Y-128627596D01*
X103268710Y-128594246D01*
X103249645Y-128546377D01*
X103242366Y-128527629D01*
X103213004Y-128455195D01*
X103178429Y-128375170D01*
X103147463Y-128307728D01*
X103124677Y-128256159D01*
X103109518Y-128213785D01*
X103104458Y-128187834D01*
X103105264Y-128184356D01*
X103115959Y-128167936D01*
X103140380Y-128131417D01*
X103175905Y-128078687D01*
X103219913Y-128013635D01*
X103269783Y-127940151D01*
X103279644Y-127925645D01*
X103337508Y-127839704D01*
X103380044Y-127774261D01*
X103408946Y-127726304D01*
X103425910Y-127692820D01*
X103432633Y-127670795D01*
X103430810Y-127657217D01*
X103430764Y-127657131D01*
X103416414Y-127639297D01*
X103384677Y-127604817D01*
X103338990Y-127557268D01*
X103282796Y-127500222D01*
X103219532Y-127437255D01*
X103212398Y-127430227D01*
X103132670Y-127353020D01*
X103071143Y-127296330D01*
X103026579Y-127259110D01*
X102997743Y-127240315D01*
X102985042Y-127237889D01*
X102966506Y-127248471D01*
X102928039Y-127272916D01*
X102873614Y-127308612D01*
X102807202Y-127352947D01*
X102732775Y-127403311D01*
X102715399Y-127415160D01*
X102468703Y-127583626D01*
X102357294Y-127533062D01*
X102289543Y-127503595D01*
X102216817Y-127473959D01*
X102154297Y-127450330D01*
X102151543Y-127449358D01*
X102102640Y-127431457D01*
X102064943Y-127416320D01*
X102046575Y-127407210D01*
X102046544Y-127407184D01*
X102040715Y-127390717D01*
X102030808Y-127350219D01*
X102017805Y-127290242D01*
X102002691Y-127215340D01*
X101986448Y-127130064D01*
X101985119Y-127122875D01*
X101968825Y-127035014D01*
X101953867Y-126955260D01*
X101941209Y-126888681D01*
X101931814Y-126840347D01*
X101926646Y-126815325D01*
X101926556Y-126814943D01*
X101923411Y-126804299D01*
X101917296Y-126796262D01*
X101904547Y-126790467D01*
X101881500Y-126786547D01*
X101844491Y-126784135D01*
X101789856Y-126782865D01*
X101713933Y-126782371D01*
X101613056Y-126782286D01*
X101600000Y-126782286D01*
X101496090Y-126782348D01*
X101496090Y-126782348D01*
G37*
X101496090Y-126782348D02*
X101417546Y-126782778D01*
X101360702Y-126783942D01*
X101321895Y-126786207D01*
X101297462Y-126789940D01*
X101283738Y-126795506D01*
X101277060Y-126803273D01*
X101273764Y-126813605D01*
X101273444Y-126814943D01*
X101268438Y-126839079D01*
X101259171Y-126886701D01*
X101246608Y-126952741D01*
X101231713Y-127032128D01*
X101215449Y-127119796D01*
X101214881Y-127122875D01*
X101198590Y-127208789D01*
X101183348Y-127284696D01*
X101170139Y-127346045D01*
X101159946Y-127388282D01*
X101153752Y-127406855D01*
X101153457Y-127407184D01*
X101135212Y-127416253D01*
X101097595Y-127431367D01*
X101048729Y-127449262D01*
X101048457Y-127449358D01*
X100986907Y-127472493D01*
X100914343Y-127501965D01*
X100845943Y-127531597D01*
X100842706Y-127533062D01*
X100731298Y-127583626D01*
X100484601Y-127415160D01*
X100408923Y-127363803D01*
X100340369Y-127317889D01*
X100282912Y-127280030D01*
X100240524Y-127252837D01*
X100217175Y-127238921D01*
X100214958Y-127237889D01*
X100197990Y-127242484D01*
X100166299Y-127264655D01*
X100118648Y-127305447D01*
X100053802Y-127365905D01*
X99987603Y-127430227D01*
X99923786Y-127493612D01*
X99866671Y-127551451D01*
X99819695Y-127600175D01*
X99786297Y-127636210D01*
X99769915Y-127655984D01*
X99769306Y-127657002D01*
X99767495Y-127670572D01*
X99774317Y-127692733D01*
X99791460Y-127726478D01*
X99820607Y-127774800D01*
X99863445Y-127840692D01*
X99920552Y-127925517D01*
X99971234Y-128000177D01*
X100016539Y-128067140D01*
X100053850Y-128122516D01*
X100080548Y-128162420D01*
X100094015Y-128182962D01*
X100094863Y-128184356D01*
X100093219Y-128204038D01*
X100080755Y-128242293D01*
X100059952Y-128291889D01*
X100052538Y-128307728D01*
X100020186Y-128378290D01*
X99985672Y-128458353D01*
X99957635Y-128527629D01*
X99937432Y-128579045D01*
X99921385Y-128618119D01*
X99912112Y-128638541D01*
X99910959Y-128640114D01*
X99893904Y-128642721D01*
X99853702Y-128649863D01*
X99795698Y-128660523D01*
X99725237Y-128673685D01*
X99647665Y-128688333D01*
X99568328Y-128703449D01*
X99492569Y-128718018D01*
X99425736Y-128731022D01*
X99373172Y-128741445D01*
X99340224Y-128748270D01*
X99332143Y-128750199D01*
X99323795Y-128754962D01*
X99317494Y-128765718D01*
X99312955Y-128786098D01*
X99309896Y-128819734D01*
X99308033Y-128870255D01*
X99307082Y-128941292D01*
X99306760Y-129036476D01*
X99306743Y-129075492D01*
X99306743Y-129392799D01*
X99382943Y-129407839D01*
X99425337Y-129415995D01*
X99488600Y-129427899D01*
X99565038Y-129442116D01*
X99646957Y-129457210D01*
X99669600Y-129461355D01*
X99745194Y-129476053D01*
X99811047Y-129490505D01*
X99861634Y-129503375D01*
X99891426Y-129513322D01*
X99896388Y-129516287D01*
X99908574Y-129537283D01*
X99926047Y-129577967D01*
X99945423Y-129630322D01*
X99949266Y-129641600D01*
X99974661Y-129711523D01*
X100006183Y-129790418D01*
X100037031Y-129861266D01*
X100037183Y-129861595D01*
X100088553Y-129972733D01*
X99919601Y-130221253D01*
X99750648Y-130469772D01*
X99967571Y-130687058D01*
X100033181Y-130751726D01*
X100093021Y-130808733D01*
X100143733Y-130855033D01*
X100181954Y-130887584D01*
X100204325Y-130903343D01*
X100207534Y-130904343D01*
X100226374Y-130896469D01*
X100264820Y-130874578D01*
X100318670Y-130841267D01*
X100383724Y-130799131D01*
X100454060Y-130751943D01*
X100525445Y-130703810D01*
X100589092Y-130661928D01*
X100640959Y-130628871D01*
X100677005Y-130607218D01*
X100693133Y-130599543D01*
X100712811Y-130606037D01*
X100750125Y-130623150D01*
X100797379Y-130647326D01*
X100802388Y-130650013D01*
X100866023Y-130681927D01*
X100909659Y-130697579D01*
X100936798Y-130697745D01*
X100950943Y-130683204D01*
X100951025Y-130683000D01*
X100958095Y-130665779D01*
X100974958Y-130624899D01*
X101000305Y-130563525D01*
X101032829Y-130484819D01*
X101071222Y-130391947D01*
X101114178Y-130288072D01*
X101155778Y-130187502D01*
X101201496Y-130076516D01*
X101243474Y-129973703D01*
X101280452Y-129882215D01*
X101311173Y-129805201D01*
X101334378Y-129745815D01*
X101348810Y-129707209D01*
X101353257Y-129692800D01*
X101342104Y-129676272D01*
X101312931Y-129649930D01*
X101274029Y-129620887D01*
X101163243Y-129529039D01*
X101076649Y-129423759D01*
X101015284Y-129307266D01*
X100980185Y-129181776D01*
X100972392Y-129049507D01*
X100978057Y-128988457D01*
X101008922Y-128861795D01*
X101062080Y-128749941D01*
X101134233Y-128654001D01*
X101222083Y-128575076D01*
X101322335Y-128514270D01*
X101431690Y-128472687D01*
X101546853Y-128451428D01*
X101664525Y-128451599D01*
X101781410Y-128474301D01*
X101894211Y-128520638D01*
X101999631Y-128591713D01*
X102043632Y-128631911D01*
X102128021Y-128735129D01*
X102186778Y-128847925D01*
X102220296Y-128967010D01*
X102228965Y-129089095D01*
X102213177Y-129210893D01*
X102173322Y-129329116D01*
X102109793Y-129440475D01*
X102022979Y-129541684D01*
X101925971Y-129620887D01*
X101885563Y-129651162D01*
X101857018Y-129677219D01*
X101846743Y-129692825D01*
X101852123Y-129709843D01*
X101867425Y-129750500D01*
X101891388Y-129811642D01*
X101922756Y-129890119D01*
X101960268Y-129982780D01*
X102002667Y-130086472D01*
X102044337Y-130187526D01*
X102090310Y-130298607D01*
X102132893Y-130401541D01*
X102170779Y-130493165D01*
X102202660Y-130570316D01*
X102227229Y-130629831D01*
X102243180Y-130668544D01*
X102249090Y-130683000D01*
X102263052Y-130697685D01*
X102290060Y-130697642D01*
X102333587Y-130682099D01*
X102397110Y-130650284D01*
X102397612Y-130650013D01*
X102445440Y-130625323D01*
X102484103Y-130607338D01*
X102505905Y-130599614D01*
X102506867Y-130599543D01*
X102523279Y-130607378D01*
X102559513Y-130629165D01*
X102611526Y-130662328D01*
X102675275Y-130704291D01*
X102745940Y-130751943D01*
X102817884Y-130800191D01*
X102882726Y-130842151D01*
X102936265Y-130875227D01*
X102974303Y-130896821D01*
X102992467Y-130904343D01*
X103009192Y-130894457D01*
X103042820Y-130866826D01*
X103089990Y-130824495D01*
X103147342Y-130770505D01*
X103211516Y-130707899D01*
X103232503Y-130686983D01*
X103449501Y-130469623D01*
X103284332Y-130227220D01*
X103234136Y-130152781D01*
X103190081Y-130085972D01*
X103154638Y-130030665D01*
X103130281Y-129990729D01*
X103119478Y-129970036D01*
X103119162Y-129968563D01*
X103124857Y-129949058D01*
X103140174Y-129909822D01*
X103162463Y-129857430D01*
X103178107Y-129822355D01*
X103207359Y-129755201D01*
X103234906Y-129687358D01*
X103256263Y-129630034D01*
X103262065Y-129612572D01*
X103278548Y-129565938D01*
X103294660Y-129529905D01*
X103303510Y-129516287D01*
X103323040Y-129507952D01*
X103365666Y-129496137D01*
X103425855Y-129482181D01*
X103498078Y-129467422D01*
X103530400Y-129461355D01*
X103612478Y-129446273D01*
X103691205Y-129431669D01*
X103758891Y-129418980D01*
X103807840Y-129409642D01*
X103817057Y-129407839D01*
X103893257Y-129392799D01*
X103893257Y-129075492D01*
X103893086Y-128971154D01*
X103892384Y-128892213D01*
X103890866Y-128835038D01*
X103888251Y-128795999D01*
X103884254Y-128771465D01*
X103878591Y-128757805D01*
X103870980Y-128751389D01*
X103867857Y-128750199D01*
X103849022Y-128745980D01*
X103807412Y-128737562D01*
X103748370Y-128725961D01*
X103677243Y-128712195D01*
X103599375Y-128697280D01*
X103520113Y-128682232D01*
X103444802Y-128668069D01*
X103378787Y-128655806D01*
X103327413Y-128646461D01*
X103296025Y-128641050D01*
X103289041Y-128640114D01*
X103282715Y-128627596D01*
X103268710Y-128594246D01*
X103249645Y-128546377D01*
X103242366Y-128527629D01*
X103213004Y-128455195D01*
X103178429Y-128375170D01*
X103147463Y-128307728D01*
X103124677Y-128256159D01*
X103109518Y-128213785D01*
X103104458Y-128187834D01*
X103105264Y-128184356D01*
X103115959Y-128167936D01*
X103140380Y-128131417D01*
X103175905Y-128078687D01*
X103219913Y-128013635D01*
X103269783Y-127940151D01*
X103279644Y-127925645D01*
X103337508Y-127839704D01*
X103380044Y-127774261D01*
X103408946Y-127726304D01*
X103425910Y-127692820D01*
X103432633Y-127670795D01*
X103430810Y-127657217D01*
X103430764Y-127657131D01*
X103416414Y-127639297D01*
X103384677Y-127604817D01*
X103338990Y-127557268D01*
X103282796Y-127500222D01*
X103219532Y-127437255D01*
X103212398Y-127430227D01*
X103132670Y-127353020D01*
X103071143Y-127296330D01*
X103026579Y-127259110D01*
X102997743Y-127240315D01*
X102985042Y-127237889D01*
X102966506Y-127248471D01*
X102928039Y-127272916D01*
X102873614Y-127308612D01*
X102807202Y-127352947D01*
X102732775Y-127403311D01*
X102715399Y-127415160D01*
X102468703Y-127583626D01*
X102357294Y-127533062D01*
X102289543Y-127503595D01*
X102216817Y-127473959D01*
X102154297Y-127450330D01*
X102151543Y-127449358D01*
X102102640Y-127431457D01*
X102064943Y-127416320D01*
X102046575Y-127407210D01*
X102046544Y-127407184D01*
X102040715Y-127390717D01*
X102030808Y-127350219D01*
X102017805Y-127290242D01*
X102002691Y-127215340D01*
X101986448Y-127130064D01*
X101985119Y-127122875D01*
X101968825Y-127035014D01*
X101953867Y-126955260D01*
X101941209Y-126888681D01*
X101931814Y-126840347D01*
X101926646Y-126815325D01*
X101926556Y-126814943D01*
X101923411Y-126804299D01*
X101917296Y-126796262D01*
X101904547Y-126790467D01*
X101881500Y-126786547D01*
X101844491Y-126784135D01*
X101789856Y-126782865D01*
X101713933Y-126782371D01*
X101613056Y-126782286D01*
X101600000Y-126782286D01*
X101496090Y-126782348D01*
G36*
X98446405Y-131506966D02*
G01*
X98388979Y-131544497D01*
X98361281Y-131578096D01*
X98339338Y-131639064D01*
X98337595Y-131687308D01*
X98341543Y-131751816D01*
X98490314Y-131816934D01*
X98562651Y-131850202D01*
X98609916Y-131876964D01*
X98634493Y-131900144D01*
X98638763Y-131922667D01*
X98625111Y-131947455D01*
X98610057Y-131963886D01*
X98566254Y-131990235D01*
X98518611Y-131992081D01*
X98474855Y-131971546D01*
X98442711Y-131930752D01*
X98436962Y-131916347D01*
X98409424Y-131871356D01*
X98377742Y-131852182D01*
X98334286Y-131835779D01*
X98334286Y-131897966D01*
X98338128Y-131940283D01*
X98353177Y-131975969D01*
X98384720Y-132016943D01*
X98389408Y-132022267D01*
X98424494Y-132058720D01*
X98454653Y-132078283D01*
X98492385Y-132087283D01*
X98523665Y-132090230D01*
X98579615Y-132090965D01*
X98619445Y-132081660D01*
X98644292Y-132067846D01*
X98683344Y-132037467D01*
X98710375Y-132004613D01*
X98727483Y-131963294D01*
X98736762Y-131907521D01*
X98740307Y-131831305D01*
X98740590Y-131792622D01*
X98739628Y-131746247D01*
X98651993Y-131746247D01*
X98650977Y-131771126D01*
X98648444Y-131775200D01*
X98631726Y-131769665D01*
X98595751Y-131755017D01*
X98547669Y-131734190D01*
X98537614Y-131729714D01*
X98476848Y-131698814D01*
X98443368Y-131671657D01*
X98436010Y-131646220D01*
X98453609Y-131620481D01*
X98468144Y-131609109D01*
X98520590Y-131586364D01*
X98569678Y-131590122D01*
X98610773Y-131617884D01*
X98639242Y-131667152D01*
X98648369Y-131706257D01*
X98651993Y-131746247D01*
X98739628Y-131746247D01*
X98738715Y-131702249D01*
X98731804Y-131635384D01*
X98718116Y-131586695D01*
X98695904Y-131550849D01*
X98663426Y-131522513D01*
X98649267Y-131513355D01*
X98584947Y-131489507D01*
X98514527Y-131488006D01*
X98446405Y-131506966D01*
X98446405Y-131506966D01*
G37*
X98446405Y-131506966D02*
X98388979Y-131544497D01*
X98361281Y-131578096D01*
X98339338Y-131639064D01*
X98337595Y-131687308D01*
X98341543Y-131751816D01*
X98490314Y-131816934D01*
X98562651Y-131850202D01*
X98609916Y-131876964D01*
X98634493Y-131900144D01*
X98638763Y-131922667D01*
X98625111Y-131947455D01*
X98610057Y-131963886D01*
X98566254Y-131990235D01*
X98518611Y-131992081D01*
X98474855Y-131971546D01*
X98442711Y-131930752D01*
X98436962Y-131916347D01*
X98409424Y-131871356D01*
X98377742Y-131852182D01*
X98334286Y-131835779D01*
X98334286Y-131897966D01*
X98338128Y-131940283D01*
X98353177Y-131975969D01*
X98384720Y-132016943D01*
X98389408Y-132022267D01*
X98424494Y-132058720D01*
X98454653Y-132078283D01*
X98492385Y-132087283D01*
X98523665Y-132090230D01*
X98579615Y-132090965D01*
X98619445Y-132081660D01*
X98644292Y-132067846D01*
X98683344Y-132037467D01*
X98710375Y-132004613D01*
X98727483Y-131963294D01*
X98736762Y-131907521D01*
X98740307Y-131831305D01*
X98740590Y-131792622D01*
X98739628Y-131746247D01*
X98651993Y-131746247D01*
X98650977Y-131771126D01*
X98648444Y-131775200D01*
X98631726Y-131769665D01*
X98595751Y-131755017D01*
X98547669Y-131734190D01*
X98537614Y-131729714D01*
X98476848Y-131698814D01*
X98443368Y-131671657D01*
X98436010Y-131646220D01*
X98453609Y-131620481D01*
X98468144Y-131609109D01*
X98520590Y-131586364D01*
X98569678Y-131590122D01*
X98610773Y-131617884D01*
X98639242Y-131667152D01*
X98648369Y-131706257D01*
X98651993Y-131746247D01*
X98739628Y-131746247D01*
X98738715Y-131702249D01*
X98731804Y-131635384D01*
X98718116Y-131586695D01*
X98695904Y-131550849D01*
X98663426Y-131522513D01*
X98649267Y-131513355D01*
X98584947Y-131489507D01*
X98514527Y-131488006D01*
X98446405Y-131506966D01*
G36*
X98947400Y-131498752D02*
G01*
X98930052Y-131506334D01*
X98888644Y-131539128D01*
X98853235Y-131586547D01*
X98831336Y-131637151D01*
X98827771Y-131662098D01*
X98839721Y-131696927D01*
X98865933Y-131715357D01*
X98894036Y-131726516D01*
X98906905Y-131728572D01*
X98913171Y-131713649D01*
X98925544Y-131681175D01*
X98930972Y-131666502D01*
X98961410Y-131615744D01*
X99005480Y-131590427D01*
X99061990Y-131591206D01*
X99066175Y-131592203D01*
X99096345Y-131606507D01*
X99118524Y-131634393D01*
X99133673Y-131679287D01*
X99142750Y-131744615D01*
X99146714Y-131833804D01*
X99147086Y-131881261D01*
X99147270Y-131956071D01*
X99148478Y-132007069D01*
X99151691Y-132039471D01*
X99157891Y-132058495D01*
X99168060Y-132069356D01*
X99183181Y-132077272D01*
X99184054Y-132077670D01*
X99213172Y-132089981D01*
X99227597Y-132094514D01*
X99229814Y-132080809D01*
X99231711Y-132042925D01*
X99233153Y-131985715D01*
X99234002Y-131914027D01*
X99234171Y-131861565D01*
X99233308Y-131760047D01*
X99229930Y-131683032D01*
X99222858Y-131626023D01*
X99210912Y-131584526D01*
X99192910Y-131554043D01*
X99167673Y-131530080D01*
X99142753Y-131513355D01*
X99082829Y-131491097D01*
X99013089Y-131486076D01*
X98947400Y-131498752D01*
X98947400Y-131498752D01*
G37*
X98947400Y-131498752D02*
X98930052Y-131506334D01*
X98888644Y-131539128D01*
X98853235Y-131586547D01*
X98831336Y-131637151D01*
X98827771Y-131662098D01*
X98839721Y-131696927D01*
X98865933Y-131715357D01*
X98894036Y-131726516D01*
X98906905Y-131728572D01*
X98913171Y-131713649D01*
X98925544Y-131681175D01*
X98930972Y-131666502D01*
X98961410Y-131615744D01*
X99005480Y-131590427D01*
X99061990Y-131591206D01*
X99066175Y-131592203D01*
X99096345Y-131606507D01*
X99118524Y-131634393D01*
X99133673Y-131679287D01*
X99142750Y-131744615D01*
X99146714Y-131833804D01*
X99147086Y-131881261D01*
X99147270Y-131956071D01*
X99148478Y-132007069D01*
X99151691Y-132039471D01*
X99157891Y-132058495D01*
X99168060Y-132069356D01*
X99183181Y-132077272D01*
X99184054Y-132077670D01*
X99213172Y-132089981D01*
X99227597Y-132094514D01*
X99229814Y-132080809D01*
X99231711Y-132042925D01*
X99233153Y-131985715D01*
X99234002Y-131914027D01*
X99234171Y-131861565D01*
X99233308Y-131760047D01*
X99229930Y-131683032D01*
X99222858Y-131626023D01*
X99210912Y-131584526D01*
X99192910Y-131554043D01*
X99167673Y-131530080D01*
X99142753Y-131513355D01*
X99082829Y-131491097D01*
X99013089Y-131486076D01*
X98947400Y-131498752D01*
G36*
X99455124Y-131496335D02*
G01*
X99413333Y-131515344D01*
X99380531Y-131538378D01*
X99356497Y-131564133D01*
X99339903Y-131597358D01*
X99329423Y-131642800D01*
X99323729Y-131705207D01*
X99321493Y-131789327D01*
X99321257Y-131844721D01*
X99321257Y-132060826D01*
X99358226Y-132077670D01*
X99387344Y-132089981D01*
X99401769Y-132094514D01*
X99404528Y-132081025D01*
X99406718Y-132044653D01*
X99408058Y-131991542D01*
X99408343Y-131949372D01*
X99409566Y-131888447D01*
X99412864Y-131840115D01*
X99417679Y-131810518D01*
X99421504Y-131804229D01*
X99447217Y-131810652D01*
X99487582Y-131827125D01*
X99534321Y-131849458D01*
X99579155Y-131873457D01*
X99613807Y-131894930D01*
X99629998Y-131909685D01*
X99630062Y-131909845D01*
X99628670Y-131937152D01*
X99616182Y-131963219D01*
X99594257Y-131984392D01*
X99562257Y-131991474D01*
X99534908Y-131990649D01*
X99496174Y-131990042D01*
X99475842Y-131999116D01*
X99463631Y-132023092D01*
X99462091Y-132027613D01*
X99456797Y-132061806D01*
X99470953Y-132082568D01*
X99507852Y-132092462D01*
X99547711Y-132094292D01*
X99619438Y-132080727D01*
X99656568Y-132061355D01*
X99702424Y-132015845D01*
X99726744Y-131959983D01*
X99728927Y-131900957D01*
X99708371Y-131845953D01*
X99677451Y-131811486D01*
X99646580Y-131792189D01*
X99598058Y-131767759D01*
X99541515Y-131742985D01*
X99532090Y-131739199D01*
X99469981Y-131711791D01*
X99434178Y-131687634D01*
X99422663Y-131663619D01*
X99433420Y-131636635D01*
X99451886Y-131615543D01*
X99495531Y-131589572D01*
X99543554Y-131587624D01*
X99587594Y-131607637D01*
X99619291Y-131647551D01*
X99623451Y-131657848D01*
X99647673Y-131695724D01*
X99683035Y-131723842D01*
X99727657Y-131746917D01*
X99727657Y-131681485D01*
X99725031Y-131641506D01*
X99713770Y-131609997D01*
X99688801Y-131576378D01*
X99664831Y-131550484D01*
X99627559Y-131513817D01*
X99598599Y-131494121D01*
X99567495Y-131486220D01*
X99532287Y-131484914D01*
X99455124Y-131496335D01*
X99455124Y-131496335D01*
G37*
X99455124Y-131496335D02*
X99413333Y-131515344D01*
X99380531Y-131538378D01*
X99356497Y-131564133D01*
X99339903Y-131597358D01*
X99329423Y-131642800D01*
X99323729Y-131705207D01*
X99321493Y-131789327D01*
X99321257Y-131844721D01*
X99321257Y-132060826D01*
X99358226Y-132077670D01*
X99387344Y-132089981D01*
X99401769Y-132094514D01*
X99404528Y-132081025D01*
X99406718Y-132044653D01*
X99408058Y-131991542D01*
X99408343Y-131949372D01*
X99409566Y-131888447D01*
X99412864Y-131840115D01*
X99417679Y-131810518D01*
X99421504Y-131804229D01*
X99447217Y-131810652D01*
X99487582Y-131827125D01*
X99534321Y-131849458D01*
X99579155Y-131873457D01*
X99613807Y-131894930D01*
X99629998Y-131909685D01*
X99630062Y-131909845D01*
X99628670Y-131937152D01*
X99616182Y-131963219D01*
X99594257Y-131984392D01*
X99562257Y-131991474D01*
X99534908Y-131990649D01*
X99496174Y-131990042D01*
X99475842Y-131999116D01*
X99463631Y-132023092D01*
X99462091Y-132027613D01*
X99456797Y-132061806D01*
X99470953Y-132082568D01*
X99507852Y-132092462D01*
X99547711Y-132094292D01*
X99619438Y-132080727D01*
X99656568Y-132061355D01*
X99702424Y-132015845D01*
X99726744Y-131959983D01*
X99728927Y-131900957D01*
X99708371Y-131845953D01*
X99677451Y-131811486D01*
X99646580Y-131792189D01*
X99598058Y-131767759D01*
X99541515Y-131742985D01*
X99532090Y-131739199D01*
X99469981Y-131711791D01*
X99434178Y-131687634D01*
X99422663Y-131663619D01*
X99433420Y-131636635D01*
X99451886Y-131615543D01*
X99495531Y-131589572D01*
X99543554Y-131587624D01*
X99587594Y-131607637D01*
X99619291Y-131647551D01*
X99623451Y-131657848D01*
X99647673Y-131695724D01*
X99683035Y-131723842D01*
X99727657Y-131746917D01*
X99727657Y-131681485D01*
X99725031Y-131641506D01*
X99713770Y-131609997D01*
X99688801Y-131576378D01*
X99664831Y-131550484D01*
X99627559Y-131513817D01*
X99598599Y-131494121D01*
X99567495Y-131486220D01*
X99532287Y-131484914D01*
X99455124Y-131496335D01*
G36*
X99820167Y-131498663D02*
G01*
X99817952Y-131536850D01*
X99816216Y-131594886D01*
X99815101Y-131668180D01*
X99814743Y-131745055D01*
X99814743Y-132005196D01*
X99860674Y-132051127D01*
X99892325Y-132079429D01*
X99920110Y-132090893D01*
X99958085Y-132090168D01*
X99973160Y-132088321D01*
X100020274Y-132082948D01*
X100059244Y-132079869D01*
X100068743Y-132079585D01*
X100100767Y-132081445D01*
X100146568Y-132086114D01*
X100164326Y-132088321D01*
X100207943Y-132091735D01*
X100237255Y-132084320D01*
X100266320Y-132061427D01*
X100276812Y-132051127D01*
X100322743Y-132005196D01*
X100322743Y-131518602D01*
X100285774Y-131501758D01*
X100253941Y-131489282D01*
X100235317Y-131484914D01*
X100230542Y-131498718D01*
X100226079Y-131537286D01*
X100222225Y-131596356D01*
X100219278Y-131671663D01*
X100217857Y-131735286D01*
X100213886Y-131985657D01*
X100179241Y-131990556D01*
X100147732Y-131987131D01*
X100132292Y-131976041D01*
X100127977Y-131955308D01*
X100124292Y-131911145D01*
X100121531Y-131849146D01*
X100119988Y-131774909D01*
X100119765Y-131736706D01*
X100119543Y-131516783D01*
X100073834Y-131500849D01*
X100041482Y-131490015D01*
X100023885Y-131484962D01*
X100023377Y-131484914D01*
X100021612Y-131498648D01*
X100019671Y-131536730D01*
X100017718Y-131594482D01*
X100015916Y-131667227D01*
X100014657Y-131735286D01*
X100010686Y-131985657D01*
X99923600Y-131985657D01*
X99919604Y-131757240D01*
X99915608Y-131528822D01*
X99873153Y-131506868D01*
X99841808Y-131491793D01*
X99823256Y-131484951D01*
X99822721Y-131484914D01*
X99820167Y-131498663D01*
X99820167Y-131498663D01*
G37*
X99820167Y-131498663D02*
X99817952Y-131536850D01*
X99816216Y-131594886D01*
X99815101Y-131668180D01*
X99814743Y-131745055D01*
X99814743Y-132005196D01*
X99860674Y-132051127D01*
X99892325Y-132079429D01*
X99920110Y-132090893D01*
X99958085Y-132090168D01*
X99973160Y-132088321D01*
X100020274Y-132082948D01*
X100059244Y-132079869D01*
X100068743Y-132079585D01*
X100100767Y-132081445D01*
X100146568Y-132086114D01*
X100164326Y-132088321D01*
X100207943Y-132091735D01*
X100237255Y-132084320D01*
X100266320Y-132061427D01*
X100276812Y-132051127D01*
X100322743Y-132005196D01*
X100322743Y-131518602D01*
X100285774Y-131501758D01*
X100253941Y-131489282D01*
X100235317Y-131484914D01*
X100230542Y-131498718D01*
X100226079Y-131537286D01*
X100222225Y-131596356D01*
X100219278Y-131671663D01*
X100217857Y-131735286D01*
X100213886Y-131985657D01*
X100179241Y-131990556D01*
X100147732Y-131987131D01*
X100132292Y-131976041D01*
X100127977Y-131955308D01*
X100124292Y-131911145D01*
X100121531Y-131849146D01*
X100119988Y-131774909D01*
X100119765Y-131736706D01*
X100119543Y-131516783D01*
X100073834Y-131500849D01*
X100041482Y-131490015D01*
X100023885Y-131484962D01*
X100023377Y-131484914D01*
X100021612Y-131498648D01*
X100019671Y-131536730D01*
X100017718Y-131594482D01*
X100015916Y-131667227D01*
X100014657Y-131735286D01*
X100010686Y-131985657D01*
X99923600Y-131985657D01*
X99919604Y-131757240D01*
X99915608Y-131528822D01*
X99873153Y-131506868D01*
X99841808Y-131491793D01*
X99823256Y-131484951D01*
X99822721Y-131484914D01*
X99820167Y-131498663D01*
G36*
X100409883Y-131605358D02*
G01*
X100410067Y-131713837D01*
X100410781Y-131797287D01*
X100412325Y-131859704D01*
X100414999Y-131905085D01*
X100419106Y-131937429D01*
X100424945Y-131960733D01*
X100432818Y-131978995D01*
X100438779Y-131989418D01*
X100488145Y-132045945D01*
X100550736Y-132081377D01*
X100619987Y-132094090D01*
X100689332Y-132082463D01*
X100730625Y-132061568D01*
X100773975Y-132025422D01*
X100803519Y-131981276D01*
X100821345Y-131923462D01*
X100829537Y-131846313D01*
X100830698Y-131789714D01*
X100830542Y-131785647D01*
X100729143Y-131785647D01*
X100728524Y-131850550D01*
X100725686Y-131893514D01*
X100719160Y-131921622D01*
X100707477Y-131941953D01*
X100693517Y-131957288D01*
X100646635Y-131986890D01*
X100596299Y-131989419D01*
X100548724Y-131964705D01*
X100545021Y-131961356D01*
X100529217Y-131943935D01*
X100519307Y-131923209D01*
X100513942Y-131892362D01*
X100511772Y-131844577D01*
X100511429Y-131791748D01*
X100512173Y-131725381D01*
X100515252Y-131681106D01*
X100521939Y-131652009D01*
X100533504Y-131631173D01*
X100542987Y-131620107D01*
X100587040Y-131592198D01*
X100637776Y-131588843D01*
X100686204Y-131610159D01*
X100695550Y-131618073D01*
X100711460Y-131635647D01*
X100721390Y-131656587D01*
X100726722Y-131687782D01*
X100728837Y-131736122D01*
X100729143Y-131785647D01*
X100830542Y-131785647D01*
X100827190Y-131698568D01*
X100815274Y-131630086D01*
X100792865Y-131578600D01*
X100757876Y-131538443D01*
X100730625Y-131517861D01*
X100681093Y-131495625D01*
X100623684Y-131485304D01*
X100570318Y-131488067D01*
X100540457Y-131499212D01*
X100528739Y-131502383D01*
X100520963Y-131490557D01*
X100515535Y-131458866D01*
X100511429Y-131410593D01*
X100506933Y-131356829D01*
X100500687Y-131324482D01*
X100489324Y-131305985D01*
X100469472Y-131293770D01*
X100457000Y-131288362D01*
X100409829Y-131268601D01*
X100409883Y-131605358D01*
X100409883Y-131605358D01*
G37*
X100409883Y-131605358D02*
X100410067Y-131713837D01*
X100410781Y-131797287D01*
X100412325Y-131859704D01*
X100414999Y-131905085D01*
X100419106Y-131937429D01*
X100424945Y-131960733D01*
X100432818Y-131978995D01*
X100438779Y-131989418D01*
X100488145Y-132045945D01*
X100550736Y-132081377D01*
X100619987Y-132094090D01*
X100689332Y-132082463D01*
X100730625Y-132061568D01*
X100773975Y-132025422D01*
X100803519Y-131981276D01*
X100821345Y-131923462D01*
X100829537Y-131846313D01*
X100830698Y-131789714D01*
X100830542Y-131785647D01*
X100729143Y-131785647D01*
X100728524Y-131850550D01*
X100725686Y-131893514D01*
X100719160Y-131921622D01*
X100707477Y-131941953D01*
X100693517Y-131957288D01*
X100646635Y-131986890D01*
X100596299Y-131989419D01*
X100548724Y-131964705D01*
X100545021Y-131961356D01*
X100529217Y-131943935D01*
X100519307Y-131923209D01*
X100513942Y-131892362D01*
X100511772Y-131844577D01*
X100511429Y-131791748D01*
X100512173Y-131725381D01*
X100515252Y-131681106D01*
X100521939Y-131652009D01*
X100533504Y-131631173D01*
X100542987Y-131620107D01*
X100587040Y-131592198D01*
X100637776Y-131588843D01*
X100686204Y-131610159D01*
X100695550Y-131618073D01*
X100711460Y-131635647D01*
X100721390Y-131656587D01*
X100726722Y-131687782D01*
X100728837Y-131736122D01*
X100729143Y-131785647D01*
X100830542Y-131785647D01*
X100827190Y-131698568D01*
X100815274Y-131630086D01*
X100792865Y-131578600D01*
X100757876Y-131538443D01*
X100730625Y-131517861D01*
X100681093Y-131495625D01*
X100623684Y-131485304D01*
X100570318Y-131488067D01*
X100540457Y-131499212D01*
X100528739Y-131502383D01*
X100520963Y-131490557D01*
X100515535Y-131458866D01*
X100511429Y-131410593D01*
X100506933Y-131356829D01*
X100500687Y-131324482D01*
X100489324Y-131305985D01*
X100469472Y-131293770D01*
X100457000Y-131288362D01*
X100409829Y-131268601D01*
X100409883Y-131605358D01*
G36*
X101070074Y-131489755D02*
G01*
X101004142Y-131514084D01*
X100950727Y-131557117D01*
X100929836Y-131587409D01*
X100907061Y-131642994D01*
X100907534Y-131683186D01*
X100931438Y-131710217D01*
X100940283Y-131714813D01*
X100978470Y-131729144D01*
X100997972Y-131725472D01*
X101004578Y-131701407D01*
X101004914Y-131688114D01*
X101017008Y-131639210D01*
X101048529Y-131604999D01*
X101092341Y-131588476D01*
X101141305Y-131592634D01*
X101181106Y-131614227D01*
X101194550Y-131626544D01*
X101204079Y-131641487D01*
X101210515Y-131664075D01*
X101214683Y-131699328D01*
X101217403Y-131752266D01*
X101219498Y-131827907D01*
X101220040Y-131851857D01*
X101222019Y-131933790D01*
X101224269Y-131991455D01*
X101227643Y-132029608D01*
X101232994Y-132053004D01*
X101241176Y-132066398D01*
X101253041Y-132074545D01*
X101260638Y-132078144D01*
X101292898Y-132090452D01*
X101311889Y-132094514D01*
X101318164Y-132080948D01*
X101321994Y-132039934D01*
X101323400Y-131970999D01*
X101322402Y-131873669D01*
X101322092Y-131858657D01*
X101319899Y-131769859D01*
X101317307Y-131705019D01*
X101313618Y-131659067D01*
X101308136Y-131626935D01*
X101300165Y-131603553D01*
X101289007Y-131583852D01*
X101283170Y-131575410D01*
X101249704Y-131538057D01*
X101212273Y-131509003D01*
X101207691Y-131506467D01*
X101140574Y-131486443D01*
X101070074Y-131489755D01*
X101070074Y-131489755D01*
G37*
X101070074Y-131489755D02*
X101004142Y-131514084D01*
X100950727Y-131557117D01*
X100929836Y-131587409D01*
X100907061Y-131642994D01*
X100907534Y-131683186D01*
X100931438Y-131710217D01*
X100940283Y-131714813D01*
X100978470Y-131729144D01*
X100997972Y-131725472D01*
X101004578Y-131701407D01*
X101004914Y-131688114D01*
X101017008Y-131639210D01*
X101048529Y-131604999D01*
X101092341Y-131588476D01*
X101141305Y-131592634D01*
X101181106Y-131614227D01*
X101194550Y-131626544D01*
X101204079Y-131641487D01*
X101210515Y-131664075D01*
X101214683Y-131699328D01*
X101217403Y-131752266D01*
X101219498Y-131827907D01*
X101220040Y-131851857D01*
X101222019Y-131933790D01*
X101224269Y-131991455D01*
X101227643Y-132029608D01*
X101232994Y-132053004D01*
X101241176Y-132066398D01*
X101253041Y-132074545D01*
X101260638Y-132078144D01*
X101292898Y-132090452D01*
X101311889Y-132094514D01*
X101318164Y-132080948D01*
X101321994Y-132039934D01*
X101323400Y-131970999D01*
X101322402Y-131873669D01*
X101322092Y-131858657D01*
X101319899Y-131769859D01*
X101317307Y-131705019D01*
X101313618Y-131659067D01*
X101308136Y-131626935D01*
X101300165Y-131603553D01*
X101289007Y-131583852D01*
X101283170Y-131575410D01*
X101249704Y-131538057D01*
X101212273Y-131509003D01*
X101207691Y-131506467D01*
X101140574Y-131486443D01*
X101070074Y-131489755D01*
G36*
X101560256Y-131490968D02*
G01*
X101503384Y-131512087D01*
X101502733Y-131512493D01*
X101467560Y-131538380D01*
X101441593Y-131568633D01*
X101423330Y-131608058D01*
X101411268Y-131661462D01*
X101403904Y-131733651D01*
X101399736Y-131829432D01*
X101399371Y-131843078D01*
X101394124Y-132048842D01*
X101438284Y-132071678D01*
X101470237Y-132087110D01*
X101489530Y-132094423D01*
X101490422Y-132094514D01*
X101493761Y-132081022D01*
X101496413Y-132044626D01*
X101498044Y-131991452D01*
X101498400Y-131948393D01*
X101498408Y-131878641D01*
X101501597Y-131834837D01*
X101512712Y-131813944D01*
X101536499Y-131812925D01*
X101577704Y-131828741D01*
X101639914Y-131857815D01*
X101685659Y-131881963D01*
X101709187Y-131902913D01*
X101716104Y-131925747D01*
X101716114Y-131926877D01*
X101704701Y-131966212D01*
X101670908Y-131987462D01*
X101619191Y-131990539D01*
X101581939Y-131990006D01*
X101562297Y-132000735D01*
X101550048Y-132026505D01*
X101542998Y-132059337D01*
X101553158Y-132077966D01*
X101556983Y-132080632D01*
X101592999Y-132091340D01*
X101643434Y-132092856D01*
X101695374Y-132085759D01*
X101732178Y-132072788D01*
X101783062Y-132029585D01*
X101811986Y-131969446D01*
X101817714Y-131922462D01*
X101813343Y-131880082D01*
X101797525Y-131845488D01*
X101766203Y-131814763D01*
X101715322Y-131783990D01*
X101640824Y-131749252D01*
X101636286Y-131747288D01*
X101569179Y-131716287D01*
X101527768Y-131690862D01*
X101510019Y-131668014D01*
X101513893Y-131644745D01*
X101537357Y-131618056D01*
X101544373Y-131611914D01*
X101591370Y-131588100D01*
X101640067Y-131589103D01*
X101682478Y-131612451D01*
X101710616Y-131655675D01*
X101713231Y-131664160D01*
X101738692Y-131705308D01*
X101770999Y-131725128D01*
X101817714Y-131744770D01*
X101817714Y-131693950D01*
X101803504Y-131620082D01*
X101761325Y-131552327D01*
X101739376Y-131529661D01*
X101689483Y-131500569D01*
X101626033Y-131487400D01*
X101560256Y-131490968D01*
X101560256Y-131490968D01*
G37*
X101560256Y-131490968D02*
X101503384Y-131512087D01*
X101502733Y-131512493D01*
X101467560Y-131538380D01*
X101441593Y-131568633D01*
X101423330Y-131608058D01*
X101411268Y-131661462D01*
X101403904Y-131733651D01*
X101399736Y-131829432D01*
X101399371Y-131843078D01*
X101394124Y-132048842D01*
X101438284Y-132071678D01*
X101470237Y-132087110D01*
X101489530Y-132094423D01*
X101490422Y-132094514D01*
X101493761Y-132081022D01*
X101496413Y-132044626D01*
X101498044Y-131991452D01*
X101498400Y-131948393D01*
X101498408Y-131878641D01*
X101501597Y-131834837D01*
X101512712Y-131813944D01*
X101536499Y-131812925D01*
X101577704Y-131828741D01*
X101639914Y-131857815D01*
X101685659Y-131881963D01*
X101709187Y-131902913D01*
X101716104Y-131925747D01*
X101716114Y-131926877D01*
X101704701Y-131966212D01*
X101670908Y-131987462D01*
X101619191Y-131990539D01*
X101581939Y-131990006D01*
X101562297Y-132000735D01*
X101550048Y-132026505D01*
X101542998Y-132059337D01*
X101553158Y-132077966D01*
X101556983Y-132080632D01*
X101592999Y-132091340D01*
X101643434Y-132092856D01*
X101695374Y-132085759D01*
X101732178Y-132072788D01*
X101783062Y-132029585D01*
X101811986Y-131969446D01*
X101817714Y-131922462D01*
X101813343Y-131880082D01*
X101797525Y-131845488D01*
X101766203Y-131814763D01*
X101715322Y-131783990D01*
X101640824Y-131749252D01*
X101636286Y-131747288D01*
X101569179Y-131716287D01*
X101527768Y-131690862D01*
X101510019Y-131668014D01*
X101513893Y-131644745D01*
X101537357Y-131618056D01*
X101544373Y-131611914D01*
X101591370Y-131588100D01*
X101640067Y-131589103D01*
X101682478Y-131612451D01*
X101710616Y-131655675D01*
X101713231Y-131664160D01*
X101738692Y-131705308D01*
X101770999Y-131725128D01*
X101817714Y-131744770D01*
X101817714Y-131693950D01*
X101803504Y-131620082D01*
X101761325Y-131552327D01*
X101739376Y-131529661D01*
X101689483Y-131500569D01*
X101626033Y-131487400D01*
X101560256Y-131490968D01*
G36*
X102224114Y-131391289D02*
G01*
X102219861Y-131450613D01*
X102214975Y-131485572D01*
X102208205Y-131500820D01*
X102198298Y-131501015D01*
X102195086Y-131499195D01*
X102152356Y-131486015D01*
X102096773Y-131486785D01*
X102040263Y-131500333D01*
X102004918Y-131517861D01*
X101968679Y-131545861D01*
X101942187Y-131577549D01*
X101924001Y-131617813D01*
X101912678Y-131671543D01*
X101906778Y-131743626D01*
X101904857Y-131838951D01*
X101904823Y-131857237D01*
X101904800Y-132062646D01*
X101950509Y-132078580D01*
X101982973Y-132089420D01*
X102000785Y-132094468D01*
X102001309Y-132094514D01*
X102003063Y-132080828D01*
X102004556Y-132043076D01*
X102005674Y-131986224D01*
X102006303Y-131915234D01*
X102006400Y-131872073D01*
X102006602Y-131786973D01*
X102007642Y-131725981D01*
X102010169Y-131684177D01*
X102014836Y-131656642D01*
X102022293Y-131638456D01*
X102033189Y-131624698D01*
X102039993Y-131618073D01*
X102086728Y-131591375D01*
X102137728Y-131589375D01*
X102183999Y-131611955D01*
X102192556Y-131620107D01*
X102205107Y-131635436D01*
X102213812Y-131653618D01*
X102219369Y-131679909D01*
X102222474Y-131719562D01*
X102223824Y-131777832D01*
X102224114Y-131858173D01*
X102224114Y-132062646D01*
X102269823Y-132078580D01*
X102302287Y-132089420D01*
X102320099Y-132094468D01*
X102320623Y-132094514D01*
X102321963Y-132080623D01*
X102323172Y-132041439D01*
X102324199Y-131980700D01*
X102324998Y-131902141D01*
X102325519Y-131809498D01*
X102325714Y-131706509D01*
X102325714Y-131309342D01*
X102278543Y-131289444D01*
X102231371Y-131269547D01*
X102224114Y-131391289D01*
X102224114Y-131391289D01*
G37*
X102224114Y-131391289D02*
X102219861Y-131450613D01*
X102214975Y-131485572D01*
X102208205Y-131500820D01*
X102198298Y-131501015D01*
X102195086Y-131499195D01*
X102152356Y-131486015D01*
X102096773Y-131486785D01*
X102040263Y-131500333D01*
X102004918Y-131517861D01*
X101968679Y-131545861D01*
X101942187Y-131577549D01*
X101924001Y-131617813D01*
X101912678Y-131671543D01*
X101906778Y-131743626D01*
X101904857Y-131838951D01*
X101904823Y-131857237D01*
X101904800Y-132062646D01*
X101950509Y-132078580D01*
X101982973Y-132089420D01*
X102000785Y-132094468D01*
X102001309Y-132094514D01*
X102003063Y-132080828D01*
X102004556Y-132043076D01*
X102005674Y-131986224D01*
X102006303Y-131915234D01*
X102006400Y-131872073D01*
X102006602Y-131786973D01*
X102007642Y-131725981D01*
X102010169Y-131684177D01*
X102014836Y-131656642D01*
X102022293Y-131638456D01*
X102033189Y-131624698D01*
X102039993Y-131618073D01*
X102086728Y-131591375D01*
X102137728Y-131589375D01*
X102183999Y-131611955D01*
X102192556Y-131620107D01*
X102205107Y-131635436D01*
X102213812Y-131653618D01*
X102219369Y-131679909D01*
X102222474Y-131719562D01*
X102223824Y-131777832D01*
X102224114Y-131858173D01*
X102224114Y-132062646D01*
X102269823Y-132078580D01*
X102302287Y-132089420D01*
X102320099Y-132094468D01*
X102320623Y-132094514D01*
X102321963Y-132080623D01*
X102323172Y-132041439D01*
X102324199Y-131980700D01*
X102324998Y-131902141D01*
X102325519Y-131809498D01*
X102325714Y-131706509D01*
X102325714Y-131309342D01*
X102278543Y-131289444D01*
X102231371Y-131269547D01*
X102224114Y-131391289D01*
G36*
X103431697Y-131471239D02*
G01*
X103374473Y-131509735D01*
X103330251Y-131565335D01*
X103303833Y-131636086D01*
X103298490Y-131688162D01*
X103299097Y-131709893D01*
X103304178Y-131726531D01*
X103318145Y-131741437D01*
X103345411Y-131757973D01*
X103390388Y-131779498D01*
X103457489Y-131809374D01*
X103457829Y-131809524D01*
X103519593Y-131837813D01*
X103570241Y-131862933D01*
X103604596Y-131882179D01*
X103617482Y-131892848D01*
X103617486Y-131892934D01*
X103606128Y-131916166D01*
X103579569Y-131941774D01*
X103549077Y-131960221D01*
X103533630Y-131963886D01*
X103491485Y-131951212D01*
X103455192Y-131919471D01*
X103437483Y-131884572D01*
X103420448Y-131858845D01*
X103387078Y-131829546D01*
X103347851Y-131804235D01*
X103313244Y-131790471D01*
X103306007Y-131789714D01*
X103297861Y-131802160D01*
X103297370Y-131833972D01*
X103303357Y-131876866D01*
X103314643Y-131922558D01*
X103330050Y-131962761D01*
X103330829Y-131964322D01*
X103377196Y-132029062D01*
X103437289Y-132073097D01*
X103505535Y-132094711D01*
X103576362Y-132092185D01*
X103644196Y-132063804D01*
X103647212Y-132061808D01*
X103700573Y-132013448D01*
X103735660Y-131950352D01*
X103755078Y-131867387D01*
X103757684Y-131844078D01*
X103762299Y-131734055D01*
X103756767Y-131682748D01*
X103617486Y-131682748D01*
X103615676Y-131714753D01*
X103605778Y-131724093D01*
X103581102Y-131717105D01*
X103542205Y-131700587D01*
X103498725Y-131679881D01*
X103497644Y-131679333D01*
X103460791Y-131659949D01*
X103446000Y-131647013D01*
X103449647Y-131633451D01*
X103465005Y-131615632D01*
X103504077Y-131589845D01*
X103546154Y-131587950D01*
X103583897Y-131606717D01*
X103609966Y-131642915D01*
X103617486Y-131682748D01*
X103756767Y-131682748D01*
X103752806Y-131646027D01*
X103728450Y-131576212D01*
X103694544Y-131527302D01*
X103633347Y-131477878D01*
X103565937Y-131453359D01*
X103497120Y-131451797D01*
X103431697Y-131471239D01*
X103431697Y-131471239D01*
G37*
X103431697Y-131471239D02*
X103374473Y-131509735D01*
X103330251Y-131565335D01*
X103303833Y-131636086D01*
X103298490Y-131688162D01*
X103299097Y-131709893D01*
X103304178Y-131726531D01*
X103318145Y-131741437D01*
X103345411Y-131757973D01*
X103390388Y-131779498D01*
X103457489Y-131809374D01*
X103457829Y-131809524D01*
X103519593Y-131837813D01*
X103570241Y-131862933D01*
X103604596Y-131882179D01*
X103617482Y-131892848D01*
X103617486Y-131892934D01*
X103606128Y-131916166D01*
X103579569Y-131941774D01*
X103549077Y-131960221D01*
X103533630Y-131963886D01*
X103491485Y-131951212D01*
X103455192Y-131919471D01*
X103437483Y-131884572D01*
X103420448Y-131858845D01*
X103387078Y-131829546D01*
X103347851Y-131804235D01*
X103313244Y-131790471D01*
X103306007Y-131789714D01*
X103297861Y-131802160D01*
X103297370Y-131833972D01*
X103303357Y-131876866D01*
X103314643Y-131922558D01*
X103330050Y-131962761D01*
X103330829Y-131964322D01*
X103377196Y-132029062D01*
X103437289Y-132073097D01*
X103505535Y-132094711D01*
X103576362Y-132092185D01*
X103644196Y-132063804D01*
X103647212Y-132061808D01*
X103700573Y-132013448D01*
X103735660Y-131950352D01*
X103755078Y-131867387D01*
X103757684Y-131844078D01*
X103762299Y-131734055D01*
X103756767Y-131682748D01*
X103617486Y-131682748D01*
X103615676Y-131714753D01*
X103605778Y-131724093D01*
X103581102Y-131717105D01*
X103542205Y-131700587D01*
X103498725Y-131679881D01*
X103497644Y-131679333D01*
X103460791Y-131659949D01*
X103446000Y-131647013D01*
X103449647Y-131633451D01*
X103465005Y-131615632D01*
X103504077Y-131589845D01*
X103546154Y-131587950D01*
X103583897Y-131606717D01*
X103609966Y-131642915D01*
X103617486Y-131682748D01*
X103756767Y-131682748D01*
X103752806Y-131646027D01*
X103728450Y-131576212D01*
X103694544Y-131527302D01*
X103633347Y-131477878D01*
X103565937Y-131453359D01*
X103497120Y-131451797D01*
X103431697Y-131471239D01*
G36*
X104558885Y-131461962D02*
G01*
X104490855Y-131497733D01*
X104440649Y-131555301D01*
X104422815Y-131592312D01*
X104408937Y-131647882D01*
X104401833Y-131718096D01*
X104401160Y-131794727D01*
X104406573Y-131869552D01*
X104417730Y-131934342D01*
X104434286Y-131980873D01*
X104439374Y-131988887D01*
X104499645Y-132048707D01*
X104571231Y-132084535D01*
X104648908Y-132095020D01*
X104727452Y-132078810D01*
X104749311Y-132069092D01*
X104791878Y-132039143D01*
X104829237Y-131999433D01*
X104832768Y-131994397D01*
X104847119Y-131970124D01*
X104856606Y-131944178D01*
X104862210Y-131910022D01*
X104864914Y-131861119D01*
X104865701Y-131790935D01*
X104865714Y-131775200D01*
X104865678Y-131770192D01*
X104720571Y-131770192D01*
X104719727Y-131836430D01*
X104716404Y-131880386D01*
X104709417Y-131908779D01*
X104697584Y-131928325D01*
X104691543Y-131934857D01*
X104656814Y-131959680D01*
X104623097Y-131958548D01*
X104589005Y-131937016D01*
X104568671Y-131914029D01*
X104556629Y-131880478D01*
X104549866Y-131827569D01*
X104549402Y-131821399D01*
X104548248Y-131725513D01*
X104560312Y-131654299D01*
X104585430Y-131608194D01*
X104623440Y-131587635D01*
X104637008Y-131586514D01*
X104672636Y-131592152D01*
X104697006Y-131611686D01*
X104711907Y-131649042D01*
X104719125Y-131708150D01*
X104720571Y-131770192D01*
X104865678Y-131770192D01*
X104865174Y-131700413D01*
X104862904Y-131648159D01*
X104857932Y-131611949D01*
X104849287Y-131585299D01*
X104835995Y-131561722D01*
X104833057Y-131557338D01*
X104783687Y-131498249D01*
X104729891Y-131463947D01*
X104664398Y-131450331D01*
X104642158Y-131449665D01*
X104558885Y-131461962D01*
X104558885Y-131461962D01*
G37*
X104558885Y-131461962D02*
X104490855Y-131497733D01*
X104440649Y-131555301D01*
X104422815Y-131592312D01*
X104408937Y-131647882D01*
X104401833Y-131718096D01*
X104401160Y-131794727D01*
X104406573Y-131869552D01*
X104417730Y-131934342D01*
X104434286Y-131980873D01*
X104439374Y-131988887D01*
X104499645Y-132048707D01*
X104571231Y-132084535D01*
X104648908Y-132095020D01*
X104727452Y-132078810D01*
X104749311Y-132069092D01*
X104791878Y-132039143D01*
X104829237Y-131999433D01*
X104832768Y-131994397D01*
X104847119Y-131970124D01*
X104856606Y-131944178D01*
X104862210Y-131910022D01*
X104864914Y-131861119D01*
X104865701Y-131790935D01*
X104865714Y-131775200D01*
X104865678Y-131770192D01*
X104720571Y-131770192D01*
X104719727Y-131836430D01*
X104716404Y-131880386D01*
X104709417Y-131908779D01*
X104697584Y-131928325D01*
X104691543Y-131934857D01*
X104656814Y-131959680D01*
X104623097Y-131958548D01*
X104589005Y-131937016D01*
X104568671Y-131914029D01*
X104556629Y-131880478D01*
X104549866Y-131827569D01*
X104549402Y-131821399D01*
X104548248Y-131725513D01*
X104560312Y-131654299D01*
X104585430Y-131608194D01*
X104623440Y-131587635D01*
X104637008Y-131586514D01*
X104672636Y-131592152D01*
X104697006Y-131611686D01*
X104711907Y-131649042D01*
X104719125Y-131708150D01*
X104720571Y-131770192D01*
X104865678Y-131770192D01*
X104865174Y-131700413D01*
X104862904Y-131648159D01*
X104857932Y-131611949D01*
X104849287Y-131585299D01*
X104835995Y-131561722D01*
X104833057Y-131557338D01*
X104783687Y-131498249D01*
X104729891Y-131463947D01*
X104664398Y-131450331D01*
X104642158Y-131449665D01*
X104558885Y-131461962D01*
G36*
X102883907Y-131467780D02*
G01*
X102837328Y-131494723D01*
X102804943Y-131521466D01*
X102781258Y-131549484D01*
X102764941Y-131583748D01*
X102754661Y-131629227D01*
X102749086Y-131690892D01*
X102746884Y-131773711D01*
X102746629Y-131833246D01*
X102746629Y-132052391D01*
X102808314Y-132080044D01*
X102870000Y-132107697D01*
X102877257Y-131867670D01*
X102880256Y-131778028D01*
X102883402Y-131712962D01*
X102887299Y-131668026D01*
X102892553Y-131638770D01*
X102899769Y-131620748D01*
X102909550Y-131609511D01*
X102912688Y-131607079D01*
X102960239Y-131588083D01*
X103008303Y-131595600D01*
X103036914Y-131615543D01*
X103048553Y-131629675D01*
X103056609Y-131648220D01*
X103061729Y-131676334D01*
X103064559Y-131719173D01*
X103065744Y-131781895D01*
X103065943Y-131847261D01*
X103065982Y-131929268D01*
X103067386Y-131987316D01*
X103072086Y-132026465D01*
X103082013Y-132051780D01*
X103099097Y-132068323D01*
X103125268Y-132081156D01*
X103160225Y-132094491D01*
X103198404Y-132109007D01*
X103193859Y-131851389D01*
X103192029Y-131758519D01*
X103189888Y-131689889D01*
X103186819Y-131640711D01*
X103182206Y-131606198D01*
X103175432Y-131581562D01*
X103165881Y-131562016D01*
X103154366Y-131544770D01*
X103098810Y-131489680D01*
X103031020Y-131457822D01*
X102957287Y-131450191D01*
X102883907Y-131467780D01*
X102883907Y-131467780D01*
G37*
X102883907Y-131467780D02*
X102837328Y-131494723D01*
X102804943Y-131521466D01*
X102781258Y-131549484D01*
X102764941Y-131583748D01*
X102754661Y-131629227D01*
X102749086Y-131690892D01*
X102746884Y-131773711D01*
X102746629Y-131833246D01*
X102746629Y-132052391D01*
X102808314Y-132080044D01*
X102870000Y-132107697D01*
X102877257Y-131867670D01*
X102880256Y-131778028D01*
X102883402Y-131712962D01*
X102887299Y-131668026D01*
X102892553Y-131638770D01*
X102899769Y-131620748D01*
X102909550Y-131609511D01*
X102912688Y-131607079D01*
X102960239Y-131588083D01*
X103008303Y-131595600D01*
X103036914Y-131615543D01*
X103048553Y-131629675D01*
X103056609Y-131648220D01*
X103061729Y-131676334D01*
X103064559Y-131719173D01*
X103065744Y-131781895D01*
X103065943Y-131847261D01*
X103065982Y-131929268D01*
X103067386Y-131987316D01*
X103072086Y-132026465D01*
X103082013Y-132051780D01*
X103099097Y-132068323D01*
X103125268Y-132081156D01*
X103160225Y-132094491D01*
X103198404Y-132109007D01*
X103193859Y-131851389D01*
X103192029Y-131758519D01*
X103189888Y-131689889D01*
X103186819Y-131640711D01*
X103182206Y-131606198D01*
X103175432Y-131581562D01*
X103165881Y-131562016D01*
X103154366Y-131544770D01*
X103098810Y-131489680D01*
X103031020Y-131457822D01*
X102957287Y-131450191D01*
X102883907Y-131467780D01*
G36*
X104000256Y-131459918D02*
G01*
X103944799Y-131487568D01*
X103895852Y-131538480D01*
X103882371Y-131557338D01*
X103867686Y-131582015D01*
X103858158Y-131608816D01*
X103852707Y-131644587D01*
X103850253Y-131696169D01*
X103849714Y-131764267D01*
X103852148Y-131857588D01*
X103860606Y-131927657D01*
X103876826Y-131979931D01*
X103902546Y-132019869D01*
X103939503Y-132052929D01*
X103942218Y-132054886D01*
X103978640Y-132074908D01*
X104022498Y-132084815D01*
X104078276Y-132087257D01*
X104168952Y-132087257D01*
X104168990Y-132175283D01*
X104169834Y-132224308D01*
X104174976Y-132253065D01*
X104188413Y-132270311D01*
X104214142Y-132284808D01*
X104220321Y-132287769D01*
X104249236Y-132301648D01*
X104271624Y-132310414D01*
X104288271Y-132311171D01*
X104299964Y-132301023D01*
X104307490Y-132277073D01*
X104311634Y-132236426D01*
X104313185Y-132176186D01*
X104312929Y-132093455D01*
X104311651Y-131985339D01*
X104311252Y-131953000D01*
X104309815Y-131841524D01*
X104308528Y-131768603D01*
X104169029Y-131768603D01*
X104168245Y-131830499D01*
X104164760Y-131870997D01*
X104156876Y-131897708D01*
X104142895Y-131918244D01*
X104133403Y-131928260D01*
X104094596Y-131957567D01*
X104060237Y-131959952D01*
X104024784Y-131935750D01*
X104023886Y-131934857D01*
X104009461Y-131916153D01*
X104000687Y-131890732D01*
X103996261Y-131851584D01*
X103994882Y-131791697D01*
X103994857Y-131778430D01*
X103998188Y-131695901D01*
X104009031Y-131638691D01*
X104028660Y-131603766D01*
X104058350Y-131588094D01*
X104075509Y-131586514D01*
X104116234Y-131593926D01*
X104144168Y-131618330D01*
X104160983Y-131662980D01*
X104168350Y-131731130D01*
X104169029Y-131768603D01*
X104308528Y-131768603D01*
X104308292Y-131755245D01*
X104306323Y-131690333D01*
X104303550Y-131642958D01*
X104299612Y-131609290D01*
X104294151Y-131585498D01*
X104286808Y-131567753D01*
X104277223Y-131552224D01*
X104273113Y-131546381D01*
X104218595Y-131491185D01*
X104149664Y-131459890D01*
X104069928Y-131451165D01*
X104000256Y-131459918D01*
X104000256Y-131459918D01*
G37*
X104000256Y-131459918D02*
X103944799Y-131487568D01*
X103895852Y-131538480D01*
X103882371Y-131557338D01*
X103867686Y-131582015D01*
X103858158Y-131608816D01*
X103852707Y-131644587D01*
X103850253Y-131696169D01*
X103849714Y-131764267D01*
X103852148Y-131857588D01*
X103860606Y-131927657D01*
X103876826Y-131979931D01*
X103902546Y-132019869D01*
X103939503Y-132052929D01*
X103942218Y-132054886D01*
X103978640Y-132074908D01*
X104022498Y-132084815D01*
X104078276Y-132087257D01*
X104168952Y-132087257D01*
X104168990Y-132175283D01*
X104169834Y-132224308D01*
X104174976Y-132253065D01*
X104188413Y-132270311D01*
X104214142Y-132284808D01*
X104220321Y-132287769D01*
X104249236Y-132301648D01*
X104271624Y-132310414D01*
X104288271Y-132311171D01*
X104299964Y-132301023D01*
X104307490Y-132277073D01*
X104311634Y-132236426D01*
X104313185Y-132176186D01*
X104312929Y-132093455D01*
X104311651Y-131985339D01*
X104311252Y-131953000D01*
X104309815Y-131841524D01*
X104308528Y-131768603D01*
X104169029Y-131768603D01*
X104168245Y-131830499D01*
X104164760Y-131870997D01*
X104156876Y-131897708D01*
X104142895Y-131918244D01*
X104133403Y-131928260D01*
X104094596Y-131957567D01*
X104060237Y-131959952D01*
X104024784Y-131935750D01*
X104023886Y-131934857D01*
X104009461Y-131916153D01*
X104000687Y-131890732D01*
X103996261Y-131851584D01*
X103994882Y-131791697D01*
X103994857Y-131778430D01*
X103998188Y-131695901D01*
X104009031Y-131638691D01*
X104028660Y-131603766D01*
X104058350Y-131588094D01*
X104075509Y-131586514D01*
X104116234Y-131593926D01*
X104144168Y-131618330D01*
X104160983Y-131662980D01*
X104168350Y-131731130D01*
X104169029Y-131768603D01*
X104308528Y-131768603D01*
X104308292Y-131755245D01*
X104306323Y-131690333D01*
X104303550Y-131642958D01*
X104299612Y-131609290D01*
X104294151Y-131585498D01*
X104286808Y-131567753D01*
X104277223Y-131552224D01*
X104273113Y-131546381D01*
X104218595Y-131491185D01*
X104149664Y-131459890D01*
X104069928Y-131451165D01*
X104000256Y-131459918D01*
D12*
X68580000Y-140970000D03*
X95250000Y-140970000D03*
D13*
X111760000Y-102870000D03*
X111760000Y-132080000D03*
D14*
X111760000Y-111760000D03*
D13*
X111760000Y-121920000D03*
D15*
X86360000Y-104140000D03*
D16*
X82550000Y-104140000D03*
D15*
X55880000Y-104140000D03*
D16*
X52070000Y-104140000D03*
D12*
X87630000Y-140970000D03*
X84455000Y-140970000D03*
D17*
X81280000Y-140970000D03*
D12*
X62230000Y-140970000D03*
X59055000Y-140970000D03*
D17*
X55880000Y-140970000D03*
D18*
X77470000Y-129540000D03*
X80010000Y-129540000D03*
X82550000Y-129540000D03*
X52070000Y-129540000D03*
X54610000Y-129540000D03*
X57150000Y-129540000D03*
D19*
X92670000Y-133270000D03*
D20*
X90170000Y-128270000D03*
D19*
X95170000Y-128270000D03*
X67270000Y-133270000D03*
D20*
X64770000Y-128270000D03*
D19*
X69770000Y-128270000D03*
D21*
X107760000Y-121920000D02*
X111760000Y-121920000D01*
X96830130Y-121920000D02*
X107760000Y-121920000D01*
X82550000Y-104140000D02*
X82550000Y-107639870D01*
X56035065Y-111604935D02*
X86515065Y-111604935D01*
X52070000Y-107639870D02*
X56035065Y-111604935D01*
X52070000Y-104140000D02*
X52070000Y-107639870D01*
X82550000Y-107639870D02*
X86515065Y-111604935D01*
X86515065Y-111604935D02*
X96830130Y-121920000D01*
D22*
X80010000Y-133190000D02*
X80010000Y-129540000D01*
X80090000Y-133270000D02*
X80010000Y-133190000D01*
X54610000Y-133190000D02*
X54610000Y-129540000D01*
X54690000Y-133270000D02*
X54610000Y-133190000D01*
X59055000Y-133825000D02*
X59610000Y-133270000D01*
X59055000Y-140970000D02*
X59055000Y-133825000D01*
X67270000Y-133270000D02*
X59610000Y-133270000D01*
X59610000Y-133270000D02*
X54690000Y-133270000D01*
X84455000Y-133825000D02*
X85010000Y-133270000D01*
X84455000Y-140970000D02*
X84455000Y-133825000D01*
X92670000Y-133270000D02*
X85010000Y-133270000D01*
X85010000Y-133270000D02*
X80090000Y-133270000D01*
X90170000Y-128270000D02*
X90170000Y-125730000D01*
X90170000Y-125730000D02*
X77470000Y-125730000D01*
X77470000Y-125730000D02*
X77470000Y-129540000D01*
X64770000Y-128270000D02*
X64770000Y-125730000D01*
X64770000Y-125730000D02*
X52070000Y-125730000D01*
X52070000Y-125730000D02*
X52070000Y-129540000D01*
X68580000Y-140970000D02*
X73660000Y-140970000D01*
X73660000Y-140970000D02*
X76200000Y-143510000D01*
X92710000Y-143510000D02*
X95250000Y-140970000D01*
X76200000Y-143510000D02*
X92710000Y-143510000D01*
X95250000Y-140970000D02*
X97790000Y-140970000D01*
X106680000Y-132080000D02*
X111760000Y-132080000D01*
X97790000Y-140970000D02*
X106680000Y-132080000D01*
M02*
