G04 #@! TF.GenerationSoftware,KiCad,Pcbnew,(5.1.2)-1*
G04 #@! TF.CreationDate,2019-06-07T20:02:52-04:00*
G04 #@! TF.ProjectId,mini2_2,6d696e69-325f-4322-9e6b-696361645f70,rev?*
G04 #@! TF.SameCoordinates,Original*
G04 #@! TF.FileFunction,Soldermask,Top*
G04 #@! TF.FilePolarity,Negative*
%FSLAX46Y46*%
G04 Gerber Fmt 4.6, Leading zero omitted, Abs format (unit mm)*
G04 Created by KiCad (PCBNEW (5.1.2)-1) date 2019-06-07 20:02:52*
%MOMM*%
%LPD*%
G04 APERTURE LIST*
%ADD10C,0.150000*%
G04 APERTURE END LIST*
D10*
G36*
X74270500Y-135340700D02*
G01*
X72668500Y-135340700D01*
X72668500Y-131638700D01*
X74270500Y-131638700D01*
X74270500Y-135340700D01*
X74270500Y-135340700D01*
G37*
G36*
X46739440Y-135180680D02*
G01*
X45137440Y-135180680D01*
X45137440Y-131478680D01*
X46739440Y-131478680D01*
X46739440Y-135180680D01*
X46739440Y-135180680D01*
G37*
G36*
X66683649Y-131514996D02*
G01*
X66794834Y-131537112D01*
X67004303Y-131623877D01*
X67192820Y-131749840D01*
X67353140Y-131910160D01*
X67479103Y-132098677D01*
X67565868Y-132308146D01*
X67610100Y-132530516D01*
X67610100Y-132757244D01*
X67565868Y-132979614D01*
X67479103Y-133189083D01*
X67353140Y-133377600D01*
X67192820Y-133537920D01*
X67004303Y-133663883D01*
X66794834Y-133750648D01*
X66683649Y-133772764D01*
X66572465Y-133794880D01*
X66345735Y-133794880D01*
X66234551Y-133772764D01*
X66123366Y-133750648D01*
X65913897Y-133663883D01*
X65725380Y-133537920D01*
X65565060Y-133377600D01*
X65439097Y-133189083D01*
X65352332Y-132979614D01*
X65308100Y-132757244D01*
X65308100Y-132530516D01*
X65352332Y-132308146D01*
X65439097Y-132098677D01*
X65565060Y-131910160D01*
X65725380Y-131749840D01*
X65913897Y-131623877D01*
X66123366Y-131537112D01*
X66234551Y-131514996D01*
X66345735Y-131492880D01*
X66572465Y-131492880D01*
X66683649Y-131514996D01*
X66683649Y-131514996D01*
G37*
G36*
X87774980Y-130640020D02*
G01*
X85173620Y-130640020D01*
X85173620Y-128038660D01*
X87774980Y-128038660D01*
X87774980Y-130640020D01*
X87774980Y-130640020D01*
G37*
G36*
X83231653Y-128088644D02*
G01*
X83468361Y-128186692D01*
X83468363Y-128186693D01*
X83681395Y-128329036D01*
X83862564Y-128510205D01*
X84004907Y-128723237D01*
X84004908Y-128723239D01*
X84102956Y-128959947D01*
X84152940Y-129211233D01*
X84152940Y-129467447D01*
X84102956Y-129718733D01*
X84075534Y-129784935D01*
X84004907Y-129955443D01*
X83862564Y-130168475D01*
X83681395Y-130349644D01*
X83468363Y-130491987D01*
X83468362Y-130491988D01*
X83468361Y-130491988D01*
X83231653Y-130590036D01*
X82980367Y-130640020D01*
X82724153Y-130640020D01*
X82472867Y-130590036D01*
X82236159Y-130491988D01*
X82236158Y-130491988D01*
X82236157Y-130491987D01*
X82023125Y-130349644D01*
X81841956Y-130168475D01*
X81699613Y-129955443D01*
X81628986Y-129784935D01*
X81601564Y-129718733D01*
X81551580Y-129467447D01*
X81551580Y-129211233D01*
X81601564Y-128959947D01*
X81699612Y-128723239D01*
X81699613Y-128723237D01*
X81841956Y-128510205D01*
X82023125Y-128329036D01*
X82236157Y-128186693D01*
X82236159Y-128186692D01*
X82472867Y-128088644D01*
X82724153Y-128038660D01*
X82980367Y-128038660D01*
X83231653Y-128088644D01*
X83231653Y-128088644D01*
G37*
G36*
X80056653Y-128088644D02*
G01*
X80293361Y-128186692D01*
X80293363Y-128186693D01*
X80506395Y-128329036D01*
X80687564Y-128510205D01*
X80829907Y-128723237D01*
X80829908Y-128723239D01*
X80927956Y-128959947D01*
X80977940Y-129211233D01*
X80977940Y-129467447D01*
X80927956Y-129718733D01*
X80900534Y-129784935D01*
X80829907Y-129955443D01*
X80687564Y-130168475D01*
X80506395Y-130349644D01*
X80293363Y-130491987D01*
X80293362Y-130491988D01*
X80293361Y-130491988D01*
X80056653Y-130590036D01*
X79805367Y-130640020D01*
X79549153Y-130640020D01*
X79297867Y-130590036D01*
X79061159Y-130491988D01*
X79061158Y-130491988D01*
X79061157Y-130491987D01*
X78848125Y-130349644D01*
X78666956Y-130168475D01*
X78524613Y-129955443D01*
X78453986Y-129784935D01*
X78426564Y-129718733D01*
X78376580Y-129467447D01*
X78376580Y-129211233D01*
X78426564Y-128959947D01*
X78524612Y-128723239D01*
X78524613Y-128723237D01*
X78666956Y-128510205D01*
X78848125Y-128329036D01*
X79061157Y-128186693D01*
X79061159Y-128186692D01*
X79297867Y-128088644D01*
X79549153Y-128038660D01*
X79805367Y-128038660D01*
X80056653Y-128088644D01*
X80056653Y-128088644D01*
G37*
G36*
X77802940Y-130640020D02*
G01*
X75201580Y-130640020D01*
X75201580Y-128038660D01*
X77802940Y-128038660D01*
X77802940Y-130640020D01*
X77802940Y-130640020D01*
G37*
G36*
X55400873Y-127705104D02*
G01*
X55637581Y-127803152D01*
X55637583Y-127803153D01*
X55850615Y-127945496D01*
X56031784Y-128126665D01*
X56174127Y-128339697D01*
X56174128Y-128339699D01*
X56272176Y-128576407D01*
X56322160Y-128827693D01*
X56322160Y-129083907D01*
X56272176Y-129335193D01*
X56217394Y-129467447D01*
X56174127Y-129571903D01*
X56031784Y-129784935D01*
X55850615Y-129966104D01*
X55637583Y-130108447D01*
X55637582Y-130108448D01*
X55637581Y-130108448D01*
X55400873Y-130206496D01*
X55149587Y-130256480D01*
X54893373Y-130256480D01*
X54642087Y-130206496D01*
X54405379Y-130108448D01*
X54405378Y-130108448D01*
X54405377Y-130108447D01*
X54192345Y-129966104D01*
X54011176Y-129784935D01*
X53868833Y-129571903D01*
X53825566Y-129467447D01*
X53770784Y-129335193D01*
X53720800Y-129083907D01*
X53720800Y-128827693D01*
X53770784Y-128576407D01*
X53868832Y-128339699D01*
X53868833Y-128339697D01*
X54011176Y-128126665D01*
X54192345Y-127945496D01*
X54405377Y-127803153D01*
X54405379Y-127803152D01*
X54642087Y-127705104D01*
X54893373Y-127655120D01*
X55149587Y-127655120D01*
X55400873Y-127705104D01*
X55400873Y-127705104D01*
G37*
G36*
X59951820Y-130256480D02*
G01*
X57350460Y-130256480D01*
X57350460Y-127655120D01*
X59951820Y-127655120D01*
X59951820Y-130256480D01*
X59951820Y-130256480D01*
G37*
G36*
X49972160Y-130256480D02*
G01*
X47370800Y-130256480D01*
X47370800Y-127655120D01*
X49972160Y-127655120D01*
X49972160Y-130256480D01*
X49972160Y-130256480D01*
G37*
G36*
X52225873Y-127705104D02*
G01*
X52462581Y-127803152D01*
X52462583Y-127803153D01*
X52675615Y-127945496D01*
X52856784Y-128126665D01*
X52999127Y-128339697D01*
X52999128Y-128339699D01*
X53097176Y-128576407D01*
X53147160Y-128827693D01*
X53147160Y-129083907D01*
X53097176Y-129335193D01*
X53042394Y-129467447D01*
X52999127Y-129571903D01*
X52856784Y-129784935D01*
X52675615Y-129966104D01*
X52462583Y-130108447D01*
X52462582Y-130108448D01*
X52462581Y-130108448D01*
X52225873Y-130206496D01*
X51974587Y-130256480D01*
X51718373Y-130256480D01*
X51467087Y-130206496D01*
X51230379Y-130108448D01*
X51230378Y-130108448D01*
X51230377Y-130108447D01*
X51017345Y-129966104D01*
X50836176Y-129784935D01*
X50693833Y-129571903D01*
X50650566Y-129467447D01*
X50595784Y-129335193D01*
X50545800Y-129083907D01*
X50545800Y-128827693D01*
X50595784Y-128576407D01*
X50693832Y-128339699D01*
X50693833Y-128339697D01*
X50836176Y-128126665D01*
X51017345Y-127945496D01*
X51230377Y-127803153D01*
X51230379Y-127803152D01*
X51467087Y-127705104D01*
X51718373Y-127655120D01*
X51974587Y-127655120D01*
X52225873Y-127705104D01*
X52225873Y-127705104D01*
G37*
G36*
X77354289Y-121263016D02*
G01*
X77453593Y-121282769D01*
X77593906Y-121340888D01*
X77720184Y-121425265D01*
X77827575Y-121532656D01*
X77911952Y-121658934D01*
X77970071Y-121799247D01*
X77976355Y-121830838D01*
X77999700Y-121948202D01*
X77999700Y-122100078D01*
X77995716Y-122120106D01*
X77970071Y-122249033D01*
X77911952Y-122389346D01*
X77827575Y-122515624D01*
X77720184Y-122623015D01*
X77593906Y-122707392D01*
X77453593Y-122765511D01*
X77354289Y-122785264D01*
X77304638Y-122795140D01*
X77152762Y-122795140D01*
X77103111Y-122785264D01*
X77003807Y-122765511D01*
X76863494Y-122707392D01*
X76737216Y-122623015D01*
X76629825Y-122515624D01*
X76545448Y-122389346D01*
X76487329Y-122249033D01*
X76461684Y-122120106D01*
X76457700Y-122100078D01*
X76457700Y-121948202D01*
X76481045Y-121830838D01*
X76487329Y-121799247D01*
X76545448Y-121658934D01*
X76629825Y-121532656D01*
X76737216Y-121425265D01*
X76863494Y-121340888D01*
X77003807Y-121282769D01*
X77103111Y-121263016D01*
X77152762Y-121253140D01*
X77304638Y-121253140D01*
X77354289Y-121263016D01*
X77354289Y-121263016D01*
G37*
G36*
X79894289Y-121263016D02*
G01*
X79993593Y-121282769D01*
X80133906Y-121340888D01*
X80260184Y-121425265D01*
X80367575Y-121532656D01*
X80451952Y-121658934D01*
X80510071Y-121799247D01*
X80516355Y-121830838D01*
X80539700Y-121948202D01*
X80539700Y-122100078D01*
X80535716Y-122120106D01*
X80510071Y-122249033D01*
X80451952Y-122389346D01*
X80367575Y-122515624D01*
X80260184Y-122623015D01*
X80133906Y-122707392D01*
X79993593Y-122765511D01*
X79894289Y-122785264D01*
X79844638Y-122795140D01*
X79692762Y-122795140D01*
X79643111Y-122785264D01*
X79543807Y-122765511D01*
X79403494Y-122707392D01*
X79277216Y-122623015D01*
X79169825Y-122515624D01*
X79085448Y-122389346D01*
X79027329Y-122249033D01*
X79001684Y-122120106D01*
X78997700Y-122100078D01*
X78997700Y-121948202D01*
X79021045Y-121830838D01*
X79027329Y-121799247D01*
X79085448Y-121658934D01*
X79169825Y-121532656D01*
X79277216Y-121425265D01*
X79403494Y-121340888D01*
X79543807Y-121282769D01*
X79643111Y-121263016D01*
X79692762Y-121253140D01*
X79844638Y-121253140D01*
X79894289Y-121263016D01*
X79894289Y-121263016D01*
G37*
G36*
X82434289Y-121263016D02*
G01*
X82533593Y-121282769D01*
X82673906Y-121340888D01*
X82800184Y-121425265D01*
X82907575Y-121532656D01*
X82991952Y-121658934D01*
X83050071Y-121799247D01*
X83056355Y-121830838D01*
X83079700Y-121948202D01*
X83079700Y-122100078D01*
X83075716Y-122120106D01*
X83050071Y-122249033D01*
X82991952Y-122389346D01*
X82907575Y-122515624D01*
X82800184Y-122623015D01*
X82673906Y-122707392D01*
X82533593Y-122765511D01*
X82434289Y-122785264D01*
X82384638Y-122795140D01*
X82232762Y-122795140D01*
X82183111Y-122785264D01*
X82083807Y-122765511D01*
X81943494Y-122707392D01*
X81817216Y-122623015D01*
X81709825Y-122515624D01*
X81625448Y-122389346D01*
X81567329Y-122249033D01*
X81541684Y-122120106D01*
X81537700Y-122100078D01*
X81537700Y-121948202D01*
X81561045Y-121830838D01*
X81567329Y-121799247D01*
X81625448Y-121658934D01*
X81709825Y-121532656D01*
X81817216Y-121425265D01*
X81943494Y-121340888D01*
X82083807Y-121282769D01*
X82183111Y-121263016D01*
X82232762Y-121253140D01*
X82384638Y-121253140D01*
X82434289Y-121263016D01*
X82434289Y-121263016D01*
G37*
G36*
X54590809Y-120993776D02*
G01*
X54690113Y-121013529D01*
X54830426Y-121071648D01*
X54956704Y-121156025D01*
X55064095Y-121263416D01*
X55148472Y-121389694D01*
X55206591Y-121530007D01*
X55206591Y-121530009D01*
X55232237Y-121658936D01*
X55236220Y-121678963D01*
X55236220Y-121830837D01*
X55206591Y-121979793D01*
X55148472Y-122120106D01*
X55064095Y-122246384D01*
X54956704Y-122353775D01*
X54830426Y-122438152D01*
X54690113Y-122496271D01*
X54592823Y-122515623D01*
X54541158Y-122525900D01*
X54389282Y-122525900D01*
X54337617Y-122515623D01*
X54240327Y-122496271D01*
X54100014Y-122438152D01*
X53973736Y-122353775D01*
X53866345Y-122246384D01*
X53781968Y-122120106D01*
X53723849Y-121979793D01*
X53694220Y-121830837D01*
X53694220Y-121678963D01*
X53698204Y-121658936D01*
X53723849Y-121530009D01*
X53723849Y-121530007D01*
X53781968Y-121389694D01*
X53866345Y-121263416D01*
X53973736Y-121156025D01*
X54100014Y-121071648D01*
X54240327Y-121013529D01*
X54339631Y-120993776D01*
X54389282Y-120983900D01*
X54541158Y-120983900D01*
X54590809Y-120993776D01*
X54590809Y-120993776D01*
G37*
G36*
X49510809Y-120993776D02*
G01*
X49610113Y-121013529D01*
X49750426Y-121071648D01*
X49876704Y-121156025D01*
X49984095Y-121263416D01*
X50068472Y-121389694D01*
X50126591Y-121530007D01*
X50126591Y-121530009D01*
X50152237Y-121658936D01*
X50156220Y-121678963D01*
X50156220Y-121830837D01*
X50126591Y-121979793D01*
X50068472Y-122120106D01*
X49984095Y-122246384D01*
X49876704Y-122353775D01*
X49750426Y-122438152D01*
X49610113Y-122496271D01*
X49512823Y-122515623D01*
X49461158Y-122525900D01*
X49309282Y-122525900D01*
X49257617Y-122515623D01*
X49160327Y-122496271D01*
X49020014Y-122438152D01*
X48893736Y-122353775D01*
X48786345Y-122246384D01*
X48701968Y-122120106D01*
X48643849Y-121979793D01*
X48614220Y-121830837D01*
X48614220Y-121678963D01*
X48618204Y-121658936D01*
X48643849Y-121530009D01*
X48643849Y-121530007D01*
X48701968Y-121389694D01*
X48786345Y-121263416D01*
X48893736Y-121156025D01*
X49020014Y-121071648D01*
X49160327Y-121013529D01*
X49259631Y-120993776D01*
X49309282Y-120983900D01*
X49461158Y-120983900D01*
X49510809Y-120993776D01*
X49510809Y-120993776D01*
G37*
G36*
X52050809Y-120993776D02*
G01*
X52150113Y-121013529D01*
X52290426Y-121071648D01*
X52416704Y-121156025D01*
X52524095Y-121263416D01*
X52608472Y-121389694D01*
X52666591Y-121530007D01*
X52666591Y-121530009D01*
X52692237Y-121658936D01*
X52696220Y-121678963D01*
X52696220Y-121830837D01*
X52666591Y-121979793D01*
X52608472Y-122120106D01*
X52524095Y-122246384D01*
X52416704Y-122353775D01*
X52290426Y-122438152D01*
X52150113Y-122496271D01*
X52052823Y-122515623D01*
X52001158Y-122525900D01*
X51849282Y-122525900D01*
X51797617Y-122515623D01*
X51700327Y-122496271D01*
X51560014Y-122438152D01*
X51433736Y-122353775D01*
X51326345Y-122246384D01*
X51241968Y-122120106D01*
X51183849Y-121979793D01*
X51154220Y-121830837D01*
X51154220Y-121678963D01*
X51158204Y-121658936D01*
X51183849Y-121530009D01*
X51183849Y-121530007D01*
X51241968Y-121389694D01*
X51326345Y-121263416D01*
X51433736Y-121156025D01*
X51560014Y-121071648D01*
X51700327Y-121013529D01*
X51799631Y-120993776D01*
X51849282Y-120983900D01*
X52001158Y-120983900D01*
X52050809Y-120993776D01*
X52050809Y-120993776D01*
G37*
G36*
X80180455Y-111383582D02*
G01*
X80330778Y-111445848D01*
X80466065Y-111536244D01*
X80581116Y-111651295D01*
X80671512Y-111786582D01*
X80733778Y-111936905D01*
X80765520Y-112096486D01*
X80765520Y-112259194D01*
X80733778Y-112418775D01*
X80671512Y-112569098D01*
X80581116Y-112704385D01*
X80466065Y-112819436D01*
X80330778Y-112909832D01*
X80180455Y-112972098D01*
X80020874Y-113003840D01*
X79858166Y-113003840D01*
X79698585Y-112972098D01*
X79548262Y-112909832D01*
X79412975Y-112819436D01*
X79297924Y-112704385D01*
X79207528Y-112569098D01*
X79145262Y-112418775D01*
X79113520Y-112259194D01*
X79113520Y-112096486D01*
X79145262Y-111936905D01*
X79207528Y-111786582D01*
X79297924Y-111651295D01*
X79412975Y-111536244D01*
X79548262Y-111445848D01*
X79698585Y-111383582D01*
X79858166Y-111351840D01*
X80020874Y-111351840D01*
X80180455Y-111383582D01*
X80180455Y-111383582D01*
G37*
G36*
X52098215Y-110918762D02*
G01*
X52248538Y-110981028D01*
X52383825Y-111071424D01*
X52498876Y-111186475D01*
X52589272Y-111321762D01*
X52651538Y-111472085D01*
X52683280Y-111631666D01*
X52683280Y-111794374D01*
X52651538Y-111953955D01*
X52589272Y-112104278D01*
X52498876Y-112239565D01*
X52383825Y-112354616D01*
X52248538Y-112445012D01*
X52098215Y-112507278D01*
X51938634Y-112539020D01*
X51775926Y-112539020D01*
X51616345Y-112507278D01*
X51466022Y-112445012D01*
X51330735Y-112354616D01*
X51215684Y-112239565D01*
X51125288Y-112104278D01*
X51063022Y-111953955D01*
X51031280Y-111794374D01*
X51031280Y-111631666D01*
X51063022Y-111472085D01*
X51125288Y-111321762D01*
X51215684Y-111186475D01*
X51330735Y-111071424D01*
X51466022Y-110981028D01*
X51616345Y-110918762D01*
X51775926Y-110887020D01*
X51938634Y-110887020D01*
X52098215Y-110918762D01*
X52098215Y-110918762D01*
G37*
G36*
X67153549Y-106671256D02*
G01*
X67264734Y-106693372D01*
X67474203Y-106780137D01*
X67662720Y-106906100D01*
X67823040Y-107066420D01*
X67949003Y-107254937D01*
X68035768Y-107464406D01*
X68080000Y-107686776D01*
X68080000Y-107913504D01*
X68035768Y-108135874D01*
X67949003Y-108345343D01*
X67823040Y-108533860D01*
X67662720Y-108694180D01*
X67474203Y-108820143D01*
X67264734Y-108906908D01*
X67153549Y-108929024D01*
X67042365Y-108951140D01*
X66815635Y-108951140D01*
X66704451Y-108929024D01*
X66593266Y-108906908D01*
X66383797Y-108820143D01*
X66195280Y-108694180D01*
X66034960Y-108533860D01*
X65908997Y-108345343D01*
X65822232Y-108135874D01*
X65778000Y-107913504D01*
X65778000Y-107686776D01*
X65822232Y-107464406D01*
X65908997Y-107254937D01*
X66034960Y-107066420D01*
X66195280Y-106906100D01*
X66383797Y-106780137D01*
X66593266Y-106693372D01*
X66704451Y-106671256D01*
X66815635Y-106649140D01*
X67042365Y-106649140D01*
X67153549Y-106671256D01*
X67153549Y-106671256D01*
G37*
G36*
X82680455Y-106383582D02*
G01*
X82830778Y-106445848D01*
X82966065Y-106536244D01*
X83081116Y-106651295D01*
X83171512Y-106786582D01*
X83233778Y-106936905D01*
X83265520Y-107096486D01*
X83265520Y-107259194D01*
X83233778Y-107418775D01*
X83171512Y-107569098D01*
X83081116Y-107704385D01*
X82966065Y-107819436D01*
X82830778Y-107909832D01*
X82680455Y-107972098D01*
X82520874Y-108003840D01*
X82358166Y-108003840D01*
X82198585Y-107972098D01*
X82048262Y-107909832D01*
X81912975Y-107819436D01*
X81797924Y-107704385D01*
X81707528Y-107569098D01*
X81645262Y-107418775D01*
X81613520Y-107259194D01*
X81613520Y-107096486D01*
X81645262Y-106936905D01*
X81707528Y-106786582D01*
X81797924Y-106651295D01*
X81912975Y-106536244D01*
X82048262Y-106445848D01*
X82198585Y-106383582D01*
X82358166Y-106351840D01*
X82520874Y-106351840D01*
X82680455Y-106383582D01*
X82680455Y-106383582D01*
G37*
G36*
X78265520Y-108003840D02*
G01*
X76613520Y-108003840D01*
X76613520Y-106351840D01*
X78265520Y-106351840D01*
X78265520Y-108003840D01*
X78265520Y-108003840D01*
G37*
G36*
X54598215Y-105918762D02*
G01*
X54748538Y-105981028D01*
X54883825Y-106071424D01*
X54998876Y-106186475D01*
X55089272Y-106321762D01*
X55151538Y-106472085D01*
X55183280Y-106631666D01*
X55183280Y-106794374D01*
X55151538Y-106953955D01*
X55089272Y-107104278D01*
X54998876Y-107239565D01*
X54883825Y-107354616D01*
X54748538Y-107445012D01*
X54598215Y-107507278D01*
X54438634Y-107539020D01*
X54275926Y-107539020D01*
X54116345Y-107507278D01*
X53966022Y-107445012D01*
X53830735Y-107354616D01*
X53715684Y-107239565D01*
X53625288Y-107104278D01*
X53563022Y-106953955D01*
X53531280Y-106794374D01*
X53531280Y-106631666D01*
X53563022Y-106472085D01*
X53625288Y-106321762D01*
X53715684Y-106186475D01*
X53830735Y-106071424D01*
X53966022Y-105981028D01*
X54116345Y-105918762D01*
X54275926Y-105887020D01*
X54438634Y-105887020D01*
X54598215Y-105918762D01*
X54598215Y-105918762D01*
G37*
G36*
X50183280Y-107539020D02*
G01*
X48531280Y-107539020D01*
X48531280Y-105887020D01*
X50183280Y-105887020D01*
X50183280Y-107539020D01*
X50183280Y-107539020D01*
G37*
G36*
X89598700Y-98478540D02*
G01*
X84995820Y-98478540D01*
X84995820Y-93875660D01*
X89598700Y-93875660D01*
X89598700Y-98478540D01*
X89598700Y-98478540D01*
G37*
G36*
X51214953Y-92132404D02*
G01*
X51451661Y-92230452D01*
X51451663Y-92230453D01*
X51664695Y-92372796D01*
X51845864Y-92553965D01*
X51988207Y-92766997D01*
X51988208Y-92766999D01*
X52086256Y-93003707D01*
X52136240Y-93254993D01*
X52136240Y-93511207D01*
X52086256Y-93762493D01*
X51988208Y-93999201D01*
X51988207Y-93999203D01*
X51845864Y-94212235D01*
X51664695Y-94393404D01*
X51451663Y-94535747D01*
X51451662Y-94535748D01*
X51451661Y-94535748D01*
X51214953Y-94633796D01*
X50963667Y-94683780D01*
X50707453Y-94683780D01*
X50456167Y-94633796D01*
X50219459Y-94535748D01*
X50219458Y-94535748D01*
X50219457Y-94535747D01*
X50006425Y-94393404D01*
X49825256Y-94212235D01*
X49682913Y-93999203D01*
X49682912Y-93999201D01*
X49584864Y-93762493D01*
X49534880Y-93511207D01*
X49534880Y-93254993D01*
X49584864Y-93003707D01*
X49682912Y-92766999D01*
X49682913Y-92766997D01*
X49825256Y-92553965D01*
X50006425Y-92372796D01*
X50219457Y-92230453D01*
X50219459Y-92230452D01*
X50456167Y-92132404D01*
X50707453Y-92082420D01*
X50963667Y-92082420D01*
X51214953Y-92132404D01*
X51214953Y-92132404D01*
G37*
G36*
X48039953Y-92132404D02*
G01*
X48276661Y-92230452D01*
X48276663Y-92230453D01*
X48489695Y-92372796D01*
X48670864Y-92553965D01*
X48813207Y-92766997D01*
X48813208Y-92766999D01*
X48911256Y-93003707D01*
X48961240Y-93254993D01*
X48961240Y-93511207D01*
X48911256Y-93762493D01*
X48813208Y-93999201D01*
X48813207Y-93999203D01*
X48670864Y-94212235D01*
X48489695Y-94393404D01*
X48276663Y-94535747D01*
X48276662Y-94535748D01*
X48276661Y-94535748D01*
X48039953Y-94633796D01*
X47788667Y-94683780D01*
X47532453Y-94683780D01*
X47281167Y-94633796D01*
X47044459Y-94535748D01*
X47044458Y-94535748D01*
X47044457Y-94535747D01*
X46831425Y-94393404D01*
X46650256Y-94212235D01*
X46507913Y-93999203D01*
X46507912Y-93999201D01*
X46409864Y-93762493D01*
X46359880Y-93511207D01*
X46359880Y-93254993D01*
X46409864Y-93003707D01*
X46507912Y-92766999D01*
X46507913Y-92766997D01*
X46650256Y-92553965D01*
X46831425Y-92372796D01*
X47044457Y-92230453D01*
X47044459Y-92230452D01*
X47281167Y-92132404D01*
X47532453Y-92082420D01*
X47788667Y-92082420D01*
X48039953Y-92132404D01*
X48039953Y-92132404D01*
G37*
G36*
X55311240Y-94683780D02*
G01*
X52709880Y-94683780D01*
X52709880Y-92082420D01*
X55311240Y-92082420D01*
X55311240Y-94683780D01*
X55311240Y-94683780D01*
G37*
G36*
X65827573Y-91748864D02*
G01*
X66064281Y-91846912D01*
X66064283Y-91846913D01*
X66277315Y-91989256D01*
X66458484Y-92170425D01*
X66600827Y-92383457D01*
X66600828Y-92383459D01*
X66698876Y-92620167D01*
X66748860Y-92871453D01*
X66748860Y-93127667D01*
X66698876Y-93378953D01*
X66644094Y-93511207D01*
X66600827Y-93615663D01*
X66458484Y-93828695D01*
X66277315Y-94009864D01*
X66064283Y-94152207D01*
X66064282Y-94152208D01*
X66064281Y-94152208D01*
X65827573Y-94250256D01*
X65576287Y-94300240D01*
X65320073Y-94300240D01*
X65068787Y-94250256D01*
X64832079Y-94152208D01*
X64832078Y-94152208D01*
X64832077Y-94152207D01*
X64619045Y-94009864D01*
X64437876Y-93828695D01*
X64295533Y-93615663D01*
X64252266Y-93511207D01*
X64197484Y-93378953D01*
X64147500Y-93127667D01*
X64147500Y-92871453D01*
X64197484Y-92620167D01*
X64295532Y-92383459D01*
X64295533Y-92383457D01*
X64437876Y-92170425D01*
X64619045Y-91989256D01*
X64832077Y-91846913D01*
X64832079Y-91846912D01*
X65068787Y-91748864D01*
X65320073Y-91698880D01*
X65576287Y-91698880D01*
X65827573Y-91748864D01*
X65827573Y-91748864D01*
G37*
G36*
X69002573Y-91748864D02*
G01*
X69239281Y-91846912D01*
X69239283Y-91846913D01*
X69452315Y-91989256D01*
X69633484Y-92170425D01*
X69775827Y-92383457D01*
X69775828Y-92383459D01*
X69873876Y-92620167D01*
X69923860Y-92871453D01*
X69923860Y-93127667D01*
X69873876Y-93378953D01*
X69819094Y-93511207D01*
X69775827Y-93615663D01*
X69633484Y-93828695D01*
X69452315Y-94009864D01*
X69239283Y-94152207D01*
X69239282Y-94152208D01*
X69239281Y-94152208D01*
X69002573Y-94250256D01*
X68751287Y-94300240D01*
X68495073Y-94300240D01*
X68243787Y-94250256D01*
X68007079Y-94152208D01*
X68007078Y-94152208D01*
X68007077Y-94152207D01*
X67794045Y-94009864D01*
X67612876Y-93828695D01*
X67470533Y-93615663D01*
X67427266Y-93511207D01*
X67372484Y-93378953D01*
X67322500Y-93127667D01*
X67322500Y-92871453D01*
X67372484Y-92620167D01*
X67470532Y-92383459D01*
X67470533Y-92383457D01*
X67612876Y-92170425D01*
X67794045Y-91989256D01*
X68007077Y-91846913D01*
X68007079Y-91846912D01*
X68243787Y-91748864D01*
X68495073Y-91698880D01*
X68751287Y-91698880D01*
X69002573Y-91748864D01*
X69002573Y-91748864D01*
G37*
G36*
X73098860Y-94300240D02*
G01*
X70497500Y-94300240D01*
X70497500Y-91698880D01*
X73098860Y-91698880D01*
X73098860Y-94300240D01*
X73098860Y-94300240D01*
G37*
G36*
X87917764Y-86869882D02*
G01*
X88336599Y-87043369D01*
X88336601Y-87043370D01*
X88526351Y-87170157D01*
X88713542Y-87295234D01*
X89034106Y-87615798D01*
X89285971Y-87992741D01*
X89459458Y-88411576D01*
X89547900Y-88856207D01*
X89547900Y-89309553D01*
X89459458Y-89754184D01*
X89285971Y-90173019D01*
X89285970Y-90173021D01*
X89034105Y-90549963D01*
X88713543Y-90870525D01*
X88336601Y-91122390D01*
X88336600Y-91122391D01*
X88336599Y-91122391D01*
X87917764Y-91295878D01*
X87473133Y-91384320D01*
X87019787Y-91384320D01*
X86575156Y-91295878D01*
X86156321Y-91122391D01*
X86156320Y-91122391D01*
X86156319Y-91122390D01*
X85779377Y-90870525D01*
X85458815Y-90549963D01*
X85206950Y-90173021D01*
X85206949Y-90173019D01*
X85033462Y-89754184D01*
X84945020Y-89309553D01*
X84945020Y-88856207D01*
X85033462Y-88411576D01*
X85206949Y-87992741D01*
X85458814Y-87615798D01*
X85779378Y-87295234D01*
X85966569Y-87170157D01*
X86156319Y-87043370D01*
X86156321Y-87043369D01*
X86575156Y-86869882D01*
X87019787Y-86781440D01*
X87473133Y-86781440D01*
X87917764Y-86869882D01*
X87917764Y-86869882D01*
G37*
M02*
