G04 #@! TF.GenerationSoftware,KiCad,Pcbnew,(5.1.2)-1*
G04 #@! TF.CreationDate,2019-06-07T20:02:52-04:00*
G04 #@! TF.ProjectId,mini2_2,6d696e69-325f-4322-9e6b-696361645f70,rev?*
G04 #@! TF.SameCoordinates,Original*
G04 #@! TF.FileFunction,Legend,Bot*
G04 #@! TF.FilePolarity,Positive*
%FSLAX46Y46*%
G04 Gerber Fmt 4.6, Leading zero omitted, Abs format (unit mm)*
G04 Created by KiCad (PCBNEW (5.1.2)-1) date 2019-06-07 20:02:52*
%MOMM*%
%LPD*%
G04 APERTURE LIST*
%ADD10C,0.250000*%
G04 APERTURE END LIST*
D10*
X78284242Y-85489201D02*
X79141385Y-86774916D01*
X77950909Y-86536820D02*
X77950909Y-85870154D01*
X77950909Y-86060630D02*
X77903290Y-85965392D01*
X77855671Y-85917773D01*
X77760433Y-85870154D01*
X77665195Y-85870154D01*
X76617576Y-85489201D02*
X77474719Y-86774916D01*
X76141385Y-86536820D02*
X76236623Y-86489201D01*
X76284242Y-86441582D01*
X76331861Y-86346344D01*
X76331861Y-86060630D01*
X76284242Y-85965392D01*
X76236623Y-85917773D01*
X76141385Y-85870154D01*
X75998528Y-85870154D01*
X75903290Y-85917773D01*
X75855671Y-85965392D01*
X75808052Y-86060630D01*
X75808052Y-86346344D01*
X75855671Y-86441582D01*
X75903290Y-86489201D01*
X75998528Y-86536820D01*
X76141385Y-86536820D01*
X75474719Y-85870154D02*
X75236623Y-86536820D01*
X74998528Y-85870154D01*
X74236623Y-86489201D02*
X74331861Y-86536820D01*
X74522338Y-86536820D01*
X74617576Y-86489201D01*
X74665195Y-86393963D01*
X74665195Y-86013011D01*
X74617576Y-85917773D01*
X74522338Y-85870154D01*
X74331861Y-85870154D01*
X74236623Y-85917773D01*
X74189004Y-86013011D01*
X74189004Y-86108249D01*
X74665195Y-86203487D01*
X73760433Y-86536820D02*
X73760433Y-85870154D01*
X73760433Y-86060630D02*
X73712814Y-85965392D01*
X73665195Y-85917773D01*
X73569957Y-85870154D01*
X73474719Y-85870154D01*
X72712814Y-86489201D02*
X72808052Y-86536820D01*
X72998528Y-86536820D01*
X73093766Y-86489201D01*
X73141385Y-86441582D01*
X73189004Y-86346344D01*
X73189004Y-86060630D01*
X73141385Y-85965392D01*
X73093766Y-85917773D01*
X72998528Y-85870154D01*
X72808052Y-85870154D01*
X72712814Y-85917773D01*
X72141385Y-86536820D02*
X72236623Y-86489201D01*
X72284242Y-86393963D01*
X72284242Y-85536820D01*
X71617576Y-86536820D02*
X71712814Y-86489201D01*
X71760433Y-86441582D01*
X71808052Y-86346344D01*
X71808052Y-86060630D01*
X71760433Y-85965392D01*
X71712814Y-85917773D01*
X71617576Y-85870154D01*
X71474719Y-85870154D01*
X71379480Y-85917773D01*
X71331861Y-85965392D01*
X71284242Y-86060630D01*
X71284242Y-86346344D01*
X71331861Y-86441582D01*
X71379480Y-86489201D01*
X71474719Y-86536820D01*
X71617576Y-86536820D01*
X70427100Y-86489201D02*
X70522338Y-86536820D01*
X70712814Y-86536820D01*
X70808052Y-86489201D01*
X70855671Y-86441582D01*
X70903290Y-86346344D01*
X70903290Y-86060630D01*
X70855671Y-85965392D01*
X70808052Y-85917773D01*
X70712814Y-85870154D01*
X70522338Y-85870154D01*
X70427100Y-85917773D01*
X69998528Y-86536820D02*
X69998528Y-85536820D01*
X69903290Y-86155868D02*
X69617576Y-86536820D01*
X69617576Y-85870154D02*
X69998528Y-86251106D01*
X69189004Y-86536820D02*
X69189004Y-85870154D01*
X69189004Y-85536820D02*
X69236623Y-85584440D01*
X69189004Y-85632059D01*
X69141385Y-85584440D01*
X69189004Y-85536820D01*
X69189004Y-85632059D01*
X68712814Y-85870154D02*
X68712814Y-86536820D01*
X68712814Y-85965392D02*
X68665195Y-85917773D01*
X68569957Y-85870154D01*
X68427100Y-85870154D01*
X68331861Y-85917773D01*
X68284242Y-86013011D01*
X68284242Y-86536820D01*
X67379480Y-85870154D02*
X67379480Y-86679678D01*
X67427100Y-86774916D01*
X67474719Y-86822535D01*
X67569957Y-86870154D01*
X67712814Y-86870154D01*
X67808052Y-86822535D01*
X67379480Y-86489201D02*
X67474719Y-86536820D01*
X67665195Y-86536820D01*
X67760433Y-86489201D01*
X67808052Y-86441582D01*
X67855671Y-86346344D01*
X67855671Y-86060630D01*
X67808052Y-85965392D01*
X67760433Y-85917773D01*
X67665195Y-85870154D01*
X67474719Y-85870154D01*
X67379480Y-85917773D01*
X66236623Y-85870154D02*
X65998528Y-86536820D01*
X65760433Y-85870154D01*
X65379480Y-86536820D02*
X65379480Y-85870154D01*
X65379480Y-85965392D02*
X65331861Y-85917773D01*
X65236623Y-85870154D01*
X65093766Y-85870154D01*
X64998528Y-85917773D01*
X64950909Y-86013011D01*
X64950909Y-86536820D01*
X64950909Y-86013011D02*
X64903290Y-85917773D01*
X64808052Y-85870154D01*
X64665195Y-85870154D01*
X64569957Y-85917773D01*
X64522338Y-86013011D01*
X64522338Y-86536820D01*
X63903290Y-86536820D02*
X63998528Y-86489201D01*
X64046147Y-86441582D01*
X64093766Y-86346344D01*
X64093766Y-86060630D01*
X64046147Y-85965392D01*
X63998528Y-85917773D01*
X63903290Y-85870154D01*
X63760433Y-85870154D01*
X63665195Y-85917773D01*
X63617576Y-85965392D01*
X63569957Y-86060630D01*
X63569957Y-86346344D01*
X63617576Y-86441582D01*
X63665195Y-86489201D01*
X63760433Y-86536820D01*
X63903290Y-86536820D01*
X62712814Y-86536820D02*
X62712814Y-85536820D01*
X62712814Y-86489201D02*
X62808052Y-86536820D01*
X62998528Y-86536820D01*
X63093766Y-86489201D01*
X63141385Y-86441582D01*
X63189004Y-86346344D01*
X63189004Y-86060630D01*
X63141385Y-85965392D01*
X63093766Y-85917773D01*
X62998528Y-85870154D01*
X62808052Y-85870154D01*
X62712814Y-85917773D01*
X61474719Y-86536820D02*
X61474719Y-85536820D01*
X61474719Y-85917773D02*
X61379480Y-85870154D01*
X61189004Y-85870154D01*
X61093766Y-85917773D01*
X61046147Y-85965392D01*
X60998528Y-86060630D01*
X60998528Y-86346344D01*
X61046147Y-86441582D01*
X61093766Y-86489201D01*
X61189004Y-86536820D01*
X61379480Y-86536820D01*
X61474719Y-86489201D01*
X60427100Y-86536820D02*
X60522338Y-86489201D01*
X60569957Y-86441582D01*
X60617576Y-86346344D01*
X60617576Y-86060630D01*
X60569957Y-85965392D01*
X60522338Y-85917773D01*
X60427100Y-85870154D01*
X60284242Y-85870154D01*
X60189004Y-85917773D01*
X60141385Y-85965392D01*
X60093766Y-86060630D01*
X60093766Y-86346344D01*
X60141385Y-86441582D01*
X60189004Y-86489201D01*
X60284242Y-86536820D01*
X60427100Y-86536820D01*
X59236623Y-86536820D02*
X59236623Y-86013011D01*
X59284242Y-85917773D01*
X59379480Y-85870154D01*
X59569957Y-85870154D01*
X59665195Y-85917773D01*
X59236623Y-86489201D02*
X59331861Y-86536820D01*
X59569957Y-86536820D01*
X59665195Y-86489201D01*
X59712814Y-86393963D01*
X59712814Y-86298725D01*
X59665195Y-86203487D01*
X59569957Y-86155868D01*
X59331861Y-86155868D01*
X59236623Y-86108249D01*
X58760433Y-86536820D02*
X58760433Y-85870154D01*
X58760433Y-86060630D02*
X58712814Y-85965392D01*
X58665195Y-85917773D01*
X58569957Y-85870154D01*
X58474719Y-85870154D01*
X57712814Y-86536820D02*
X57712814Y-85536820D01*
X57712814Y-86489201D02*
X57808052Y-86536820D01*
X57998528Y-86536820D01*
X58093766Y-86489201D01*
X58141385Y-86441582D01*
X58189004Y-86346344D01*
X58189004Y-86060630D01*
X58141385Y-85965392D01*
X58093766Y-85917773D01*
X57998528Y-85870154D01*
X57808052Y-85870154D01*
X57712814Y-85917773D01*
X56474719Y-86536820D02*
X56474719Y-85870154D01*
X56474719Y-85965392D02*
X56427100Y-85917773D01*
X56331861Y-85870154D01*
X56189004Y-85870154D01*
X56093766Y-85917773D01*
X56046147Y-86013011D01*
X56046147Y-86536820D01*
X56046147Y-86013011D02*
X55998528Y-85917773D01*
X55903290Y-85870154D01*
X55760433Y-85870154D01*
X55665195Y-85917773D01*
X55617576Y-86013011D01*
X55617576Y-86536820D01*
X55141385Y-86536820D02*
X55141385Y-85870154D01*
X55141385Y-85536820D02*
X55189004Y-85584440D01*
X55141385Y-85632059D01*
X55093766Y-85584440D01*
X55141385Y-85536820D01*
X55141385Y-85632059D01*
X54665195Y-85870154D02*
X54665195Y-86536820D01*
X54665195Y-85965392D02*
X54617576Y-85917773D01*
X54522338Y-85870154D01*
X54379480Y-85870154D01*
X54284242Y-85917773D01*
X54236623Y-86013011D01*
X54236623Y-86536820D01*
X53760433Y-86536820D02*
X53760433Y-85870154D01*
X53760433Y-85536820D02*
X53808052Y-85584440D01*
X53760433Y-85632059D01*
X53712814Y-85584440D01*
X53760433Y-85536820D01*
X53760433Y-85632059D01*
X52617576Y-85870154D02*
X52379480Y-86536820D01*
X52141385Y-85870154D01*
X51569957Y-85536820D02*
X51474719Y-85536820D01*
X51379480Y-85584440D01*
X51331861Y-85632059D01*
X51284242Y-85727297D01*
X51236623Y-85917773D01*
X51236623Y-86155868D01*
X51284242Y-86346344D01*
X51331861Y-86441582D01*
X51379480Y-86489201D01*
X51474719Y-86536820D01*
X51569957Y-86536820D01*
X51665195Y-86489201D01*
X51712814Y-86441582D01*
X51760433Y-86346344D01*
X51808052Y-86155868D01*
X51808052Y-85917773D01*
X51760433Y-85727297D01*
X51712814Y-85632059D01*
X51665195Y-85584440D01*
X51569957Y-85536820D01*
X50808052Y-86441582D02*
X50760433Y-86489201D01*
X50808052Y-86536820D01*
X50855671Y-86489201D01*
X50808052Y-86441582D01*
X50808052Y-86536820D01*
X49808052Y-86536820D02*
X50379480Y-86536820D01*
X50093766Y-86536820D02*
X50093766Y-85536820D01*
X50189004Y-85679678D01*
X50284242Y-85774916D01*
X50379480Y-85822535D01*
X82308052Y-88286820D02*
X82308052Y-87286820D01*
X82308052Y-88239201D02*
X82403290Y-88286820D01*
X82593766Y-88286820D01*
X82689004Y-88239201D01*
X82736623Y-88191582D01*
X82784242Y-88096344D01*
X82784242Y-87810630D01*
X82736623Y-87715392D01*
X82689004Y-87667773D01*
X82593766Y-87620154D01*
X82403290Y-87620154D01*
X82308052Y-87667773D01*
X81450909Y-88239201D02*
X81546147Y-88286820D01*
X81736623Y-88286820D01*
X81831861Y-88239201D01*
X81879480Y-88143963D01*
X81879480Y-87763011D01*
X81831861Y-87667773D01*
X81736623Y-87620154D01*
X81546147Y-87620154D01*
X81450909Y-87667773D01*
X81403290Y-87763011D01*
X81403290Y-87858249D01*
X81879480Y-87953487D01*
X81022338Y-88239201D02*
X80927100Y-88286820D01*
X80736623Y-88286820D01*
X80641385Y-88239201D01*
X80593766Y-88143963D01*
X80593766Y-88096344D01*
X80641385Y-88001106D01*
X80736623Y-87953487D01*
X80879480Y-87953487D01*
X80974719Y-87905868D01*
X81022338Y-87810630D01*
X81022338Y-87763011D01*
X80974719Y-87667773D01*
X80879480Y-87620154D01*
X80736623Y-87620154D01*
X80641385Y-87667773D01*
X80165195Y-88286820D02*
X80165195Y-87620154D01*
X80165195Y-87286820D02*
X80212814Y-87334440D01*
X80165195Y-87382059D01*
X80117576Y-87334440D01*
X80165195Y-87286820D01*
X80165195Y-87382059D01*
X79260433Y-87620154D02*
X79260433Y-88429678D01*
X79308052Y-88524916D01*
X79355671Y-88572535D01*
X79450909Y-88620154D01*
X79593766Y-88620154D01*
X79689004Y-88572535D01*
X79260433Y-88239201D02*
X79355671Y-88286820D01*
X79546147Y-88286820D01*
X79641385Y-88239201D01*
X79689004Y-88191582D01*
X79736623Y-88096344D01*
X79736623Y-87810630D01*
X79689004Y-87715392D01*
X79641385Y-87667773D01*
X79546147Y-87620154D01*
X79355671Y-87620154D01*
X79260433Y-87667773D01*
X78784242Y-87620154D02*
X78784242Y-88286820D01*
X78784242Y-87715392D02*
X78736623Y-87667773D01*
X78641385Y-87620154D01*
X78498528Y-87620154D01*
X78403290Y-87667773D01*
X78355671Y-87763011D01*
X78355671Y-88286820D01*
X77498528Y-88239201D02*
X77593766Y-88286820D01*
X77784242Y-88286820D01*
X77879480Y-88239201D01*
X77927100Y-88143963D01*
X77927100Y-87763011D01*
X77879480Y-87667773D01*
X77784242Y-87620154D01*
X77593766Y-87620154D01*
X77498528Y-87667773D01*
X77450909Y-87763011D01*
X77450909Y-87858249D01*
X77927100Y-87953487D01*
X76593766Y-88286820D02*
X76593766Y-87286820D01*
X76593766Y-88239201D02*
X76689004Y-88286820D01*
X76879480Y-88286820D01*
X76974719Y-88239201D01*
X77022338Y-88191582D01*
X77069957Y-88096344D01*
X77069957Y-87810630D01*
X77022338Y-87715392D01*
X76974719Y-87667773D01*
X76879480Y-87620154D01*
X76689004Y-87620154D01*
X76593766Y-87667773D01*
X75355671Y-88286820D02*
X75355671Y-87286820D01*
X75355671Y-87667773D02*
X75260433Y-87620154D01*
X75069957Y-87620154D01*
X74974719Y-87667773D01*
X74927100Y-87715392D01*
X74879480Y-87810630D01*
X74879480Y-88096344D01*
X74927100Y-88191582D01*
X74974719Y-88239201D01*
X75069957Y-88286820D01*
X75260433Y-88286820D01*
X75355671Y-88239201D01*
X74546147Y-87620154D02*
X74308052Y-88286820D01*
X74069957Y-87620154D02*
X74308052Y-88286820D01*
X74403290Y-88524916D01*
X74450909Y-88572535D01*
X74546147Y-88620154D01*
X73689004Y-88191582D02*
X73641385Y-88239201D01*
X73689004Y-88286820D01*
X73736623Y-88239201D01*
X73689004Y-88191582D01*
X73689004Y-88286820D01*
X73689004Y-87667773D02*
X73641385Y-87715392D01*
X73689004Y-87763011D01*
X73736623Y-87715392D01*
X73689004Y-87667773D01*
X73689004Y-87763011D01*
X72450909Y-87620154D02*
X72450909Y-88620154D01*
X72450909Y-87667773D02*
X72355671Y-87620154D01*
X72165195Y-87620154D01*
X72069957Y-87667773D01*
X72022338Y-87715392D01*
X71974719Y-87810630D01*
X71974719Y-88096344D01*
X72022338Y-88191582D01*
X72069957Y-88239201D01*
X72165195Y-88286820D01*
X72355671Y-88286820D01*
X72450909Y-88239201D01*
X71546147Y-88286820D02*
X71546147Y-87286820D01*
X71450909Y-87905868D02*
X71165195Y-88286820D01*
X71165195Y-87620154D02*
X71546147Y-88001106D01*
X70736623Y-88286820D02*
X70736623Y-87286820D01*
X70641385Y-87905868D02*
X70355671Y-88286820D01*
X70355671Y-87620154D02*
X70736623Y-88001106D01*
X69974719Y-88239201D02*
X69879480Y-88286820D01*
X69689004Y-88286820D01*
X69593766Y-88239201D01*
X69546147Y-88143963D01*
X69546147Y-88096344D01*
X69593766Y-88001106D01*
X69689004Y-87953487D01*
X69831861Y-87953487D01*
X69927100Y-87905868D01*
X69974719Y-87810630D01*
X69974719Y-87763011D01*
X69927100Y-87667773D01*
X69831861Y-87620154D01*
X69689004Y-87620154D01*
X69593766Y-87667773D01*
X69117576Y-88286820D02*
X69117576Y-87286820D01*
X68689004Y-88286820D02*
X68689004Y-87763011D01*
X68736623Y-87667773D01*
X68831861Y-87620154D01*
X68974719Y-87620154D01*
X69069957Y-87667773D01*
X69117576Y-87715392D01*
X67784242Y-88286820D02*
X67784242Y-87763011D01*
X67831861Y-87667773D01*
X67927100Y-87620154D01*
X68117576Y-87620154D01*
X68212814Y-87667773D01*
X67784242Y-88239201D02*
X67879480Y-88286820D01*
X68117576Y-88286820D01*
X68212814Y-88239201D01*
X68260433Y-88143963D01*
X68260433Y-88048725D01*
X68212814Y-87953487D01*
X68117576Y-87905868D01*
X67879480Y-87905868D01*
X67784242Y-87858249D01*
X66879480Y-88286820D02*
X66879480Y-87286820D01*
X66879480Y-88239201D02*
X66974719Y-88286820D01*
X67165195Y-88286820D01*
X67260433Y-88239201D01*
X67308052Y-88191582D01*
X67355671Y-88096344D01*
X67355671Y-87810630D01*
X67308052Y-87715392D01*
X67260433Y-87667773D01*
X67165195Y-87620154D01*
X66974719Y-87620154D01*
X66879480Y-87667773D01*
X66260433Y-88286820D02*
X66355671Y-88239201D01*
X66403290Y-88191582D01*
X66450909Y-88096344D01*
X66450909Y-87810630D01*
X66403290Y-87715392D01*
X66355671Y-87667773D01*
X66260433Y-87620154D01*
X66117576Y-87620154D01*
X66022338Y-87667773D01*
X65974719Y-87715392D01*
X65927100Y-87810630D01*
X65927100Y-88096344D01*
X65974719Y-88191582D01*
X66022338Y-88239201D01*
X66117576Y-88286820D01*
X66260433Y-88286820D01*
X65593766Y-87620154D02*
X65403290Y-88286820D01*
X65212814Y-87810630D01*
X65022338Y-88286820D01*
X64831861Y-87620154D01*
X64498528Y-87620154D02*
X63784242Y-87620154D01*
X64212814Y-87191582D02*
X64498528Y-88477297D01*
X63879480Y-88048725D02*
X64593766Y-88048725D01*
X64165195Y-88477297D02*
X63879480Y-87191582D01*
X63022338Y-87286820D02*
X63212814Y-87286820D01*
X63308052Y-87334440D01*
X63355671Y-87382059D01*
X63450909Y-87524916D01*
X63498528Y-87715392D01*
X63498528Y-88096344D01*
X63450909Y-88191582D01*
X63403290Y-88239201D01*
X63308052Y-88286820D01*
X63117576Y-88286820D01*
X63022338Y-88239201D01*
X62974719Y-88191582D01*
X62927100Y-88096344D01*
X62927100Y-87858249D01*
X62974719Y-87763011D01*
X63022338Y-87715392D01*
X63117576Y-87667773D01*
X63308052Y-87667773D01*
X63403290Y-87715392D01*
X63450909Y-87763011D01*
X63498528Y-87858249D01*
X62546147Y-87382059D02*
X62498528Y-87334440D01*
X62403290Y-87286820D01*
X62165195Y-87286820D01*
X62069957Y-87334440D01*
X62022338Y-87382059D01*
X61974719Y-87477297D01*
X61974719Y-87572535D01*
X62022338Y-87715392D01*
X62593766Y-88286820D01*
X61974719Y-88286820D01*
X61117576Y-87620154D02*
X61117576Y-88286820D01*
X61355671Y-87239201D02*
X61593766Y-87953487D01*
X60974719Y-87953487D01*
X60689004Y-87286820D02*
X60022338Y-87286820D01*
X60450909Y-88286820D01*
X58069957Y-88286820D02*
X58117576Y-88286820D01*
X58212814Y-88239201D01*
X58355671Y-88096344D01*
X58593766Y-87810630D01*
X58689004Y-87667773D01*
X58736623Y-87524916D01*
X58736623Y-87429678D01*
X58689004Y-87334440D01*
X58593766Y-87286820D01*
X58546147Y-87286820D01*
X58450909Y-87334440D01*
X58403290Y-87429678D01*
X58403290Y-87477297D01*
X58450909Y-87572535D01*
X58498528Y-87620154D01*
X58784242Y-87810630D01*
X58831861Y-87858249D01*
X58879480Y-87953487D01*
X58879480Y-88096344D01*
X58831861Y-88191582D01*
X58784242Y-88239201D01*
X58689004Y-88286820D01*
X58546147Y-88286820D01*
X58450909Y-88239201D01*
X58403290Y-88191582D01*
X58260433Y-88001106D01*
X58212814Y-87858249D01*
X58212814Y-87763011D01*
X56927100Y-88001106D02*
X56450909Y-88001106D01*
X57022338Y-88286820D02*
X56689004Y-87286820D01*
X56355671Y-88286820D01*
X55879480Y-88286820D02*
X55974719Y-88239201D01*
X56022338Y-88143963D01*
X56022338Y-87286820D01*
X55069957Y-88239201D02*
X55165195Y-88286820D01*
X55355671Y-88286820D01*
X55450909Y-88239201D01*
X55498528Y-88191582D01*
X55546147Y-88096344D01*
X55546147Y-87810630D01*
X55498528Y-87715392D01*
X55450909Y-87667773D01*
X55355671Y-87620154D01*
X55165195Y-87620154D01*
X55069957Y-87667773D01*
X54736623Y-87620154D02*
X54498528Y-88286820D01*
X54260433Y-87620154D02*
X54498528Y-88286820D01*
X54593766Y-88524916D01*
X54641385Y-88572535D01*
X54736623Y-88620154D01*
X53736623Y-88286820D02*
X53831861Y-88239201D01*
X53879480Y-88191582D01*
X53927100Y-88096344D01*
X53927100Y-87810630D01*
X53879480Y-87715392D01*
X53831861Y-87667773D01*
X53736623Y-87620154D01*
X53593766Y-87620154D01*
X53498528Y-87667773D01*
X53450909Y-87715392D01*
X53403290Y-87810630D01*
X53403290Y-88096344D01*
X53450909Y-88191582D01*
X53498528Y-88239201D01*
X53593766Y-88286820D01*
X53736623Y-88286820D01*
X52974719Y-87620154D02*
X52974719Y-88286820D01*
X52974719Y-87715392D02*
X52927100Y-87667773D01*
X52831861Y-87620154D01*
X52689004Y-87620154D01*
X52593766Y-87667773D01*
X52546147Y-87763011D01*
X52546147Y-88286820D01*
X51689004Y-88239201D02*
X51784242Y-88286820D01*
X51974719Y-88286820D01*
X52069957Y-88239201D01*
X52117576Y-88143963D01*
X52117576Y-87763011D01*
X52069957Y-87667773D01*
X51974719Y-87620154D01*
X51784242Y-87620154D01*
X51689004Y-87667773D01*
X51641385Y-87763011D01*
X51641385Y-87858249D01*
X52117576Y-87953487D01*
X51260433Y-87620154D02*
X50546147Y-87620154D01*
X50974719Y-87191582D02*
X51260433Y-88477297D01*
X50641385Y-88048725D02*
X51355671Y-88048725D01*
X50927100Y-88477297D02*
X50641385Y-87191582D01*
X50260433Y-87382059D02*
X50212814Y-87334440D01*
X50117576Y-87286820D01*
X49879480Y-87286820D01*
X49784242Y-87334440D01*
X49736623Y-87382059D01*
X49689004Y-87477297D01*
X49689004Y-87572535D01*
X49736623Y-87715392D01*
X50308052Y-88286820D01*
X49689004Y-88286820D01*
X49308052Y-87382059D02*
X49260433Y-87334440D01*
X49165195Y-87286820D01*
X48927100Y-87286820D01*
X48831861Y-87334440D01*
X48784242Y-87382059D01*
X48736623Y-87477297D01*
X48736623Y-87572535D01*
X48784242Y-87715392D01*
X49355671Y-88286820D01*
X48736623Y-88286820D01*
X48403290Y-87286820D02*
X47784242Y-87286820D01*
X48117576Y-87667773D01*
X47974719Y-87667773D01*
X47879480Y-87715392D01*
X47831861Y-87763011D01*
X47784242Y-87858249D01*
X47784242Y-88096344D01*
X47831861Y-88191582D01*
X47879480Y-88239201D01*
X47974719Y-88286820D01*
X48260433Y-88286820D01*
X48355671Y-88239201D01*
X48403290Y-88191582D01*
X47450909Y-87286820D02*
X46831861Y-87286820D01*
X47165195Y-87667773D01*
X47022338Y-87667773D01*
X46927100Y-87715392D01*
X46879480Y-87763011D01*
X46831861Y-87858249D01*
X46831861Y-88096344D01*
X46879480Y-88191582D01*
X46927100Y-88239201D01*
X47022338Y-88286820D01*
X47308052Y-88286820D01*
X47403290Y-88239201D01*
X47450909Y-88191582D01*
M02*
