M48
; DRILL file {KiCad (5.1.2)-1} date 6/7/2019 8:02:56 PM
; FORMAT={-:-/ absolute / inch / decimal}
; #@! TF.CreationDate,2019-06-07T20:02:56-04:00
; #@! TF.GenerationSoftware,Kicad,Pcbnew,(5.1.2)-1
; #@! TF.FileFunction,Plated,1,2,PTH
FMAT,2
INCH
T1C0.0315
T2C0.0394
T3C0.0394
T4C0.0787
%
G90
G05
T1
X3.0405Y-4.8041
X3.1405Y-4.8041
X3.2405Y-4.8041
X1.9443Y-4.7935
X2.0443Y-4.7935
X2.1443Y-4.7935
T2
X1.8086Y-5.2492
X3.0488Y-4.2196
X3.1472Y-4.4165
X3.2457Y-4.2196
X1.9432Y-4.2013
X2.0416Y-4.3982
X2.1401Y-4.2013
X2.8925Y-5.2555
T3
X2.5767Y-3.6614
X2.7017Y-3.6614
X2.8267Y-3.6614
X1.8764Y-3.6765
X2.0014Y-3.6765
X2.1264Y-3.6765
X3.0119Y-5.0921
X3.1369Y-5.0921
X3.2619Y-5.0921
X3.4045Y-5.0921
X1.9162Y-5.077
X2.0412Y-5.077
X2.1662Y-5.077
X2.3091Y-5.077
T4
X3.4369Y-3.7865
X3.4349Y-3.5072
T0
M30
