G04 #@! TF.GenerationSoftware,KiCad,Pcbnew,(5.1.2)-1*
G04 #@! TF.CreationDate,2019-06-07T20:02:52-04:00*
G04 #@! TF.ProjectId,mini2_2,6d696e69-325f-4322-9e6b-696361645f70,rev?*
G04 #@! TF.SameCoordinates,Original*
G04 #@! TF.FileFunction,Legend,Top*
G04 #@! TF.FilePolarity,Positive*
%FSLAX46Y46*%
G04 Gerber Fmt 4.6, Leading zero omitted, Abs format (unit mm)*
G04 Created by KiCad (PCBNEW (5.1.2)-1) date 2019-06-07 20:02:52*
%MOMM*%
%LPD*%
G04 APERTURE LIST*
%ADD10C,0.300000*%
%ADD11C,0.120000*%
%ADD12C,0.010000*%
%ADD13C,0.150000*%
G04 APERTURE END LIST*
D10*
X60184091Y-86761711D02*
X60184091Y-85761711D01*
X60184091Y-85904568D02*
X60255520Y-85833140D01*
X60398377Y-85761711D01*
X60612662Y-85761711D01*
X60755520Y-85833140D01*
X60826948Y-85975997D01*
X60826948Y-86761711D01*
X60826948Y-85975997D02*
X60898377Y-85833140D01*
X61041234Y-85761711D01*
X61255520Y-85761711D01*
X61398377Y-85833140D01*
X61469805Y-85975997D01*
X61469805Y-86761711D01*
X62184091Y-86761711D02*
X62184091Y-85761711D01*
X62184091Y-85261711D02*
X62112662Y-85333140D01*
X62184091Y-85404568D01*
X62255520Y-85333140D01*
X62184091Y-85261711D01*
X62184091Y-85404568D01*
X62898377Y-85761711D02*
X62898377Y-86761711D01*
X62898377Y-85904568D02*
X62969805Y-85833140D01*
X63112662Y-85761711D01*
X63326948Y-85761711D01*
X63469805Y-85833140D01*
X63541234Y-85975997D01*
X63541234Y-86761711D01*
X64255520Y-86761711D02*
X64255520Y-85761711D01*
X64255520Y-85261711D02*
X64184091Y-85333140D01*
X64255520Y-85404568D01*
X64326948Y-85333140D01*
X64255520Y-85261711D01*
X64255520Y-85404568D01*
X65969805Y-85761711D02*
X66326948Y-86761711D01*
X66684091Y-85761711D01*
X67826948Y-86690282D02*
X67684091Y-86761711D01*
X67398377Y-86761711D01*
X67255520Y-86690282D01*
X67184091Y-86547425D01*
X67184091Y-85975997D01*
X67255520Y-85833140D01*
X67398377Y-85761711D01*
X67684091Y-85761711D01*
X67826948Y-85833140D01*
X67898377Y-85975997D01*
X67898377Y-86118854D01*
X67184091Y-86261711D01*
X68541234Y-86761711D02*
X68541234Y-85761711D01*
X68541234Y-86047425D02*
X68612662Y-85904568D01*
X68684091Y-85833140D01*
X68826948Y-85761711D01*
X68969805Y-85761711D01*
X70541234Y-85404568D02*
X70612662Y-85333140D01*
X70755520Y-85261711D01*
X71112662Y-85261711D01*
X71255520Y-85333140D01*
X71326948Y-85404568D01*
X71398377Y-85547425D01*
X71398377Y-85690282D01*
X71326948Y-85904568D01*
X70469805Y-86761711D01*
X71398377Y-86761711D01*
D11*
X76729520Y-105767840D02*
X78149520Y-105767840D01*
X78149520Y-105967840D02*
X81729520Y-105967840D01*
X81729520Y-105967840D02*
X81729520Y-105767840D01*
X81729520Y-105767840D02*
X83149520Y-105767840D01*
X83149520Y-105767840D02*
X83149520Y-105967840D01*
X79429520Y-112987840D02*
X77939520Y-112987840D01*
X76629520Y-111677840D02*
X76629520Y-108137840D01*
X83249520Y-107697840D02*
X83249520Y-111677840D01*
X81939520Y-112987840D02*
X80449520Y-112987840D01*
X77939520Y-112987840D02*
G75*
G02X76629520Y-111677840I0J1310000D01*
G01*
X83249520Y-111677840D02*
G75*
G02X81939520Y-112987840I-1310000J0D01*
G01*
X78149520Y-105967840D02*
X78149520Y-105767840D01*
X76729520Y-105767840D02*
X76729520Y-105967840D01*
X76729520Y-105967840D02*
X76629520Y-105967840D01*
X76629520Y-105967840D02*
X76629520Y-106217840D01*
X83149520Y-105967840D02*
X83249520Y-105967840D01*
X83249520Y-105967840D02*
X83249520Y-106657840D01*
X48647280Y-105303020D02*
X50067280Y-105303020D01*
X50067280Y-105503020D02*
X53647280Y-105503020D01*
X53647280Y-105503020D02*
X53647280Y-105303020D01*
X53647280Y-105303020D02*
X55067280Y-105303020D01*
X55067280Y-105303020D02*
X55067280Y-105503020D01*
X51347280Y-112523020D02*
X49857280Y-112523020D01*
X48547280Y-111213020D02*
X48547280Y-107673020D01*
X55167280Y-107233020D02*
X55167280Y-111213020D01*
X53857280Y-112523020D02*
X52367280Y-112523020D01*
X49857280Y-112523020D02*
G75*
G02X48547280Y-111213020I0J1310000D01*
G01*
X55167280Y-111213020D02*
G75*
G02X53857280Y-112523020I-1310000J0D01*
G01*
X50067280Y-105503020D02*
X50067280Y-105303020D01*
X48647280Y-105303020D02*
X48647280Y-105503020D01*
X48647280Y-105503020D02*
X48547280Y-105503020D01*
X48547280Y-105503020D02*
X48547280Y-105753020D01*
X55067280Y-105503020D02*
X55167280Y-105503020D01*
X55167280Y-105503020D02*
X55167280Y-106193020D01*
X74469500Y-131439700D02*
X74469500Y-135539700D01*
X74469500Y-135539700D02*
X72469500Y-135539700D01*
X72469500Y-135539700D02*
X72469500Y-131439700D01*
X72469500Y-131439700D02*
X74469500Y-131439700D01*
X44938440Y-131279680D02*
X46938440Y-131279680D01*
X44938440Y-135379680D02*
X44938440Y-131279680D01*
X46938440Y-135379680D02*
X44938440Y-135379680D01*
X46938440Y-131279680D02*
X46938440Y-135379680D01*
D12*
G36*
X73325463Y-121573253D02*
G01*
X73356842Y-121595496D01*
X73384551Y-121623205D01*
X73384551Y-121932640D01*
X73384478Y-122024519D01*
X73384135Y-122096560D01*
X73383332Y-122151500D01*
X73381881Y-122192080D01*
X73379592Y-122221037D01*
X73376276Y-122241111D01*
X73371745Y-122255041D01*
X73365809Y-122265565D01*
X73361154Y-122271820D01*
X73330423Y-122296393D01*
X73295136Y-122299061D01*
X73262885Y-122283991D01*
X73252228Y-122275094D01*
X73245104Y-122263277D01*
X73240807Y-122244246D01*
X73238631Y-122213712D01*
X73237868Y-122167382D01*
X73237795Y-122131591D01*
X73237795Y-121996765D01*
X72741084Y-121996765D01*
X72741084Y-122119420D01*
X72740571Y-122175507D01*
X72738516Y-122214053D01*
X72734148Y-122240081D01*
X72726696Y-122258617D01*
X72717687Y-122271820D01*
X72686784Y-122296324D01*
X72651836Y-122299226D01*
X72618378Y-122281809D01*
X72609244Y-122272679D01*
X72602792Y-122260575D01*
X72598537Y-122241721D01*
X72595992Y-122212340D01*
X72594669Y-122168657D01*
X72594083Y-122106895D01*
X72594015Y-122092720D01*
X72593531Y-121976351D01*
X72593281Y-121880447D01*
X72593363Y-121802897D01*
X72593871Y-121741589D01*
X72594902Y-121694410D01*
X72596553Y-121659250D01*
X72598919Y-121633996D01*
X72602097Y-121616537D01*
X72606184Y-121604761D01*
X72611274Y-121596555D01*
X72616906Y-121590365D01*
X72648768Y-121570564D01*
X72681997Y-121573253D01*
X72713375Y-121595496D01*
X72726073Y-121609846D01*
X72734166Y-121625698D01*
X72738682Y-121648274D01*
X72740646Y-121682798D01*
X72741084Y-121734496D01*
X72741084Y-121850009D01*
X73237795Y-121850009D01*
X73237795Y-121731476D01*
X73238302Y-121676868D01*
X73240338Y-121639995D01*
X73244675Y-121616027D01*
X73252087Y-121600135D01*
X73260373Y-121590365D01*
X73292234Y-121570564D01*
X73325463Y-121573253D01*
X73325463Y-121573253D01*
G37*
X73325463Y-121573253D02*
X73356842Y-121595496D01*
X73384551Y-121623205D01*
X73384551Y-121932640D01*
X73384478Y-122024519D01*
X73384135Y-122096560D01*
X73383332Y-122151500D01*
X73381881Y-122192080D01*
X73379592Y-122221037D01*
X73376276Y-122241111D01*
X73371745Y-122255041D01*
X73365809Y-122265565D01*
X73361154Y-122271820D01*
X73330423Y-122296393D01*
X73295136Y-122299061D01*
X73262885Y-122283991D01*
X73252228Y-122275094D01*
X73245104Y-122263277D01*
X73240807Y-122244246D01*
X73238631Y-122213712D01*
X73237868Y-122167382D01*
X73237795Y-122131591D01*
X73237795Y-121996765D01*
X72741084Y-121996765D01*
X72741084Y-122119420D01*
X72740571Y-122175507D01*
X72738516Y-122214053D01*
X72734148Y-122240081D01*
X72726696Y-122258617D01*
X72717687Y-122271820D01*
X72686784Y-122296324D01*
X72651836Y-122299226D01*
X72618378Y-122281809D01*
X72609244Y-122272679D01*
X72602792Y-122260575D01*
X72598537Y-122241721D01*
X72595992Y-122212340D01*
X72594669Y-122168657D01*
X72594083Y-122106895D01*
X72594015Y-122092720D01*
X72593531Y-121976351D01*
X72593281Y-121880447D01*
X72593363Y-121802897D01*
X72593871Y-121741589D01*
X72594902Y-121694410D01*
X72596553Y-121659250D01*
X72598919Y-121633996D01*
X72602097Y-121616537D01*
X72606184Y-121604761D01*
X72611274Y-121596555D01*
X72616906Y-121590365D01*
X72648768Y-121570564D01*
X72681997Y-121573253D01*
X72713375Y-121595496D01*
X72726073Y-121609846D01*
X72734166Y-121625698D01*
X72738682Y-121648274D01*
X72740646Y-121682798D01*
X72741084Y-121734496D01*
X72741084Y-121850009D01*
X73237795Y-121850009D01*
X73237795Y-121731476D01*
X73238302Y-121676868D01*
X73240338Y-121639995D01*
X73244675Y-121616027D01*
X73252087Y-121600135D01*
X73260373Y-121590365D01*
X73292234Y-121570564D01*
X73325463Y-121573253D01*
G36*
X72059705Y-121567883D02*
G01*
X72138412Y-121568262D01*
X72199503Y-121569053D01*
X72245457Y-121570390D01*
X72278754Y-121572403D01*
X72301876Y-121575226D01*
X72317302Y-121578989D01*
X72327511Y-121583825D01*
X72332453Y-121587542D01*
X72358097Y-121620078D01*
X72361199Y-121653858D01*
X72345351Y-121684546D01*
X72334988Y-121696809D01*
X72323836Y-121705170D01*
X72307675Y-121710377D01*
X72282282Y-121713177D01*
X72243438Y-121714316D01*
X72186920Y-121714541D01*
X72175820Y-121714542D01*
X72029884Y-121714542D01*
X72029884Y-121985476D01*
X72029788Y-122070874D01*
X72029351Y-122136584D01*
X72028352Y-122185494D01*
X72026568Y-122220493D01*
X72023777Y-122244469D01*
X72019757Y-122260313D01*
X72014285Y-122270911D01*
X72007306Y-122278987D01*
X71974374Y-122298832D01*
X71939994Y-122297268D01*
X71908816Y-122274626D01*
X71906526Y-122271820D01*
X71899069Y-122261212D01*
X71893387Y-122248801D01*
X71889241Y-122231570D01*
X71886390Y-122206504D01*
X71884594Y-122170587D01*
X71883612Y-122120803D01*
X71883204Y-122054137D01*
X71883129Y-121978309D01*
X71883129Y-121714542D01*
X71743767Y-121714542D01*
X71683962Y-121714138D01*
X71642558Y-121712560D01*
X71615388Y-121709267D01*
X71598286Y-121703712D01*
X71587083Y-121695351D01*
X71585723Y-121693898D01*
X71569365Y-121660659D01*
X71570812Y-121623082D01*
X71589618Y-121590365D01*
X71596890Y-121584018D01*
X71606267Y-121578986D01*
X71620249Y-121575116D01*
X71641336Y-121572257D01*
X71672029Y-121570255D01*
X71714829Y-121568959D01*
X71772235Y-121568218D01*
X71846750Y-121567878D01*
X71940873Y-121567788D01*
X71960900Y-121567787D01*
X72059705Y-121567883D01*
X72059705Y-121567883D01*
G37*
X72059705Y-121567883D02*
X72138412Y-121568262D01*
X72199503Y-121569053D01*
X72245457Y-121570390D01*
X72278754Y-121572403D01*
X72301876Y-121575226D01*
X72317302Y-121578989D01*
X72327511Y-121583825D01*
X72332453Y-121587542D01*
X72358097Y-121620078D01*
X72361199Y-121653858D01*
X72345351Y-121684546D01*
X72334988Y-121696809D01*
X72323836Y-121705170D01*
X72307675Y-121710377D01*
X72282282Y-121713177D01*
X72243438Y-121714316D01*
X72186920Y-121714541D01*
X72175820Y-121714542D01*
X72029884Y-121714542D01*
X72029884Y-121985476D01*
X72029788Y-122070874D01*
X72029351Y-122136584D01*
X72028352Y-122185494D01*
X72026568Y-122220493D01*
X72023777Y-122244469D01*
X72019757Y-122260313D01*
X72014285Y-122270911D01*
X72007306Y-122278987D01*
X71974374Y-122298832D01*
X71939994Y-122297268D01*
X71908816Y-122274626D01*
X71906526Y-122271820D01*
X71899069Y-122261212D01*
X71893387Y-122248801D01*
X71889241Y-122231570D01*
X71886390Y-122206504D01*
X71884594Y-122170587D01*
X71883612Y-122120803D01*
X71883204Y-122054137D01*
X71883129Y-121978309D01*
X71883129Y-121714542D01*
X71743767Y-121714542D01*
X71683962Y-121714138D01*
X71642558Y-121712560D01*
X71615388Y-121709267D01*
X71598286Y-121703712D01*
X71587083Y-121695351D01*
X71585723Y-121693898D01*
X71569365Y-121660659D01*
X71570812Y-121623082D01*
X71589618Y-121590365D01*
X71596890Y-121584018D01*
X71606267Y-121578986D01*
X71620249Y-121575116D01*
X71641336Y-121572257D01*
X71672029Y-121570255D01*
X71714829Y-121568959D01*
X71772235Y-121568218D01*
X71846750Y-121567878D01*
X71940873Y-121567788D01*
X71960900Y-121567787D01*
X72059705Y-121567883D01*
G36*
X71285254Y-121574597D02*
G01*
X71308967Y-121589367D01*
X71335618Y-121610947D01*
X71335618Y-121932493D01*
X71335533Y-122026550D01*
X71335169Y-122100652D01*
X71334364Y-122157424D01*
X71332953Y-122199488D01*
X71330773Y-122229468D01*
X71327661Y-122249987D01*
X71323454Y-122263669D01*
X71317988Y-122273136D01*
X71314112Y-122277802D01*
X71282674Y-122298295D01*
X71246873Y-122297459D01*
X71215513Y-122279984D01*
X71188862Y-122258404D01*
X71188862Y-121610947D01*
X71215513Y-121589367D01*
X71241234Y-121573669D01*
X71262240Y-121567787D01*
X71285254Y-121574597D01*
X71285254Y-121574597D01*
G37*
X71285254Y-121574597D02*
X71308967Y-121589367D01*
X71335618Y-121610947D01*
X71335618Y-121932493D01*
X71335533Y-122026550D01*
X71335169Y-122100652D01*
X71334364Y-122157424D01*
X71332953Y-122199488D01*
X71330773Y-122229468D01*
X71327661Y-122249987D01*
X71323454Y-122263669D01*
X71317988Y-122273136D01*
X71314112Y-122277802D01*
X71282674Y-122298295D01*
X71246873Y-122297459D01*
X71215513Y-122279984D01*
X71188862Y-122258404D01*
X71188862Y-121610947D01*
X71215513Y-121589367D01*
X71241234Y-121573669D01*
X71262240Y-121567787D01*
X71285254Y-121574597D01*
G36*
X70841305Y-121569754D02*
G01*
X70860895Y-121576755D01*
X70861650Y-121577097D01*
X70888253Y-121597398D01*
X70902910Y-121618281D01*
X70905778Y-121628072D01*
X70905636Y-121641081D01*
X70901601Y-121659615D01*
X70892786Y-121685977D01*
X70878309Y-121722472D01*
X70857285Y-121771407D01*
X70828828Y-121835085D01*
X70792055Y-121915813D01*
X70771815Y-121959936D01*
X70735265Y-122038705D01*
X70700955Y-122111143D01*
X70670192Y-122174600D01*
X70644288Y-122226428D01*
X70624550Y-122263979D01*
X70612290Y-122284604D01*
X70609864Y-122287453D01*
X70578823Y-122300022D01*
X70543761Y-122298339D01*
X70515640Y-122283052D01*
X70514494Y-122281809D01*
X70503308Y-122264874D01*
X70484544Y-122231890D01*
X70460515Y-122187100D01*
X70433537Y-122134752D01*
X70423841Y-122115462D01*
X70350654Y-121968870D01*
X70270880Y-122128113D01*
X70242407Y-122183135D01*
X70215990Y-122230852D01*
X70193788Y-122267613D01*
X70177959Y-122289764D01*
X70172594Y-122294461D01*
X70130897Y-122300822D01*
X70096489Y-122287453D01*
X70086368Y-122273166D01*
X70068854Y-122241412D01*
X70045375Y-122195317D01*
X70017360Y-122138005D01*
X69986239Y-122072600D01*
X69953439Y-122002227D01*
X69920390Y-121930011D01*
X69888521Y-121859075D01*
X69859259Y-121792545D01*
X69834035Y-121733546D01*
X69814276Y-121685201D01*
X69801412Y-121650635D01*
X69796871Y-121632973D01*
X69796917Y-121632333D01*
X69807966Y-121610108D01*
X69830050Y-121587473D01*
X69831350Y-121586488D01*
X69858493Y-121571145D01*
X69883598Y-121571294D01*
X69893008Y-121574186D01*
X69904474Y-121580438D01*
X69916650Y-121592734D01*
X69930997Y-121613628D01*
X69948976Y-121645669D01*
X69972047Y-121691408D01*
X70001670Y-121753397D01*
X70028385Y-121810618D01*
X70059120Y-121876946D01*
X70086661Y-121936594D01*
X70109578Y-121986445D01*
X70126438Y-122023384D01*
X70135813Y-122044293D01*
X70137180Y-122047565D01*
X70143329Y-122042217D01*
X70157462Y-122019829D01*
X70177697Y-121983666D01*
X70202155Y-121936997D01*
X70211888Y-121917742D01*
X70244857Y-121852724D01*
X70270283Y-121805374D01*
X70290252Y-121772939D01*
X70306850Y-121752666D01*
X70322164Y-121741802D01*
X70338280Y-121737595D01*
X70348783Y-121737120D01*
X70367310Y-121738762D01*
X70383544Y-121745551D01*
X70399675Y-121760286D01*
X70417891Y-121785764D01*
X70440379Y-121824781D01*
X70469329Y-121880134D01*
X70485302Y-121911623D01*
X70511210Y-121961807D01*
X70533807Y-122003424D01*
X70551098Y-122032962D01*
X70561090Y-122046909D01*
X70562449Y-122047490D01*
X70568901Y-122036513D01*
X70583348Y-122008010D01*
X70604343Y-121964964D01*
X70630437Y-121910358D01*
X70660186Y-121847174D01*
X70674820Y-121815791D01*
X70712890Y-121734798D01*
X70743545Y-121672476D01*
X70768377Y-121626791D01*
X70788977Y-121595709D01*
X70806938Y-121577198D01*
X70823850Y-121569224D01*
X70841305Y-121569754D01*
X70841305Y-121569754D01*
G37*
X70841305Y-121569754D02*
X70860895Y-121576755D01*
X70861650Y-121577097D01*
X70888253Y-121597398D01*
X70902910Y-121618281D01*
X70905778Y-121628072D01*
X70905636Y-121641081D01*
X70901601Y-121659615D01*
X70892786Y-121685977D01*
X70878309Y-121722472D01*
X70857285Y-121771407D01*
X70828828Y-121835085D01*
X70792055Y-121915813D01*
X70771815Y-121959936D01*
X70735265Y-122038705D01*
X70700955Y-122111143D01*
X70670192Y-122174600D01*
X70644288Y-122226428D01*
X70624550Y-122263979D01*
X70612290Y-122284604D01*
X70609864Y-122287453D01*
X70578823Y-122300022D01*
X70543761Y-122298339D01*
X70515640Y-122283052D01*
X70514494Y-122281809D01*
X70503308Y-122264874D01*
X70484544Y-122231890D01*
X70460515Y-122187100D01*
X70433537Y-122134752D01*
X70423841Y-122115462D01*
X70350654Y-121968870D01*
X70270880Y-122128113D01*
X70242407Y-122183135D01*
X70215990Y-122230852D01*
X70193788Y-122267613D01*
X70177959Y-122289764D01*
X70172594Y-122294461D01*
X70130897Y-122300822D01*
X70096489Y-122287453D01*
X70086368Y-122273166D01*
X70068854Y-122241412D01*
X70045375Y-122195317D01*
X70017360Y-122138005D01*
X69986239Y-122072600D01*
X69953439Y-122002227D01*
X69920390Y-121930011D01*
X69888521Y-121859075D01*
X69859259Y-121792545D01*
X69834035Y-121733546D01*
X69814276Y-121685201D01*
X69801412Y-121650635D01*
X69796871Y-121632973D01*
X69796917Y-121632333D01*
X69807966Y-121610108D01*
X69830050Y-121587473D01*
X69831350Y-121586488D01*
X69858493Y-121571145D01*
X69883598Y-121571294D01*
X69893008Y-121574186D01*
X69904474Y-121580438D01*
X69916650Y-121592734D01*
X69930997Y-121613628D01*
X69948976Y-121645669D01*
X69972047Y-121691408D01*
X70001670Y-121753397D01*
X70028385Y-121810618D01*
X70059120Y-121876946D01*
X70086661Y-121936594D01*
X70109578Y-121986445D01*
X70126438Y-122023384D01*
X70135813Y-122044293D01*
X70137180Y-122047565D01*
X70143329Y-122042217D01*
X70157462Y-122019829D01*
X70177697Y-121983666D01*
X70202155Y-121936997D01*
X70211888Y-121917742D01*
X70244857Y-121852724D01*
X70270283Y-121805374D01*
X70290252Y-121772939D01*
X70306850Y-121752666D01*
X70322164Y-121741802D01*
X70338280Y-121737595D01*
X70348783Y-121737120D01*
X70367310Y-121738762D01*
X70383544Y-121745551D01*
X70399675Y-121760286D01*
X70417891Y-121785764D01*
X70440379Y-121824781D01*
X70469329Y-121880134D01*
X70485302Y-121911623D01*
X70511210Y-121961807D01*
X70533807Y-122003424D01*
X70551098Y-122032962D01*
X70561090Y-122046909D01*
X70562449Y-122047490D01*
X70568901Y-122036513D01*
X70583348Y-122008010D01*
X70604343Y-121964964D01*
X70630437Y-121910358D01*
X70660186Y-121847174D01*
X70674820Y-121815791D01*
X70712890Y-121734798D01*
X70743545Y-121672476D01*
X70768377Y-121626791D01*
X70788977Y-121595709D01*
X70806938Y-121577198D01*
X70823850Y-121569224D01*
X70841305Y-121569754D01*
G36*
X68114949Y-121567995D02*
G01*
X68243928Y-121572356D01*
X68353631Y-121585581D01*
X68445866Y-121608461D01*
X68522442Y-121641790D01*
X68585167Y-121686358D01*
X68635852Y-121742956D01*
X68676303Y-121812378D01*
X68677099Y-121814071D01*
X68701241Y-121876203D01*
X68709843Y-121931229D01*
X68702871Y-121986607D01*
X68680294Y-122049793D01*
X68676012Y-122059409D01*
X68646812Y-122115686D01*
X68613996Y-122159171D01*
X68571642Y-122196137D01*
X68513830Y-122232855D01*
X68510471Y-122234772D01*
X68460144Y-122258947D01*
X68403261Y-122277002D01*
X68336167Y-122289559D01*
X68255205Y-122297242D01*
X68156722Y-122300673D01*
X68121926Y-122300971D01*
X67956234Y-122301565D01*
X67932837Y-122271820D01*
X67925897Y-122262039D01*
X67920482Y-122250617D01*
X67916405Y-122234815D01*
X67913477Y-122211895D01*
X67911507Y-122179116D01*
X67910865Y-122154809D01*
X68067484Y-122154809D01*
X68161366Y-122154809D01*
X68216304Y-122153203D01*
X68272700Y-122148975D01*
X68318985Y-122143012D01*
X68321779Y-122142510D01*
X68403988Y-122120456D01*
X68467754Y-122087320D01*
X68515092Y-122041567D01*
X68548022Y-121981659D01*
X68553748Y-121965781D01*
X68559361Y-121941053D01*
X68556931Y-121916622D01*
X68545107Y-121884120D01*
X68537980Y-121868154D01*
X68514640Y-121825726D01*
X68486520Y-121795960D01*
X68455580Y-121775231D01*
X68393606Y-121748257D01*
X68314291Y-121728718D01*
X68221893Y-121717466D01*
X68154973Y-121714990D01*
X68067484Y-121714542D01*
X68067484Y-122154809D01*
X67910865Y-122154809D01*
X67910308Y-122133741D01*
X67909690Y-122073031D01*
X67909465Y-121994246D01*
X67909440Y-121932640D01*
X67909440Y-121623205D01*
X67937149Y-121595496D01*
X67949446Y-121584264D01*
X67962743Y-121576573D01*
X67981312Y-121571760D01*
X68009426Y-121569166D01*
X68051357Y-121568130D01*
X68111377Y-121567990D01*
X68114949Y-121567995D01*
X68114949Y-121567995D01*
G37*
X68114949Y-121567995D02*
X68243928Y-121572356D01*
X68353631Y-121585581D01*
X68445866Y-121608461D01*
X68522442Y-121641790D01*
X68585167Y-121686358D01*
X68635852Y-121742956D01*
X68676303Y-121812378D01*
X68677099Y-121814071D01*
X68701241Y-121876203D01*
X68709843Y-121931229D01*
X68702871Y-121986607D01*
X68680294Y-122049793D01*
X68676012Y-122059409D01*
X68646812Y-122115686D01*
X68613996Y-122159171D01*
X68571642Y-122196137D01*
X68513830Y-122232855D01*
X68510471Y-122234772D01*
X68460144Y-122258947D01*
X68403261Y-122277002D01*
X68336167Y-122289559D01*
X68255205Y-122297242D01*
X68156722Y-122300673D01*
X68121926Y-122300971D01*
X67956234Y-122301565D01*
X67932837Y-122271820D01*
X67925897Y-122262039D01*
X67920482Y-122250617D01*
X67916405Y-122234815D01*
X67913477Y-122211895D01*
X67911507Y-122179116D01*
X67910865Y-122154809D01*
X68067484Y-122154809D01*
X68161366Y-122154809D01*
X68216304Y-122153203D01*
X68272700Y-122148975D01*
X68318985Y-122143012D01*
X68321779Y-122142510D01*
X68403988Y-122120456D01*
X68467754Y-122087320D01*
X68515092Y-122041567D01*
X68548022Y-121981659D01*
X68553748Y-121965781D01*
X68559361Y-121941053D01*
X68556931Y-121916622D01*
X68545107Y-121884120D01*
X68537980Y-121868154D01*
X68514640Y-121825726D01*
X68486520Y-121795960D01*
X68455580Y-121775231D01*
X68393606Y-121748257D01*
X68314291Y-121728718D01*
X68221893Y-121717466D01*
X68154973Y-121714990D01*
X68067484Y-121714542D01*
X68067484Y-122154809D01*
X67910865Y-122154809D01*
X67910308Y-122133741D01*
X67909690Y-122073031D01*
X67909465Y-121994246D01*
X67909440Y-121932640D01*
X67909440Y-121623205D01*
X67937149Y-121595496D01*
X67949446Y-121584264D01*
X67962743Y-121576573D01*
X67981312Y-121571760D01*
X68009426Y-121569166D01*
X68051357Y-121568130D01*
X68111377Y-121567990D01*
X68114949Y-121567995D01*
G36*
X67326983Y-121567980D02*
G01*
X67403341Y-121568894D01*
X67461857Y-121571031D01*
X67504895Y-121574895D01*
X67534823Y-121580987D01*
X67554008Y-121589810D01*
X67564816Y-121601866D01*
X67569613Y-121617659D01*
X67570767Y-121637690D01*
X67570773Y-121640055D01*
X67569771Y-121662712D01*
X67565036Y-121680223D01*
X67553973Y-121693294D01*
X67533988Y-121702633D01*
X67502486Y-121708947D01*
X67456872Y-121712942D01*
X67394553Y-121715326D01*
X67312933Y-121716806D01*
X67287917Y-121717134D01*
X67045840Y-121720187D01*
X67042454Y-121785098D01*
X67039069Y-121850009D01*
X67207216Y-121850009D01*
X67272906Y-121850251D01*
X67319812Y-121851276D01*
X67351723Y-121853531D01*
X67372431Y-121857462D01*
X67385724Y-121863518D01*
X67395395Y-121872144D01*
X67395457Y-121872213D01*
X67412996Y-121905832D01*
X67412362Y-121942168D01*
X67393954Y-121973143D01*
X67390311Y-121976327D01*
X67377381Y-121984532D01*
X67359664Y-121990241D01*
X67333210Y-121993882D01*
X67294072Y-121995887D01*
X67238302Y-121996684D01*
X67202634Y-121996765D01*
X67040195Y-121996765D01*
X67040195Y-122154809D01*
X67286801Y-122154809D01*
X67368220Y-122154951D01*
X67430050Y-122155534D01*
X67475277Y-122156788D01*
X67506888Y-122158947D01*
X67527871Y-122162243D01*
X67541213Y-122166909D01*
X67549901Y-122173177D01*
X67552090Y-122175453D01*
X67568254Y-122207000D01*
X67569437Y-122242888D01*
X67556176Y-122274005D01*
X67545683Y-122283991D01*
X67534769Y-122289489D01*
X67517857Y-122293742D01*
X67492273Y-122296900D01*
X67455341Y-122299112D01*
X67404386Y-122300526D01*
X67336734Y-122301292D01*
X67249709Y-122301558D01*
X67230034Y-122301565D01*
X67141551Y-122301507D01*
X67072867Y-122301187D01*
X67021204Y-122300387D01*
X66983785Y-122298887D01*
X66957830Y-122296469D01*
X66940562Y-122292914D01*
X66929202Y-122288002D01*
X66920972Y-122281515D01*
X66916457Y-122276858D01*
X66909661Y-122268609D01*
X66904352Y-122258389D01*
X66900346Y-122243520D01*
X66897461Y-122221322D01*
X66895514Y-122189113D01*
X66894321Y-122144216D01*
X66893701Y-122083948D01*
X66893469Y-122005631D01*
X66893440Y-121939714D01*
X66893511Y-121847348D01*
X66893848Y-121774837D01*
X66894638Y-121719457D01*
X66896066Y-121678485D01*
X66898319Y-121649198D01*
X66901583Y-121628873D01*
X66906044Y-121614786D01*
X66911888Y-121604215D01*
X66916837Y-121597531D01*
X66940234Y-121567787D01*
X67230414Y-121567787D01*
X67326983Y-121567980D01*
X67326983Y-121567980D01*
G37*
X67326983Y-121567980D02*
X67403341Y-121568894D01*
X67461857Y-121571031D01*
X67504895Y-121574895D01*
X67534823Y-121580987D01*
X67554008Y-121589810D01*
X67564816Y-121601866D01*
X67569613Y-121617659D01*
X67570767Y-121637690D01*
X67570773Y-121640055D01*
X67569771Y-121662712D01*
X67565036Y-121680223D01*
X67553973Y-121693294D01*
X67533988Y-121702633D01*
X67502486Y-121708947D01*
X67456872Y-121712942D01*
X67394553Y-121715326D01*
X67312933Y-121716806D01*
X67287917Y-121717134D01*
X67045840Y-121720187D01*
X67042454Y-121785098D01*
X67039069Y-121850009D01*
X67207216Y-121850009D01*
X67272906Y-121850251D01*
X67319812Y-121851276D01*
X67351723Y-121853531D01*
X67372431Y-121857462D01*
X67385724Y-121863518D01*
X67395395Y-121872144D01*
X67395457Y-121872213D01*
X67412996Y-121905832D01*
X67412362Y-121942168D01*
X67393954Y-121973143D01*
X67390311Y-121976327D01*
X67377381Y-121984532D01*
X67359664Y-121990241D01*
X67333210Y-121993882D01*
X67294072Y-121995887D01*
X67238302Y-121996684D01*
X67202634Y-121996765D01*
X67040195Y-121996765D01*
X67040195Y-122154809D01*
X67286801Y-122154809D01*
X67368220Y-122154951D01*
X67430050Y-122155534D01*
X67475277Y-122156788D01*
X67506888Y-122158947D01*
X67527871Y-122162243D01*
X67541213Y-122166909D01*
X67549901Y-122173177D01*
X67552090Y-122175453D01*
X67568254Y-122207000D01*
X67569437Y-122242888D01*
X67556176Y-122274005D01*
X67545683Y-122283991D01*
X67534769Y-122289489D01*
X67517857Y-122293742D01*
X67492273Y-122296900D01*
X67455341Y-122299112D01*
X67404386Y-122300526D01*
X67336734Y-122301292D01*
X67249709Y-122301558D01*
X67230034Y-122301565D01*
X67141551Y-122301507D01*
X67072867Y-122301187D01*
X67021204Y-122300387D01*
X66983785Y-122298887D01*
X66957830Y-122296469D01*
X66940562Y-122292914D01*
X66929202Y-122288002D01*
X66920972Y-122281515D01*
X66916457Y-122276858D01*
X66909661Y-122268609D01*
X66904352Y-122258389D01*
X66900346Y-122243520D01*
X66897461Y-122221322D01*
X66895514Y-122189113D01*
X66894321Y-122144216D01*
X66893701Y-122083948D01*
X66893469Y-122005631D01*
X66893440Y-121939714D01*
X66893511Y-121847348D01*
X66893848Y-121774837D01*
X66894638Y-121719457D01*
X66896066Y-121678485D01*
X66898319Y-121649198D01*
X66901583Y-121628873D01*
X66906044Y-121614786D01*
X66911888Y-121604215D01*
X66916837Y-121597531D01*
X66940234Y-121567787D01*
X67230414Y-121567787D01*
X67326983Y-121567980D01*
G36*
X65796526Y-121572168D02*
G01*
X65820092Y-121585993D01*
X65850905Y-121608601D01*
X65890562Y-121641058D01*
X65940660Y-121684428D01*
X66002797Y-121739778D01*
X66078568Y-121808171D01*
X66165306Y-121886804D01*
X66345929Y-122050598D01*
X66351573Y-121830749D01*
X66353611Y-121755071D01*
X66355577Y-121698714D01*
X66357906Y-121658426D01*
X66361034Y-121630955D01*
X66365395Y-121613049D01*
X66371424Y-121601457D01*
X66379556Y-121592928D01*
X66383868Y-121589343D01*
X66418399Y-121570390D01*
X66451257Y-121573161D01*
X66477322Y-121589353D01*
X66503973Y-121610919D01*
X66507288Y-121925871D01*
X66508205Y-122018499D01*
X66508672Y-122091264D01*
X66508527Y-122146881D01*
X66507608Y-122188062D01*
X66505753Y-122217523D01*
X66502801Y-122237975D01*
X66498590Y-122252133D01*
X66492958Y-122262711D01*
X66486713Y-122271194D01*
X66473201Y-122286927D01*
X66459757Y-122297356D01*
X66444516Y-122301359D01*
X66425614Y-122297814D01*
X66401185Y-122285599D01*
X66369367Y-122263591D01*
X66328292Y-122230669D01*
X66276098Y-122185711D01*
X66210918Y-122127595D01*
X66137084Y-122060819D01*
X65871795Y-121820178D01*
X65866151Y-122039309D01*
X65864109Y-122114848D01*
X65862138Y-122171074D01*
X65859801Y-122211244D01*
X65856659Y-122238616D01*
X65852276Y-122256448D01*
X65846216Y-122267999D01*
X65838040Y-122276527D01*
X65833856Y-122280002D01*
X65796875Y-122299092D01*
X65761932Y-122296213D01*
X65731504Y-122271820D01*
X65724543Y-122262006D01*
X65719117Y-122250546D01*
X65715037Y-122234688D01*
X65712111Y-122211683D01*
X65710148Y-122178782D01*
X65708957Y-122133236D01*
X65708348Y-122072293D01*
X65708129Y-121993206D01*
X65708106Y-121934676D01*
X65708180Y-121843127D01*
X65708527Y-121771407D01*
X65709339Y-121716765D01*
X65710807Y-121676452D01*
X65713121Y-121647718D01*
X65716473Y-121627813D01*
X65721052Y-121613988D01*
X65727051Y-121603492D01*
X65731504Y-121597531D01*
X65742790Y-121583411D01*
X65753339Y-121572749D01*
X65764747Y-121566612D01*
X65778610Y-121566063D01*
X65796526Y-121572168D01*
X65796526Y-121572168D01*
G37*
X65796526Y-121572168D02*
X65820092Y-121585993D01*
X65850905Y-121608601D01*
X65890562Y-121641058D01*
X65940660Y-121684428D01*
X66002797Y-121739778D01*
X66078568Y-121808171D01*
X66165306Y-121886804D01*
X66345929Y-122050598D01*
X66351573Y-121830749D01*
X66353611Y-121755071D01*
X66355577Y-121698714D01*
X66357906Y-121658426D01*
X66361034Y-121630955D01*
X66365395Y-121613049D01*
X66371424Y-121601457D01*
X66379556Y-121592928D01*
X66383868Y-121589343D01*
X66418399Y-121570390D01*
X66451257Y-121573161D01*
X66477322Y-121589353D01*
X66503973Y-121610919D01*
X66507288Y-121925871D01*
X66508205Y-122018499D01*
X66508672Y-122091264D01*
X66508527Y-122146881D01*
X66507608Y-122188062D01*
X66505753Y-122217523D01*
X66502801Y-122237975D01*
X66498590Y-122252133D01*
X66492958Y-122262711D01*
X66486713Y-122271194D01*
X66473201Y-122286927D01*
X66459757Y-122297356D01*
X66444516Y-122301359D01*
X66425614Y-122297814D01*
X66401185Y-122285599D01*
X66369367Y-122263591D01*
X66328292Y-122230669D01*
X66276098Y-122185711D01*
X66210918Y-122127595D01*
X66137084Y-122060819D01*
X65871795Y-121820178D01*
X65866151Y-122039309D01*
X65864109Y-122114848D01*
X65862138Y-122171074D01*
X65859801Y-122211244D01*
X65856659Y-122238616D01*
X65852276Y-122256448D01*
X65846216Y-122267999D01*
X65838040Y-122276527D01*
X65833856Y-122280002D01*
X65796875Y-122299092D01*
X65761932Y-122296213D01*
X65731504Y-122271820D01*
X65724543Y-122262006D01*
X65719117Y-122250546D01*
X65715037Y-122234688D01*
X65712111Y-122211683D01*
X65710148Y-122178782D01*
X65708957Y-122133236D01*
X65708348Y-122072293D01*
X65708129Y-121993206D01*
X65708106Y-121934676D01*
X65708180Y-121843127D01*
X65708527Y-121771407D01*
X65709339Y-121716765D01*
X65710807Y-121676452D01*
X65713121Y-121647718D01*
X65716473Y-121627813D01*
X65721052Y-121613988D01*
X65727051Y-121603492D01*
X65731504Y-121597531D01*
X65742790Y-121583411D01*
X65753339Y-121572749D01*
X65764747Y-121566612D01*
X65778610Y-121566063D01*
X65796526Y-121572168D01*
G36*
X65146559Y-121573319D02*
G01*
X65215075Y-121584815D01*
X65267697Y-121602687D01*
X65301932Y-121626219D01*
X65311261Y-121639644D01*
X65320747Y-121670868D01*
X65314363Y-121699115D01*
X65294210Y-121725902D01*
X65262895Y-121738433D01*
X65217457Y-121737416D01*
X65182314Y-121730626D01*
X65104221Y-121717691D01*
X65024414Y-121716462D01*
X64935085Y-121726961D01*
X64910411Y-121731410D01*
X64827349Y-121754828D01*
X64762367Y-121789665D01*
X64716179Y-121835324D01*
X64689495Y-121891214D01*
X64683977Y-121920108D01*
X64687589Y-121978732D01*
X64710911Y-122030599D01*
X64751816Y-122074698D01*
X64808181Y-122110019D01*
X64877880Y-122135549D01*
X64958788Y-122150279D01*
X65048780Y-122153198D01*
X65145730Y-122143295D01*
X65151204Y-122142361D01*
X65189765Y-122135179D01*
X65211146Y-122128241D01*
X65220413Y-122117947D01*
X65222634Y-122100696D01*
X65222684Y-122091561D01*
X65222684Y-122053209D01*
X65154209Y-122053209D01*
X65093740Y-122049067D01*
X65052475Y-122035867D01*
X65028465Y-122012450D01*
X65019763Y-121977656D01*
X65019657Y-121973114D01*
X65024748Y-121943374D01*
X65042207Y-121922139D01*
X65074701Y-121908086D01*
X65124897Y-121899893D01*
X65173517Y-121896881D01*
X65244184Y-121895153D01*
X65295442Y-121897790D01*
X65330401Y-121907520D01*
X65352170Y-121927073D01*
X65363860Y-121959176D01*
X65368580Y-122006558D01*
X65369440Y-122068791D01*
X65368031Y-122138255D01*
X65363792Y-122185506D01*
X65356704Y-122210732D01*
X65355329Y-122212708D01*
X65316412Y-122244228D01*
X65259354Y-122269190D01*
X65187771Y-122287060D01*
X65105282Y-122297306D01*
X65015501Y-122299393D01*
X64922048Y-122292788D01*
X64867084Y-122284676D01*
X64780874Y-122260274D01*
X64700748Y-122220382D01*
X64633663Y-122168607D01*
X64623467Y-122158259D01*
X64590338Y-122114755D01*
X64560446Y-122060838D01*
X64537283Y-122004312D01*
X64524342Y-121952979D01*
X64522782Y-121933264D01*
X64529422Y-121892139D01*
X64547072Y-121840972D01*
X64572343Y-121787114D01*
X64601851Y-121737915D01*
X64627921Y-121705054D01*
X64688875Y-121656172D01*
X64767671Y-121617265D01*
X64861483Y-121589214D01*
X64967490Y-121572899D01*
X65064640Y-121568912D01*
X65146559Y-121573319D01*
X65146559Y-121573319D01*
G37*
X65146559Y-121573319D02*
X65215075Y-121584815D01*
X65267697Y-121602687D01*
X65301932Y-121626219D01*
X65311261Y-121639644D01*
X65320747Y-121670868D01*
X65314363Y-121699115D01*
X65294210Y-121725902D01*
X65262895Y-121738433D01*
X65217457Y-121737416D01*
X65182314Y-121730626D01*
X65104221Y-121717691D01*
X65024414Y-121716462D01*
X64935085Y-121726961D01*
X64910411Y-121731410D01*
X64827349Y-121754828D01*
X64762367Y-121789665D01*
X64716179Y-121835324D01*
X64689495Y-121891214D01*
X64683977Y-121920108D01*
X64687589Y-121978732D01*
X64710911Y-122030599D01*
X64751816Y-122074698D01*
X64808181Y-122110019D01*
X64877880Y-122135549D01*
X64958788Y-122150279D01*
X65048780Y-122153198D01*
X65145730Y-122143295D01*
X65151204Y-122142361D01*
X65189765Y-122135179D01*
X65211146Y-122128241D01*
X65220413Y-122117947D01*
X65222634Y-122100696D01*
X65222684Y-122091561D01*
X65222684Y-122053209D01*
X65154209Y-122053209D01*
X65093740Y-122049067D01*
X65052475Y-122035867D01*
X65028465Y-122012450D01*
X65019763Y-121977656D01*
X65019657Y-121973114D01*
X65024748Y-121943374D01*
X65042207Y-121922139D01*
X65074701Y-121908086D01*
X65124897Y-121899893D01*
X65173517Y-121896881D01*
X65244184Y-121895153D01*
X65295442Y-121897790D01*
X65330401Y-121907520D01*
X65352170Y-121927073D01*
X65363860Y-121959176D01*
X65368580Y-122006558D01*
X65369440Y-122068791D01*
X65368031Y-122138255D01*
X65363792Y-122185506D01*
X65356704Y-122210732D01*
X65355329Y-122212708D01*
X65316412Y-122244228D01*
X65259354Y-122269190D01*
X65187771Y-122287060D01*
X65105282Y-122297306D01*
X65015501Y-122299393D01*
X64922048Y-122292788D01*
X64867084Y-122284676D01*
X64780874Y-122260274D01*
X64700748Y-122220382D01*
X64633663Y-122168607D01*
X64623467Y-122158259D01*
X64590338Y-122114755D01*
X64560446Y-122060838D01*
X64537283Y-122004312D01*
X64524342Y-121952979D01*
X64522782Y-121933264D01*
X64529422Y-121892139D01*
X64547072Y-121840972D01*
X64572343Y-121787114D01*
X64601851Y-121737915D01*
X64627921Y-121705054D01*
X64688875Y-121656172D01*
X64767671Y-121617265D01*
X64861483Y-121589214D01*
X64967490Y-121572899D01*
X65064640Y-121568912D01*
X65146559Y-121573319D01*
G36*
X64172818Y-121590365D02*
G01*
X64179398Y-121597938D01*
X64184561Y-121607707D01*
X64188476Y-121622291D01*
X64191316Y-121644305D01*
X64193253Y-121676368D01*
X64194457Y-121721095D01*
X64195101Y-121781105D01*
X64195356Y-121859014D01*
X64195395Y-121934676D01*
X64195326Y-122028522D01*
X64195002Y-122102409D01*
X64194254Y-122158952D01*
X64192908Y-122200769D01*
X64190794Y-122230477D01*
X64187740Y-122250693D01*
X64183574Y-122264034D01*
X64178124Y-122273118D01*
X64172818Y-122278987D01*
X64139814Y-122298667D01*
X64104649Y-122296901D01*
X64073185Y-122275437D01*
X64065956Y-122267057D01*
X64060306Y-122257334D01*
X64056041Y-122243581D01*
X64052967Y-122223109D01*
X64050888Y-122193232D01*
X64049610Y-122151261D01*
X64048939Y-122094509D01*
X64048681Y-122020287D01*
X64048640Y-121936257D01*
X64048640Y-121623205D01*
X64076349Y-121595496D01*
X64110503Y-121572183D01*
X64143634Y-121571343D01*
X64172818Y-121590365D01*
X64172818Y-121590365D01*
G37*
X64172818Y-121590365D02*
X64179398Y-121597938D01*
X64184561Y-121607707D01*
X64188476Y-121622291D01*
X64191316Y-121644305D01*
X64193253Y-121676368D01*
X64194457Y-121721095D01*
X64195101Y-121781105D01*
X64195356Y-121859014D01*
X64195395Y-121934676D01*
X64195326Y-122028522D01*
X64195002Y-122102409D01*
X64194254Y-122158952D01*
X64192908Y-122200769D01*
X64190794Y-122230477D01*
X64187740Y-122250693D01*
X64183574Y-122264034D01*
X64178124Y-122273118D01*
X64172818Y-122278987D01*
X64139814Y-122298667D01*
X64104649Y-122296901D01*
X64073185Y-122275437D01*
X64065956Y-122267057D01*
X64060306Y-122257334D01*
X64056041Y-122243581D01*
X64052967Y-122223109D01*
X64050888Y-122193232D01*
X64049610Y-122151261D01*
X64048939Y-122094509D01*
X64048681Y-122020287D01*
X64048640Y-121936257D01*
X64048640Y-121623205D01*
X64076349Y-121595496D01*
X64110503Y-121572183D01*
X64143634Y-121571343D01*
X64172818Y-121590365D01*
G36*
X63404937Y-121569071D02*
G01*
X63479752Y-121574301D01*
X63549334Y-121582470D01*
X63609638Y-121593270D01*
X63656620Y-121606393D01*
X63686234Y-121621533D01*
X63690780Y-121625989D01*
X63706586Y-121660570D01*
X63701793Y-121696071D01*
X63677276Y-121726445D01*
X63676106Y-121727316D01*
X63661686Y-121736674D01*
X63646632Y-121741596D01*
X63625635Y-121742193D01*
X63593383Y-121738581D01*
X63544567Y-121730874D01*
X63540640Y-121730225D01*
X63467901Y-121721289D01*
X63389423Y-121716881D01*
X63310713Y-121716839D01*
X63237279Y-121720999D01*
X63174629Y-121729199D01*
X63128270Y-121741277D01*
X63125224Y-121742491D01*
X63091592Y-121761335D01*
X63079776Y-121780405D01*
X63089026Y-121799159D01*
X63118593Y-121817057D01*
X63167729Y-121833557D01*
X63235683Y-121848116D01*
X63280995Y-121855126D01*
X63375184Y-121868609D01*
X63450096Y-121880934D01*
X63508923Y-121893169D01*
X63554855Y-121906381D01*
X63591085Y-121921637D01*
X63620802Y-121940005D01*
X63647198Y-121962551D01*
X63668410Y-121984691D01*
X63693575Y-122015539D01*
X63705959Y-122042065D01*
X63709832Y-122074746D01*
X63709973Y-122086715D01*
X63707064Y-122126432D01*
X63695438Y-122155979D01*
X63675317Y-122182206D01*
X63634424Y-122222296D01*
X63588823Y-122252869D01*
X63535127Y-122274923D01*
X63469948Y-122289455D01*
X63389896Y-122297461D01*
X63291583Y-122299938D01*
X63275351Y-122299897D01*
X63209791Y-122298538D01*
X63144774Y-122295450D01*
X63087388Y-122291076D01*
X63044718Y-122285860D01*
X63041268Y-122285261D01*
X62998844Y-122275211D01*
X62962860Y-122262516D01*
X62942490Y-122250910D01*
X62923533Y-122220292D01*
X62922213Y-122184638D01*
X62938555Y-122152864D01*
X62942211Y-122149271D01*
X62957325Y-122138596D01*
X62976225Y-122133996D01*
X63005478Y-122134779D01*
X63040989Y-122138847D01*
X63080670Y-122142482D01*
X63136295Y-122145548D01*
X63201234Y-122147773D01*
X63268855Y-122148884D01*
X63286640Y-122148957D01*
X63354512Y-122148684D01*
X63404186Y-122147366D01*
X63440030Y-122144547D01*
X63466416Y-122139770D01*
X63487714Y-122132577D01*
X63500514Y-122126587D01*
X63528640Y-122109953D01*
X63546572Y-122094888D01*
X63549193Y-122090617D01*
X63543664Y-122072983D01*
X63517380Y-122055912D01*
X63472162Y-122040178D01*
X63409832Y-122026558D01*
X63391469Y-122023524D01*
X63295550Y-122008458D01*
X63218999Y-121995866D01*
X63158860Y-121984831D01*
X63112180Y-121974440D01*
X63076003Y-121963776D01*
X63047375Y-121951925D01*
X63023342Y-121937971D01*
X63000948Y-121921001D01*
X62977238Y-121900098D01*
X62969260Y-121892769D01*
X62941287Y-121865419D01*
X62926480Y-121843749D01*
X62920688Y-121818952D01*
X62919751Y-121787703D01*
X62930065Y-121726425D01*
X62960888Y-121674360D01*
X63012045Y-121631678D01*
X63083357Y-121598545D01*
X63134240Y-121583684D01*
X63189540Y-121574086D01*
X63255787Y-121568656D01*
X63328934Y-121567087D01*
X63404937Y-121569071D01*
X63404937Y-121569071D01*
G37*
X63404937Y-121569071D02*
X63479752Y-121574301D01*
X63549334Y-121582470D01*
X63609638Y-121593270D01*
X63656620Y-121606393D01*
X63686234Y-121621533D01*
X63690780Y-121625989D01*
X63706586Y-121660570D01*
X63701793Y-121696071D01*
X63677276Y-121726445D01*
X63676106Y-121727316D01*
X63661686Y-121736674D01*
X63646632Y-121741596D01*
X63625635Y-121742193D01*
X63593383Y-121738581D01*
X63544567Y-121730874D01*
X63540640Y-121730225D01*
X63467901Y-121721289D01*
X63389423Y-121716881D01*
X63310713Y-121716839D01*
X63237279Y-121720999D01*
X63174629Y-121729199D01*
X63128270Y-121741277D01*
X63125224Y-121742491D01*
X63091592Y-121761335D01*
X63079776Y-121780405D01*
X63089026Y-121799159D01*
X63118593Y-121817057D01*
X63167729Y-121833557D01*
X63235683Y-121848116D01*
X63280995Y-121855126D01*
X63375184Y-121868609D01*
X63450096Y-121880934D01*
X63508923Y-121893169D01*
X63554855Y-121906381D01*
X63591085Y-121921637D01*
X63620802Y-121940005D01*
X63647198Y-121962551D01*
X63668410Y-121984691D01*
X63693575Y-122015539D01*
X63705959Y-122042065D01*
X63709832Y-122074746D01*
X63709973Y-122086715D01*
X63707064Y-122126432D01*
X63695438Y-122155979D01*
X63675317Y-122182206D01*
X63634424Y-122222296D01*
X63588823Y-122252869D01*
X63535127Y-122274923D01*
X63469948Y-122289455D01*
X63389896Y-122297461D01*
X63291583Y-122299938D01*
X63275351Y-122299897D01*
X63209791Y-122298538D01*
X63144774Y-122295450D01*
X63087388Y-122291076D01*
X63044718Y-122285860D01*
X63041268Y-122285261D01*
X62998844Y-122275211D01*
X62962860Y-122262516D01*
X62942490Y-122250910D01*
X62923533Y-122220292D01*
X62922213Y-122184638D01*
X62938555Y-122152864D01*
X62942211Y-122149271D01*
X62957325Y-122138596D01*
X62976225Y-122133996D01*
X63005478Y-122134779D01*
X63040989Y-122138847D01*
X63080670Y-122142482D01*
X63136295Y-122145548D01*
X63201234Y-122147773D01*
X63268855Y-122148884D01*
X63286640Y-122148957D01*
X63354512Y-122148684D01*
X63404186Y-122147366D01*
X63440030Y-122144547D01*
X63466416Y-122139770D01*
X63487714Y-122132577D01*
X63500514Y-122126587D01*
X63528640Y-122109953D01*
X63546572Y-122094888D01*
X63549193Y-122090617D01*
X63543664Y-122072983D01*
X63517380Y-122055912D01*
X63472162Y-122040178D01*
X63409832Y-122026558D01*
X63391469Y-122023524D01*
X63295550Y-122008458D01*
X63218999Y-121995866D01*
X63158860Y-121984831D01*
X63112180Y-121974440D01*
X63076003Y-121963776D01*
X63047375Y-121951925D01*
X63023342Y-121937971D01*
X63000948Y-121921001D01*
X62977238Y-121900098D01*
X62969260Y-121892769D01*
X62941287Y-121865419D01*
X62926480Y-121843749D01*
X62920688Y-121818952D01*
X62919751Y-121787703D01*
X62930065Y-121726425D01*
X62960888Y-121674360D01*
X63012045Y-121631678D01*
X63083357Y-121598545D01*
X63134240Y-121583684D01*
X63189540Y-121574086D01*
X63255787Y-121568656D01*
X63328934Y-121567087D01*
X63404937Y-121569071D01*
G36*
X62383846Y-121567866D02*
G01*
X62453254Y-121568238D01*
X62505643Y-121569105D01*
X62543793Y-121570666D01*
X62570481Y-121573123D01*
X62588487Y-121576677D01*
X62600591Y-121581530D01*
X62609571Y-121587881D01*
X62612822Y-121590804D01*
X62632597Y-121621862D01*
X62636158Y-121657548D01*
X62623149Y-121689230D01*
X62617134Y-121695633D01*
X62607405Y-121701841D01*
X62591739Y-121706630D01*
X62567232Y-121710234D01*
X62530979Y-121712884D01*
X62480075Y-121714815D01*
X62411614Y-121716259D01*
X62349023Y-121717138D01*
X62101306Y-121720187D01*
X62097921Y-121785098D01*
X62094535Y-121850009D01*
X62262682Y-121850009D01*
X62335681Y-121850639D01*
X62389123Y-121853273D01*
X62426012Y-121859029D01*
X62449352Y-121869024D01*
X62462146Y-121884376D01*
X62467398Y-121906202D01*
X62468195Y-121926458D01*
X62465717Y-121951312D01*
X62456363Y-121969626D01*
X62437257Y-121982357D01*
X62405522Y-121990461D01*
X62358281Y-121994896D01*
X62292657Y-121996619D01*
X62256839Y-121996765D01*
X62095662Y-121996765D01*
X62095662Y-122154809D01*
X62344018Y-122154809D01*
X62425427Y-122154922D01*
X62487298Y-122155432D01*
X62532672Y-122156590D01*
X62564586Y-122158650D01*
X62586081Y-122161866D01*
X62600197Y-122166492D01*
X62609972Y-122172779D01*
X62614951Y-122177387D01*
X62632030Y-122204280D01*
X62637529Y-122228187D01*
X62629677Y-122257387D01*
X62614951Y-122278987D01*
X62607094Y-122285786D01*
X62596952Y-122291066D01*
X62581796Y-122295018D01*
X62558899Y-122297833D01*
X62525531Y-122299702D01*
X62478965Y-122300818D01*
X62416473Y-122301371D01*
X62335326Y-122301553D01*
X62293218Y-122301565D01*
X62203042Y-122301485D01*
X62132716Y-122301118D01*
X62079511Y-122300272D01*
X62040700Y-122298756D01*
X62013553Y-122296379D01*
X61995342Y-122292949D01*
X61983340Y-122288274D01*
X61974818Y-122282164D01*
X61971484Y-122278987D01*
X61964885Y-122271390D01*
X61959713Y-122261590D01*
X61955794Y-122246959D01*
X61952956Y-122224872D01*
X61951025Y-122192702D01*
X61949828Y-122147823D01*
X61949192Y-122087609D01*
X61948943Y-122009433D01*
X61948906Y-121936643D01*
X61948940Y-121843427D01*
X61949175Y-121770151D01*
X61949810Y-121714178D01*
X61951046Y-121672871D01*
X61953084Y-121643592D01*
X61956123Y-121623704D01*
X61960363Y-121610570D01*
X61966005Y-121601552D01*
X61973249Y-121594013D01*
X61975034Y-121592332D01*
X61983695Y-121584892D01*
X61993758Y-121579129D01*
X62008015Y-121574832D01*
X62029257Y-121571784D01*
X62060276Y-121569771D01*
X62103863Y-121568580D01*
X62162809Y-121567995D01*
X62239906Y-121567803D01*
X62294639Y-121567787D01*
X62383846Y-121567866D01*
X62383846Y-121567866D01*
G37*
X62383846Y-121567866D02*
X62453254Y-121568238D01*
X62505643Y-121569105D01*
X62543793Y-121570666D01*
X62570481Y-121573123D01*
X62588487Y-121576677D01*
X62600591Y-121581530D01*
X62609571Y-121587881D01*
X62612822Y-121590804D01*
X62632597Y-121621862D01*
X62636158Y-121657548D01*
X62623149Y-121689230D01*
X62617134Y-121695633D01*
X62607405Y-121701841D01*
X62591739Y-121706630D01*
X62567232Y-121710234D01*
X62530979Y-121712884D01*
X62480075Y-121714815D01*
X62411614Y-121716259D01*
X62349023Y-121717138D01*
X62101306Y-121720187D01*
X62097921Y-121785098D01*
X62094535Y-121850009D01*
X62262682Y-121850009D01*
X62335681Y-121850639D01*
X62389123Y-121853273D01*
X62426012Y-121859029D01*
X62449352Y-121869024D01*
X62462146Y-121884376D01*
X62467398Y-121906202D01*
X62468195Y-121926458D01*
X62465717Y-121951312D01*
X62456363Y-121969626D01*
X62437257Y-121982357D01*
X62405522Y-121990461D01*
X62358281Y-121994896D01*
X62292657Y-121996619D01*
X62256839Y-121996765D01*
X62095662Y-121996765D01*
X62095662Y-122154809D01*
X62344018Y-122154809D01*
X62425427Y-122154922D01*
X62487298Y-122155432D01*
X62532672Y-122156590D01*
X62564586Y-122158650D01*
X62586081Y-122161866D01*
X62600197Y-122166492D01*
X62609972Y-122172779D01*
X62614951Y-122177387D01*
X62632030Y-122204280D01*
X62637529Y-122228187D01*
X62629677Y-122257387D01*
X62614951Y-122278987D01*
X62607094Y-122285786D01*
X62596952Y-122291066D01*
X62581796Y-122295018D01*
X62558899Y-122297833D01*
X62525531Y-122299702D01*
X62478965Y-122300818D01*
X62416473Y-122301371D01*
X62335326Y-122301553D01*
X62293218Y-122301565D01*
X62203042Y-122301485D01*
X62132716Y-122301118D01*
X62079511Y-122300272D01*
X62040700Y-122298756D01*
X62013553Y-122296379D01*
X61995342Y-122292949D01*
X61983340Y-122288274D01*
X61974818Y-122282164D01*
X61971484Y-122278987D01*
X61964885Y-122271390D01*
X61959713Y-122261590D01*
X61955794Y-122246959D01*
X61952956Y-122224872D01*
X61951025Y-122192702D01*
X61949828Y-122147823D01*
X61949192Y-122087609D01*
X61948943Y-122009433D01*
X61948906Y-121936643D01*
X61948940Y-121843427D01*
X61949175Y-121770151D01*
X61949810Y-121714178D01*
X61951046Y-121672871D01*
X61953084Y-121643592D01*
X61956123Y-121623704D01*
X61960363Y-121610570D01*
X61966005Y-121601552D01*
X61973249Y-121594013D01*
X61975034Y-121592332D01*
X61983695Y-121584892D01*
X61993758Y-121579129D01*
X62008015Y-121574832D01*
X62029257Y-121571784D01*
X62060276Y-121569771D01*
X62103863Y-121568580D01*
X62162809Y-121567995D01*
X62239906Y-121567803D01*
X62294639Y-121567787D01*
X62383846Y-121567866D01*
G36*
X60975269Y-121567786D02*
G01*
X61014751Y-121568187D01*
X61130440Y-121570979D01*
X61227329Y-121579270D01*
X61308721Y-121593952D01*
X61377917Y-121615913D01*
X61438220Y-121646042D01*
X61492932Y-121685230D01*
X61512473Y-121702252D01*
X61544890Y-121742083D01*
X61574120Y-121796133D01*
X61596649Y-121856043D01*
X61608961Y-121913459D01*
X61610240Y-121934676D01*
X61602223Y-121993489D01*
X61580741Y-122057733D01*
X61549641Y-122118541D01*
X61512774Y-122167050D01*
X61506786Y-122172902D01*
X61456061Y-122214041D01*
X61400515Y-122246155D01*
X61336944Y-122270085D01*
X61262146Y-122286673D01*
X61172918Y-122296761D01*
X61066058Y-122301189D01*
X61017112Y-122301565D01*
X60954878Y-122301265D01*
X60911112Y-122300012D01*
X60881709Y-122297274D01*
X60862561Y-122292521D01*
X60849563Y-122285221D01*
X60842595Y-122278987D01*
X60836014Y-122271414D01*
X60830852Y-122261644D01*
X60826937Y-122247060D01*
X60824097Y-122225046D01*
X60822160Y-122192984D01*
X60820956Y-122148256D01*
X60820312Y-122088246D01*
X60820057Y-122010337D01*
X60820018Y-121934676D01*
X60819770Y-121833761D01*
X60819823Y-121753147D01*
X60820783Y-121714542D01*
X60966773Y-121714542D01*
X60966773Y-122154809D01*
X61059906Y-122154724D01*
X61115947Y-122153116D01*
X61174641Y-122148976D01*
X61223612Y-122143184D01*
X61225102Y-122142946D01*
X61304248Y-122123810D01*
X61365638Y-122094007D01*
X61412335Y-122051598D01*
X61442005Y-122005681D01*
X61460287Y-121954746D01*
X61458869Y-121906920D01*
X61437652Y-121855653D01*
X61396151Y-121802619D01*
X61338642Y-121763320D01*
X61263890Y-121737051D01*
X61213932Y-121727755D01*
X61157224Y-121721227D01*
X61097121Y-121716502D01*
X61046001Y-121714537D01*
X61042973Y-121714528D01*
X60966773Y-121714542D01*
X60820783Y-121714542D01*
X60821380Y-121690571D01*
X60825642Y-121643775D01*
X60833810Y-121610498D01*
X60847084Y-121588479D01*
X60866666Y-121575459D01*
X60893757Y-121569177D01*
X60929558Y-121567373D01*
X60975269Y-121567786D01*
X60975269Y-121567786D01*
G37*
X60975269Y-121567786D02*
X61014751Y-121568187D01*
X61130440Y-121570979D01*
X61227329Y-121579270D01*
X61308721Y-121593952D01*
X61377917Y-121615913D01*
X61438220Y-121646042D01*
X61492932Y-121685230D01*
X61512473Y-121702252D01*
X61544890Y-121742083D01*
X61574120Y-121796133D01*
X61596649Y-121856043D01*
X61608961Y-121913459D01*
X61610240Y-121934676D01*
X61602223Y-121993489D01*
X61580741Y-122057733D01*
X61549641Y-122118541D01*
X61512774Y-122167050D01*
X61506786Y-122172902D01*
X61456061Y-122214041D01*
X61400515Y-122246155D01*
X61336944Y-122270085D01*
X61262146Y-122286673D01*
X61172918Y-122296761D01*
X61066058Y-122301189D01*
X61017112Y-122301565D01*
X60954878Y-122301265D01*
X60911112Y-122300012D01*
X60881709Y-122297274D01*
X60862561Y-122292521D01*
X60849563Y-122285221D01*
X60842595Y-122278987D01*
X60836014Y-122271414D01*
X60830852Y-122261644D01*
X60826937Y-122247060D01*
X60824097Y-122225046D01*
X60822160Y-122192984D01*
X60820956Y-122148256D01*
X60820312Y-122088246D01*
X60820057Y-122010337D01*
X60820018Y-121934676D01*
X60819770Y-121833761D01*
X60819823Y-121753147D01*
X60820783Y-121714542D01*
X60966773Y-121714542D01*
X60966773Y-122154809D01*
X61059906Y-122154724D01*
X61115947Y-122153116D01*
X61174641Y-122148976D01*
X61223612Y-122143184D01*
X61225102Y-122142946D01*
X61304248Y-122123810D01*
X61365638Y-122094007D01*
X61412335Y-122051598D01*
X61442005Y-122005681D01*
X61460287Y-121954746D01*
X61458869Y-121906920D01*
X61437652Y-121855653D01*
X61396151Y-121802619D01*
X61338642Y-121763320D01*
X61263890Y-121737051D01*
X61213932Y-121727755D01*
X61157224Y-121721227D01*
X61097121Y-121716502D01*
X61046001Y-121714537D01*
X61042973Y-121714528D01*
X60966773Y-121714542D01*
X60820783Y-121714542D01*
X60821380Y-121690571D01*
X60825642Y-121643775D01*
X60833810Y-121610498D01*
X60847084Y-121588479D01*
X60866666Y-121575459D01*
X60893757Y-121569177D01*
X60929558Y-121567373D01*
X60975269Y-121567786D01*
G36*
X64823597Y-116325291D02*
G01*
X64919872Y-116349529D01*
X65006456Y-116392361D01*
X65081267Y-116452139D01*
X65142222Y-116527214D01*
X65187241Y-116615940D01*
X65213504Y-116712250D01*
X65219354Y-116809515D01*
X65204500Y-116903374D01*
X65170800Y-116991231D01*
X65120112Y-117070490D01*
X65054295Y-117138556D01*
X64975206Y-117192832D01*
X64884706Y-117230722D01*
X64833440Y-117243146D01*
X64788942Y-117250667D01*
X64754641Y-117253639D01*
X64721680Y-117251814D01*
X64681206Y-117244945D01*
X64648109Y-117237970D01*
X64554693Y-117206461D01*
X64471021Y-117155337D01*
X64398975Y-117086149D01*
X64340440Y-117000448D01*
X64326492Y-116973209D01*
X64310054Y-116936842D01*
X64299746Y-116906302D01*
X64294180Y-116874170D01*
X64291971Y-116833027D01*
X64291692Y-116786942D01*
X64295779Y-116702585D01*
X64309194Y-116633306D01*
X64334384Y-116572681D01*
X64373794Y-116514287D01*
X64412342Y-116470022D01*
X64484234Y-116404204D01*
X64559327Y-116358773D01*
X64642078Y-116331570D01*
X64719712Y-116321296D01*
X64823597Y-116325291D01*
X64823597Y-116325291D01*
G37*
X64823597Y-116325291D02*
X64919872Y-116349529D01*
X65006456Y-116392361D01*
X65081267Y-116452139D01*
X65142222Y-116527214D01*
X65187241Y-116615940D01*
X65213504Y-116712250D01*
X65219354Y-116809515D01*
X65204500Y-116903374D01*
X65170800Y-116991231D01*
X65120112Y-117070490D01*
X65054295Y-117138556D01*
X64975206Y-117192832D01*
X64884706Y-117230722D01*
X64833440Y-117243146D01*
X64788942Y-117250667D01*
X64754641Y-117253639D01*
X64721680Y-117251814D01*
X64681206Y-117244945D01*
X64648109Y-117237970D01*
X64554693Y-117206461D01*
X64471021Y-117155337D01*
X64398975Y-117086149D01*
X64340440Y-117000448D01*
X64326492Y-116973209D01*
X64310054Y-116936842D01*
X64299746Y-116906302D01*
X64294180Y-116874170D01*
X64291971Y-116833027D01*
X64291692Y-116786942D01*
X64295779Y-116702585D01*
X64309194Y-116633306D01*
X64334384Y-116572681D01*
X64373794Y-116514287D01*
X64412342Y-116470022D01*
X64484234Y-116404204D01*
X64559327Y-116358773D01*
X64642078Y-116331570D01*
X64719712Y-116321296D01*
X64823597Y-116325291D01*
G36*
X73283147Y-118770965D02*
G01*
X73283166Y-119005382D01*
X73283192Y-119218323D01*
X73283265Y-119410888D01*
X73283422Y-119584179D01*
X73283704Y-119739296D01*
X73284149Y-119877340D01*
X73284796Y-119999412D01*
X73285685Y-120106614D01*
X73286853Y-120200046D01*
X73288341Y-120280810D01*
X73290186Y-120350006D01*
X73292429Y-120408735D01*
X73295109Y-120458099D01*
X73298263Y-120499198D01*
X73301932Y-120533133D01*
X73306153Y-120561006D01*
X73310967Y-120583918D01*
X73316413Y-120602969D01*
X73322528Y-120619260D01*
X73329352Y-120633893D01*
X73336925Y-120647969D01*
X73345285Y-120662588D01*
X73350479Y-120671694D01*
X73384744Y-120732409D01*
X72526595Y-120732409D01*
X72526595Y-120636453D01*
X72525864Y-120593090D01*
X72523912Y-120559925D01*
X72521103Y-120542144D01*
X72519861Y-120540498D01*
X72508439Y-120547382D01*
X72485724Y-120565225D01*
X72463025Y-120584599D01*
X72408440Y-120625334D01*
X72338961Y-120666337D01*
X72261910Y-120703843D01*
X72184605Y-120734084D01*
X72153753Y-120743732D01*
X72085256Y-120758298D01*
X72002404Y-120768259D01*
X71913011Y-120773303D01*
X71824888Y-120773116D01*
X71745847Y-120767386D01*
X71708151Y-120761578D01*
X71570054Y-120723517D01*
X71442753Y-120665793D01*
X71326932Y-120588931D01*
X71223277Y-120493459D01*
X71132473Y-120379899D01*
X71065671Y-120269101D01*
X71010804Y-120152345D01*
X70968803Y-120032996D01*
X70938807Y-119907003D01*
X70919951Y-119770314D01*
X70911372Y-119618878D01*
X70910646Y-119541431D01*
X70912740Y-119484654D01*
X71741857Y-119484654D01*
X71742064Y-119577722D01*
X71744977Y-119665412D01*
X71750640Y-119742492D01*
X71759095Y-119803729D01*
X71761678Y-119816070D01*
X71793480Y-119923353D01*
X71835138Y-120010378D01*
X71887003Y-120077362D01*
X71949421Y-120124525D01*
X72022740Y-120152085D01*
X72107309Y-120160261D01*
X72203475Y-120149271D01*
X72266951Y-120133549D01*
X72316094Y-120115359D01*
X72370223Y-120089511D01*
X72410884Y-120065809D01*
X72481440Y-120019441D01*
X72481440Y-118869250D01*
X72414032Y-118825682D01*
X72335507Y-118784760D01*
X72251321Y-118758109D01*
X72166197Y-118746185D01*
X72084856Y-118749442D01*
X72012020Y-118768335D01*
X71980066Y-118783904D01*
X71922141Y-118826901D01*
X71873184Y-118883673D01*
X71832030Y-118956295D01*
X71797514Y-119046841D01*
X71768473Y-119157386D01*
X71767192Y-119163253D01*
X71757021Y-119225508D01*
X71749379Y-119303314D01*
X71744310Y-119391440D01*
X71741857Y-119484654D01*
X70912740Y-119484654D01*
X70918497Y-119328615D01*
X70940442Y-119132779D01*
X70976426Y-118954052D01*
X71026399Y-118792565D01*
X71090308Y-118648446D01*
X71168102Y-118521826D01*
X71259729Y-118412835D01*
X71365137Y-118321603D01*
X71410302Y-118290652D01*
X71511251Y-118234505D01*
X71614541Y-118194894D01*
X71724629Y-118170734D01*
X71845970Y-118160939D01*
X71938476Y-118161985D01*
X72068130Y-118172951D01*
X72180724Y-118194766D01*
X72279515Y-118228434D01*
X72367761Y-118274956D01*
X72416626Y-118309168D01*
X72445993Y-118331082D01*
X72467683Y-118346053D01*
X72475893Y-118350453D01*
X72477508Y-118339624D01*
X72478799Y-118308971D01*
X72479778Y-118261246D01*
X72480457Y-118199199D01*
X72480850Y-118125582D01*
X72480970Y-118043147D01*
X72480828Y-117954645D01*
X72480437Y-117862827D01*
X72479811Y-117770444D01*
X72478960Y-117680248D01*
X72477900Y-117594991D01*
X72476641Y-117517423D01*
X72475196Y-117450296D01*
X72473578Y-117396361D01*
X72471801Y-117358370D01*
X72471309Y-117351387D01*
X72463732Y-117280971D01*
X72452171Y-117225822D01*
X72434432Y-117178701D01*
X72408322Y-117132367D01*
X72402055Y-117122787D01*
X72377623Y-117086098D01*
X73282951Y-117086098D01*
X73283147Y-118770965D01*
X73283147Y-118770965D01*
G37*
X73283147Y-118770965D02*
X73283166Y-119005382D01*
X73283192Y-119218323D01*
X73283265Y-119410888D01*
X73283422Y-119584179D01*
X73283704Y-119739296D01*
X73284149Y-119877340D01*
X73284796Y-119999412D01*
X73285685Y-120106614D01*
X73286853Y-120200046D01*
X73288341Y-120280810D01*
X73290186Y-120350006D01*
X73292429Y-120408735D01*
X73295109Y-120458099D01*
X73298263Y-120499198D01*
X73301932Y-120533133D01*
X73306153Y-120561006D01*
X73310967Y-120583918D01*
X73316413Y-120602969D01*
X73322528Y-120619260D01*
X73329352Y-120633893D01*
X73336925Y-120647969D01*
X73345285Y-120662588D01*
X73350479Y-120671694D01*
X73384744Y-120732409D01*
X72526595Y-120732409D01*
X72526595Y-120636453D01*
X72525864Y-120593090D01*
X72523912Y-120559925D01*
X72521103Y-120542144D01*
X72519861Y-120540498D01*
X72508439Y-120547382D01*
X72485724Y-120565225D01*
X72463025Y-120584599D01*
X72408440Y-120625334D01*
X72338961Y-120666337D01*
X72261910Y-120703843D01*
X72184605Y-120734084D01*
X72153753Y-120743732D01*
X72085256Y-120758298D01*
X72002404Y-120768259D01*
X71913011Y-120773303D01*
X71824888Y-120773116D01*
X71745847Y-120767386D01*
X71708151Y-120761578D01*
X71570054Y-120723517D01*
X71442753Y-120665793D01*
X71326932Y-120588931D01*
X71223277Y-120493459D01*
X71132473Y-120379899D01*
X71065671Y-120269101D01*
X71010804Y-120152345D01*
X70968803Y-120032996D01*
X70938807Y-119907003D01*
X70919951Y-119770314D01*
X70911372Y-119618878D01*
X70910646Y-119541431D01*
X70912740Y-119484654D01*
X71741857Y-119484654D01*
X71742064Y-119577722D01*
X71744977Y-119665412D01*
X71750640Y-119742492D01*
X71759095Y-119803729D01*
X71761678Y-119816070D01*
X71793480Y-119923353D01*
X71835138Y-120010378D01*
X71887003Y-120077362D01*
X71949421Y-120124525D01*
X72022740Y-120152085D01*
X72107309Y-120160261D01*
X72203475Y-120149271D01*
X72266951Y-120133549D01*
X72316094Y-120115359D01*
X72370223Y-120089511D01*
X72410884Y-120065809D01*
X72481440Y-120019441D01*
X72481440Y-118869250D01*
X72414032Y-118825682D01*
X72335507Y-118784760D01*
X72251321Y-118758109D01*
X72166197Y-118746185D01*
X72084856Y-118749442D01*
X72012020Y-118768335D01*
X71980066Y-118783904D01*
X71922141Y-118826901D01*
X71873184Y-118883673D01*
X71832030Y-118956295D01*
X71797514Y-119046841D01*
X71768473Y-119157386D01*
X71767192Y-119163253D01*
X71757021Y-119225508D01*
X71749379Y-119303314D01*
X71744310Y-119391440D01*
X71741857Y-119484654D01*
X70912740Y-119484654D01*
X70918497Y-119328615D01*
X70940442Y-119132779D01*
X70976426Y-118954052D01*
X71026399Y-118792565D01*
X71090308Y-118648446D01*
X71168102Y-118521826D01*
X71259729Y-118412835D01*
X71365137Y-118321603D01*
X71410302Y-118290652D01*
X71511251Y-118234505D01*
X71614541Y-118194894D01*
X71724629Y-118170734D01*
X71845970Y-118160939D01*
X71938476Y-118161985D01*
X72068130Y-118172951D01*
X72180724Y-118194766D01*
X72279515Y-118228434D01*
X72367761Y-118274956D01*
X72416626Y-118309168D01*
X72445993Y-118331082D01*
X72467683Y-118346053D01*
X72475893Y-118350453D01*
X72477508Y-118339624D01*
X72478799Y-118308971D01*
X72479778Y-118261246D01*
X72480457Y-118199199D01*
X72480850Y-118125582D01*
X72480970Y-118043147D01*
X72480828Y-117954645D01*
X72480437Y-117862827D01*
X72479811Y-117770444D01*
X72478960Y-117680248D01*
X72477900Y-117594991D01*
X72476641Y-117517423D01*
X72475196Y-117450296D01*
X72473578Y-117396361D01*
X72471801Y-117358370D01*
X72471309Y-117351387D01*
X72463732Y-117280971D01*
X72452171Y-117225822D01*
X72434432Y-117178701D01*
X72408322Y-117132367D01*
X72402055Y-117122787D01*
X72377623Y-117086098D01*
X73282951Y-117086098D01*
X73283147Y-118770965D01*
G36*
X69770214Y-118165272D02*
G01*
X69922132Y-118185287D01*
X70057396Y-118218922D01*
X70176879Y-118266445D01*
X70281455Y-118328125D01*
X70359064Y-118391685D01*
X70427905Y-118465819D01*
X70481646Y-118545591D01*
X70524550Y-118637811D01*
X70540024Y-118680881D01*
X70552884Y-118719862D01*
X70564086Y-118756009D01*
X70573760Y-118791154D01*
X70582036Y-118827130D01*
X70589043Y-118865770D01*
X70594912Y-118908905D01*
X70599771Y-118958369D01*
X70603750Y-119015993D01*
X70606980Y-119083611D01*
X70609589Y-119163054D01*
X70611707Y-119256156D01*
X70613464Y-119364747D01*
X70614989Y-119490662D01*
X70616412Y-119635732D01*
X70617665Y-119778498D01*
X70618991Y-119934688D01*
X70620196Y-120069959D01*
X70621406Y-120185966D01*
X70622746Y-120284365D01*
X70624340Y-120366813D01*
X70626315Y-120434966D01*
X70628796Y-120490480D01*
X70631909Y-120535012D01*
X70635778Y-120570218D01*
X70640529Y-120597754D01*
X70646288Y-120619276D01*
X70653179Y-120636442D01*
X70661329Y-120650906D01*
X70670863Y-120664326D01*
X70681906Y-120678358D01*
X70686206Y-120683791D01*
X70702026Y-120706630D01*
X70709062Y-120722183D01*
X70709084Y-120722642D01*
X70698207Y-120724841D01*
X70667222Y-120726867D01*
X70618597Y-120728662D01*
X70554803Y-120730171D01*
X70478309Y-120731336D01*
X70391584Y-120732100D01*
X70297097Y-120732406D01*
X70286190Y-120732409D01*
X69863297Y-120732409D01*
X69860035Y-120636342D01*
X69856773Y-120540276D01*
X69794684Y-120591263D01*
X69697354Y-120658777D01*
X69587453Y-120713469D01*
X69500989Y-120743698D01*
X69431918Y-120758386D01*
X69348565Y-120768379D01*
X69258799Y-120773366D01*
X69170485Y-120773033D01*
X69091491Y-120767071D01*
X69055262Y-120761358D01*
X68915243Y-120723496D01*
X68788818Y-120668652D01*
X68676900Y-120597644D01*
X68580402Y-120511288D01*
X68500240Y-120410399D01*
X68437327Y-120295796D01*
X68392952Y-120169704D01*
X68380618Y-120113121D01*
X68373008Y-120050922D01*
X68369379Y-119976083D01*
X68368885Y-119942187D01*
X68368950Y-119939002D01*
X69128888Y-119939002D01*
X69138181Y-120014053D01*
X69166368Y-120077880D01*
X69214837Y-120133518D01*
X69219894Y-120137931D01*
X69268188Y-120172757D01*
X69319897Y-120195340D01*
X69380629Y-120207260D01*
X69455992Y-120210103D01*
X69474099Y-120209698D01*
X69527918Y-120207045D01*
X69567948Y-120201629D01*
X69602964Y-120191465D01*
X69641743Y-120174570D01*
X69652385Y-120169392D01*
X69713036Y-120133564D01*
X69759855Y-120090932D01*
X69772592Y-120075693D01*
X69817262Y-120019182D01*
X69817262Y-119823306D01*
X69816726Y-119744659D01*
X69815036Y-119686708D01*
X69812068Y-119647595D01*
X69807697Y-119625461D01*
X69803612Y-119618994D01*
X69787687Y-119615831D01*
X69753904Y-119613208D01*
X69706980Y-119611375D01*
X69651633Y-119610577D01*
X69642746Y-119610562D01*
X69521970Y-119615816D01*
X69419300Y-119631983D01*
X69332746Y-119659681D01*
X69260321Y-119699528D01*
X69205391Y-119746478D01*
X69160844Y-119804365D01*
X69136120Y-119867413D01*
X69128888Y-119939002D01*
X68368950Y-119939002D01*
X68370818Y-119848432D01*
X68379162Y-119769532D01*
X68395408Y-119698310D01*
X68421045Y-119627584D01*
X68445041Y-119575213D01*
X68503660Y-119479916D01*
X68581757Y-119391890D01*
X68676955Y-119312737D01*
X68786878Y-119244060D01*
X68909150Y-119187461D01*
X69041395Y-119144541D01*
X69106062Y-119129602D01*
X69242244Y-119107497D01*
X69390689Y-119092914D01*
X69542145Y-119086533D01*
X69668704Y-119088165D01*
X69830590Y-119094944D01*
X69823170Y-119035965D01*
X69803878Y-118936812D01*
X69772744Y-118856092D01*
X69728909Y-118793186D01*
X69671511Y-118747476D01*
X69599688Y-118718342D01*
X69512581Y-118705167D01*
X69409326Y-118707331D01*
X69371351Y-118711332D01*
X69230160Y-118736500D01*
X69093347Y-118777534D01*
X68998818Y-118815535D01*
X68953658Y-118834910D01*
X68915225Y-118850480D01*
X68888874Y-118860125D01*
X68881186Y-118862172D01*
X68871442Y-118853094D01*
X68854723Y-118824125D01*
X68830872Y-118774937D01*
X68799733Y-118705204D01*
X68761147Y-118614599D01*
X68754550Y-118598809D01*
X68724493Y-118526492D01*
X68697514Y-118461145D01*
X68674776Y-118405626D01*
X68657446Y-118362792D01*
X68646688Y-118335501D01*
X68643581Y-118326662D01*
X68653580Y-118321907D01*
X68679857Y-118316630D01*
X68708129Y-118312951D01*
X68738286Y-118308194D01*
X68786073Y-118298748D01*
X68847252Y-118285540D01*
X68917586Y-118269496D01*
X68992834Y-118251540D01*
X69021395Y-118244517D01*
X69126456Y-118218929D01*
X69214120Y-118198867D01*
X69288708Y-118183689D01*
X69354543Y-118172755D01*
X69415947Y-118165424D01*
X69477242Y-118161055D01*
X69542750Y-118159007D01*
X69600768Y-118158609D01*
X69770214Y-118165272D01*
X69770214Y-118165272D01*
G37*
X69770214Y-118165272D02*
X69922132Y-118185287D01*
X70057396Y-118218922D01*
X70176879Y-118266445D01*
X70281455Y-118328125D01*
X70359064Y-118391685D01*
X70427905Y-118465819D01*
X70481646Y-118545591D01*
X70524550Y-118637811D01*
X70540024Y-118680881D01*
X70552884Y-118719862D01*
X70564086Y-118756009D01*
X70573760Y-118791154D01*
X70582036Y-118827130D01*
X70589043Y-118865770D01*
X70594912Y-118908905D01*
X70599771Y-118958369D01*
X70603750Y-119015993D01*
X70606980Y-119083611D01*
X70609589Y-119163054D01*
X70611707Y-119256156D01*
X70613464Y-119364747D01*
X70614989Y-119490662D01*
X70616412Y-119635732D01*
X70617665Y-119778498D01*
X70618991Y-119934688D01*
X70620196Y-120069959D01*
X70621406Y-120185966D01*
X70622746Y-120284365D01*
X70624340Y-120366813D01*
X70626315Y-120434966D01*
X70628796Y-120490480D01*
X70631909Y-120535012D01*
X70635778Y-120570218D01*
X70640529Y-120597754D01*
X70646288Y-120619276D01*
X70653179Y-120636442D01*
X70661329Y-120650906D01*
X70670863Y-120664326D01*
X70681906Y-120678358D01*
X70686206Y-120683791D01*
X70702026Y-120706630D01*
X70709062Y-120722183D01*
X70709084Y-120722642D01*
X70698207Y-120724841D01*
X70667222Y-120726867D01*
X70618597Y-120728662D01*
X70554803Y-120730171D01*
X70478309Y-120731336D01*
X70391584Y-120732100D01*
X70297097Y-120732406D01*
X70286190Y-120732409D01*
X69863297Y-120732409D01*
X69860035Y-120636342D01*
X69856773Y-120540276D01*
X69794684Y-120591263D01*
X69697354Y-120658777D01*
X69587453Y-120713469D01*
X69500989Y-120743698D01*
X69431918Y-120758386D01*
X69348565Y-120768379D01*
X69258799Y-120773366D01*
X69170485Y-120773033D01*
X69091491Y-120767071D01*
X69055262Y-120761358D01*
X68915243Y-120723496D01*
X68788818Y-120668652D01*
X68676900Y-120597644D01*
X68580402Y-120511288D01*
X68500240Y-120410399D01*
X68437327Y-120295796D01*
X68392952Y-120169704D01*
X68380618Y-120113121D01*
X68373008Y-120050922D01*
X68369379Y-119976083D01*
X68368885Y-119942187D01*
X68368950Y-119939002D01*
X69128888Y-119939002D01*
X69138181Y-120014053D01*
X69166368Y-120077880D01*
X69214837Y-120133518D01*
X69219894Y-120137931D01*
X69268188Y-120172757D01*
X69319897Y-120195340D01*
X69380629Y-120207260D01*
X69455992Y-120210103D01*
X69474099Y-120209698D01*
X69527918Y-120207045D01*
X69567948Y-120201629D01*
X69602964Y-120191465D01*
X69641743Y-120174570D01*
X69652385Y-120169392D01*
X69713036Y-120133564D01*
X69759855Y-120090932D01*
X69772592Y-120075693D01*
X69817262Y-120019182D01*
X69817262Y-119823306D01*
X69816726Y-119744659D01*
X69815036Y-119686708D01*
X69812068Y-119647595D01*
X69807697Y-119625461D01*
X69803612Y-119618994D01*
X69787687Y-119615831D01*
X69753904Y-119613208D01*
X69706980Y-119611375D01*
X69651633Y-119610577D01*
X69642746Y-119610562D01*
X69521970Y-119615816D01*
X69419300Y-119631983D01*
X69332746Y-119659681D01*
X69260321Y-119699528D01*
X69205391Y-119746478D01*
X69160844Y-119804365D01*
X69136120Y-119867413D01*
X69128888Y-119939002D01*
X68368950Y-119939002D01*
X68370818Y-119848432D01*
X68379162Y-119769532D01*
X68395408Y-119698310D01*
X68421045Y-119627584D01*
X68445041Y-119575213D01*
X68503660Y-119479916D01*
X68581757Y-119391890D01*
X68676955Y-119312737D01*
X68786878Y-119244060D01*
X68909150Y-119187461D01*
X69041395Y-119144541D01*
X69106062Y-119129602D01*
X69242244Y-119107497D01*
X69390689Y-119092914D01*
X69542145Y-119086533D01*
X69668704Y-119088165D01*
X69830590Y-119094944D01*
X69823170Y-119035965D01*
X69803878Y-118936812D01*
X69772744Y-118856092D01*
X69728909Y-118793186D01*
X69671511Y-118747476D01*
X69599688Y-118718342D01*
X69512581Y-118705167D01*
X69409326Y-118707331D01*
X69371351Y-118711332D01*
X69230160Y-118736500D01*
X69093347Y-118777534D01*
X68998818Y-118815535D01*
X68953658Y-118834910D01*
X68915225Y-118850480D01*
X68888874Y-118860125D01*
X68881186Y-118862172D01*
X68871442Y-118853094D01*
X68854723Y-118824125D01*
X68830872Y-118774937D01*
X68799733Y-118705204D01*
X68761147Y-118614599D01*
X68754550Y-118598809D01*
X68724493Y-118526492D01*
X68697514Y-118461145D01*
X68674776Y-118405626D01*
X68657446Y-118362792D01*
X68646688Y-118335501D01*
X68643581Y-118326662D01*
X68653580Y-118321907D01*
X68679857Y-118316630D01*
X68708129Y-118312951D01*
X68738286Y-118308194D01*
X68786073Y-118298748D01*
X68847252Y-118285540D01*
X68917586Y-118269496D01*
X68992834Y-118251540D01*
X69021395Y-118244517D01*
X69126456Y-118218929D01*
X69214120Y-118198867D01*
X69288708Y-118183689D01*
X69354543Y-118172755D01*
X69415947Y-118165424D01*
X69477242Y-118161055D01*
X69542750Y-118159007D01*
X69600768Y-118158609D01*
X69770214Y-118165272D01*
G36*
X67425069Y-117247791D02*
G01*
X67585210Y-117268965D01*
X67749150Y-117309105D01*
X67918953Y-117368609D01*
X68096683Y-117447874D01*
X68107950Y-117453419D01*
X68165645Y-117481445D01*
X68217192Y-117505522D01*
X68258831Y-117523969D01*
X68286802Y-117535106D01*
X68296373Y-117537653D01*
X68315590Y-117542661D01*
X68320201Y-117546867D01*
X68315098Y-117557300D01*
X68299058Y-117583588D01*
X68273928Y-117622977D01*
X68241554Y-117672711D01*
X68203783Y-117730035D01*
X68162462Y-117792196D01*
X68119438Y-117856438D01*
X68076557Y-117920005D01*
X68035666Y-117980145D01*
X67998611Y-118034100D01*
X67967240Y-118079117D01*
X67943399Y-118112441D01*
X67928934Y-118131317D01*
X67926949Y-118133507D01*
X67916831Y-118128858D01*
X67894490Y-118111682D01*
X67863920Y-118085160D01*
X67848176Y-118070684D01*
X67751687Y-117995402D01*
X67644976Y-117939961D01*
X67529472Y-117904861D01*
X67406602Y-117890600D01*
X67337201Y-117891771D01*
X67216063Y-117908932D01*
X67106845Y-117944814D01*
X67009222Y-117999679D01*
X66922868Y-118073790D01*
X66847455Y-118167408D01*
X66782658Y-118280796D01*
X66745241Y-118367387D01*
X66701388Y-118503086D01*
X66669068Y-118650570D01*
X66648197Y-118806034D01*
X66638691Y-118965676D01*
X66640467Y-119125693D01*
X66653443Y-119282281D01*
X66677534Y-119431638D01*
X66712658Y-119569960D01*
X66758732Y-119693444D01*
X66775013Y-119727698D01*
X66843260Y-119841784D01*
X66923719Y-119938277D01*
X67015210Y-120016390D01*
X67116551Y-120075337D01*
X67226560Y-120114332D01*
X67344055Y-120132588D01*
X67385523Y-120133931D01*
X67507081Y-120123010D01*
X67627518Y-120090194D01*
X67745306Y-120036159D01*
X67858917Y-119961585D01*
X67950325Y-119883259D01*
X67996855Y-119838728D01*
X68178123Y-120135991D01*
X68223220Y-120210153D01*
X68264459Y-120278366D01*
X68300375Y-120338179D01*
X68329506Y-120387140D01*
X68350390Y-120422799D01*
X68361564Y-120442704D01*
X68363015Y-120445799D01*
X68354786Y-120455438D01*
X68329207Y-120472719D01*
X68289513Y-120496003D01*
X68238937Y-120523654D01*
X68180714Y-120554035D01*
X68118077Y-120585510D01*
X68054261Y-120616442D01*
X67992500Y-120645193D01*
X67936028Y-120670128D01*
X67888078Y-120689609D01*
X67864626Y-120698038D01*
X67730861Y-120735853D01*
X67592967Y-120760856D01*
X67445262Y-120773860D01*
X67318473Y-120776188D01*
X67250518Y-120775093D01*
X67184917Y-120772995D01*
X67127487Y-120770154D01*
X67084043Y-120766826D01*
X67069938Y-120765142D01*
X66930924Y-120736307D01*
X66789397Y-120691188D01*
X66651915Y-120632470D01*
X66525034Y-120562840D01*
X66447529Y-120510161D01*
X66320121Y-120401959D01*
X66201818Y-120275391D01*
X66094812Y-120133586D01*
X66001292Y-119979671D01*
X65923450Y-119816773D01*
X65879596Y-119699476D01*
X65829348Y-119515848D01*
X65795849Y-119321301D01*
X65779089Y-119120045D01*
X65779056Y-118916288D01*
X65795741Y-118714241D01*
X65829133Y-118518112D01*
X65879220Y-118332111D01*
X65883037Y-118320523D01*
X65945921Y-118158470D01*
X66022668Y-118010552D01*
X66115882Y-117872585D01*
X66228167Y-117740381D01*
X66272032Y-117695119D01*
X66408174Y-117571177D01*
X66548131Y-117468635D01*
X66694051Y-117386376D01*
X66848082Y-117323284D01*
X67012372Y-117278243D01*
X67107929Y-117260753D01*
X67266663Y-117245186D01*
X67425069Y-117247791D01*
X67425069Y-117247791D01*
G37*
X67425069Y-117247791D02*
X67585210Y-117268965D01*
X67749150Y-117309105D01*
X67918953Y-117368609D01*
X68096683Y-117447874D01*
X68107950Y-117453419D01*
X68165645Y-117481445D01*
X68217192Y-117505522D01*
X68258831Y-117523969D01*
X68286802Y-117535106D01*
X68296373Y-117537653D01*
X68315590Y-117542661D01*
X68320201Y-117546867D01*
X68315098Y-117557300D01*
X68299058Y-117583588D01*
X68273928Y-117622977D01*
X68241554Y-117672711D01*
X68203783Y-117730035D01*
X68162462Y-117792196D01*
X68119438Y-117856438D01*
X68076557Y-117920005D01*
X68035666Y-117980145D01*
X67998611Y-118034100D01*
X67967240Y-118079117D01*
X67943399Y-118112441D01*
X67928934Y-118131317D01*
X67926949Y-118133507D01*
X67916831Y-118128858D01*
X67894490Y-118111682D01*
X67863920Y-118085160D01*
X67848176Y-118070684D01*
X67751687Y-117995402D01*
X67644976Y-117939961D01*
X67529472Y-117904861D01*
X67406602Y-117890600D01*
X67337201Y-117891771D01*
X67216063Y-117908932D01*
X67106845Y-117944814D01*
X67009222Y-117999679D01*
X66922868Y-118073790D01*
X66847455Y-118167408D01*
X66782658Y-118280796D01*
X66745241Y-118367387D01*
X66701388Y-118503086D01*
X66669068Y-118650570D01*
X66648197Y-118806034D01*
X66638691Y-118965676D01*
X66640467Y-119125693D01*
X66653443Y-119282281D01*
X66677534Y-119431638D01*
X66712658Y-119569960D01*
X66758732Y-119693444D01*
X66775013Y-119727698D01*
X66843260Y-119841784D01*
X66923719Y-119938277D01*
X67015210Y-120016390D01*
X67116551Y-120075337D01*
X67226560Y-120114332D01*
X67344055Y-120132588D01*
X67385523Y-120133931D01*
X67507081Y-120123010D01*
X67627518Y-120090194D01*
X67745306Y-120036159D01*
X67858917Y-119961585D01*
X67950325Y-119883259D01*
X67996855Y-119838728D01*
X68178123Y-120135991D01*
X68223220Y-120210153D01*
X68264459Y-120278366D01*
X68300375Y-120338179D01*
X68329506Y-120387140D01*
X68350390Y-120422799D01*
X68361564Y-120442704D01*
X68363015Y-120445799D01*
X68354786Y-120455438D01*
X68329207Y-120472719D01*
X68289513Y-120496003D01*
X68238937Y-120523654D01*
X68180714Y-120554035D01*
X68118077Y-120585510D01*
X68054261Y-120616442D01*
X67992500Y-120645193D01*
X67936028Y-120670128D01*
X67888078Y-120689609D01*
X67864626Y-120698038D01*
X67730861Y-120735853D01*
X67592967Y-120760856D01*
X67445262Y-120773860D01*
X67318473Y-120776188D01*
X67250518Y-120775093D01*
X67184917Y-120772995D01*
X67127487Y-120770154D01*
X67084043Y-120766826D01*
X67069938Y-120765142D01*
X66930924Y-120736307D01*
X66789397Y-120691188D01*
X66651915Y-120632470D01*
X66525034Y-120562840D01*
X66447529Y-120510161D01*
X66320121Y-120401959D01*
X66201818Y-120275391D01*
X66094812Y-120133586D01*
X66001292Y-119979671D01*
X65923450Y-119816773D01*
X65879596Y-119699476D01*
X65829348Y-119515848D01*
X65795849Y-119321301D01*
X65779089Y-119120045D01*
X65779056Y-118916288D01*
X65795741Y-118714241D01*
X65829133Y-118518112D01*
X65879220Y-118332111D01*
X65883037Y-118320523D01*
X65945921Y-118158470D01*
X66022668Y-118010552D01*
X66115882Y-117872585D01*
X66228167Y-117740381D01*
X66272032Y-117695119D01*
X66408174Y-117571177D01*
X66548131Y-117468635D01*
X66694051Y-117386376D01*
X66848082Y-117323284D01*
X67012372Y-117278243D01*
X67107929Y-117260753D01*
X67266663Y-117245186D01*
X67425069Y-117247791D01*
G36*
X64150240Y-116787774D02*
G01*
X64161105Y-116901713D01*
X64192722Y-117009336D01*
X64243625Y-117108335D01*
X64312347Y-117196404D01*
X64397421Y-117271236D01*
X64494408Y-117329104D01*
X64600676Y-117368725D01*
X64707690Y-117387293D01*
X64813340Y-117386154D01*
X64915515Y-117366650D01*
X65012106Y-117330126D01*
X65101002Y-117277925D01*
X65180094Y-117211393D01*
X65247271Y-117131872D01*
X65300423Y-117040707D01*
X65337441Y-116939243D01*
X65356213Y-116828822D01*
X65358151Y-116778926D01*
X65358151Y-116690987D01*
X65410080Y-116690987D01*
X65446387Y-116693831D01*
X65473285Y-116705631D01*
X65500391Y-116729369D01*
X65538773Y-116767751D01*
X65538773Y-118959322D01*
X65538764Y-119221459D01*
X65538732Y-119461961D01*
X65538668Y-119681768D01*
X65538564Y-119881821D01*
X65538413Y-120063064D01*
X65538206Y-120226436D01*
X65537934Y-120372880D01*
X65537590Y-120503337D01*
X65537166Y-120618749D01*
X65536653Y-120720058D01*
X65536043Y-120808204D01*
X65535328Y-120884130D01*
X65534500Y-120948777D01*
X65533551Y-121003087D01*
X65532473Y-121048000D01*
X65531257Y-121084460D01*
X65529895Y-121113407D01*
X65528379Y-121135783D01*
X65526702Y-121152529D01*
X65524854Y-121164588D01*
X65522827Y-121172900D01*
X65520615Y-121178407D01*
X65519532Y-121180257D01*
X65515369Y-121187269D01*
X65511835Y-121193716D01*
X65508005Y-121199620D01*
X65502958Y-121205006D01*
X65495769Y-121209898D01*
X65485517Y-121214318D01*
X65471276Y-121218292D01*
X65452126Y-121221841D01*
X65427141Y-121224990D01*
X65395400Y-121227762D01*
X65355978Y-121230181D01*
X65307954Y-121232271D01*
X65250403Y-121234055D01*
X65182403Y-121235557D01*
X65103030Y-121236800D01*
X65011361Y-121237809D01*
X64906474Y-121238605D01*
X64787444Y-121239214D01*
X64653350Y-121239659D01*
X64503267Y-121239963D01*
X64336273Y-121240150D01*
X64151444Y-121240244D01*
X63947857Y-121240268D01*
X63724590Y-121240245D01*
X63480718Y-121240200D01*
X63215319Y-121240157D01*
X63176936Y-121240152D01*
X62909958Y-121240109D01*
X62664638Y-121240038D01*
X62440057Y-121239933D01*
X62235295Y-121239786D01*
X62049434Y-121239589D01*
X61881552Y-121239336D01*
X61730732Y-121239020D01*
X61596053Y-121238633D01*
X61476596Y-121238167D01*
X61371441Y-121237617D01*
X61279669Y-121236973D01*
X61200361Y-121236231D01*
X61132597Y-121235381D01*
X61075458Y-121234417D01*
X61028023Y-121233331D01*
X60989374Y-121232117D01*
X60958591Y-121230767D01*
X60934755Y-121229275D01*
X60916946Y-121227631D01*
X60904245Y-121225831D01*
X60895732Y-121223865D01*
X60891374Y-121222197D01*
X60882912Y-121218626D01*
X60875143Y-121215990D01*
X60868038Y-121213354D01*
X60861567Y-121209782D01*
X60855701Y-121204341D01*
X60850411Y-121196095D01*
X60845666Y-121184110D01*
X60841438Y-121167451D01*
X60837697Y-121145183D01*
X60834413Y-121116372D01*
X60831557Y-121080083D01*
X60829100Y-121035381D01*
X60827011Y-120981331D01*
X60825262Y-120916999D01*
X60823823Y-120841450D01*
X60822664Y-120753750D01*
X60821757Y-120652963D01*
X60821071Y-120538154D01*
X60820577Y-120408390D01*
X60820245Y-120262735D01*
X60820047Y-120100255D01*
X60819953Y-119920015D01*
X60819932Y-119721080D01*
X60819955Y-119502516D01*
X60819994Y-119263388D01*
X60820018Y-119002760D01*
X60820018Y-118960609D01*
X60820004Y-118697712D01*
X60819979Y-118456452D01*
X60819969Y-118235885D01*
X60819998Y-118035072D01*
X60820092Y-117853069D01*
X60820278Y-117688936D01*
X60820581Y-117541731D01*
X60821026Y-117410512D01*
X60821606Y-117300587D01*
X61124443Y-117300587D01*
X61164233Y-117358431D01*
X61175404Y-117374199D01*
X61185474Y-117388161D01*
X61194502Y-117401504D01*
X61202543Y-117415413D01*
X61209654Y-117431076D01*
X61215893Y-117449678D01*
X61221315Y-117472406D01*
X61225978Y-117500447D01*
X61229939Y-117534987D01*
X61233255Y-117577212D01*
X61235981Y-117628309D01*
X61238176Y-117689464D01*
X61239895Y-117761864D01*
X61241196Y-117846695D01*
X61242135Y-117945142D01*
X61242770Y-118058394D01*
X61243156Y-118187636D01*
X61243352Y-118334054D01*
X61243413Y-118498836D01*
X61243397Y-118683167D01*
X61243360Y-118888233D01*
X61243351Y-119010853D01*
X61243375Y-119227802D01*
X61243409Y-119423362D01*
X61243397Y-119598719D01*
X61243282Y-119755061D01*
X61243010Y-119893577D01*
X61242522Y-120015454D01*
X61241764Y-120121880D01*
X61240678Y-120214042D01*
X61239209Y-120293129D01*
X61237300Y-120360328D01*
X61234896Y-120416827D01*
X61231939Y-120463813D01*
X61228374Y-120502475D01*
X61224145Y-120534000D01*
X61219194Y-120559575D01*
X61213467Y-120580390D01*
X61206907Y-120597631D01*
X61199457Y-120612485D01*
X61191061Y-120626142D01*
X61181664Y-120639789D01*
X61171208Y-120654613D01*
X61165117Y-120663503D01*
X61126344Y-120721120D01*
X61657908Y-120721120D01*
X61781157Y-120721085D01*
X61883653Y-120720935D01*
X61967220Y-120720598D01*
X62033684Y-120720006D01*
X62084869Y-120719087D01*
X62122599Y-120717771D01*
X62148700Y-120715989D01*
X62164996Y-120713671D01*
X62173312Y-120710746D01*
X62175472Y-120707144D01*
X62173301Y-120702795D01*
X62172105Y-120701365D01*
X62146955Y-120664293D01*
X62121057Y-120611492D01*
X62097448Y-120549490D01*
X62089179Y-120523077D01*
X62084562Y-120505136D01*
X62080661Y-120484075D01*
X62077392Y-120457809D01*
X62074674Y-120424252D01*
X62072425Y-120381319D01*
X62070563Y-120326924D01*
X62069004Y-120258982D01*
X62067668Y-120175408D01*
X62066471Y-120074115D01*
X62065332Y-119953020D01*
X62064955Y-119908320D01*
X62063938Y-119783169D01*
X62063180Y-119678802D01*
X62062737Y-119593427D01*
X62062670Y-119525253D01*
X62063035Y-119472485D01*
X62063892Y-119433334D01*
X62065299Y-119406005D01*
X62067315Y-119388706D01*
X62069997Y-119379646D01*
X62073404Y-119377032D01*
X62077596Y-119379071D01*
X62082069Y-119383387D01*
X62092424Y-119396322D01*
X62114482Y-119425396D01*
X62146683Y-119468479D01*
X62187466Y-119523438D01*
X62235270Y-119588143D01*
X62288535Y-119660462D01*
X62345700Y-119738264D01*
X62405203Y-119819418D01*
X62465485Y-119901792D01*
X62524985Y-119983256D01*
X62582142Y-120061677D01*
X62635395Y-120134924D01*
X62683183Y-120200867D01*
X62723947Y-120257374D01*
X62756124Y-120302313D01*
X62778155Y-120333554D01*
X62782723Y-120340186D01*
X62805644Y-120377089D01*
X62832452Y-120425079D01*
X62857851Y-120474617D01*
X62861072Y-120481297D01*
X62882750Y-120529492D01*
X62895336Y-120567054D01*
X62901066Y-120602880D01*
X62902184Y-120644920D01*
X62901550Y-120721120D01*
X64055989Y-120721120D01*
X63964825Y-120627389D01*
X63918028Y-120577495D01*
X63867741Y-120521015D01*
X63821696Y-120466746D01*
X63801271Y-120441393D01*
X63770833Y-120401848D01*
X63730778Y-120348636D01*
X63682279Y-120283387D01*
X63626505Y-120207731D01*
X63564629Y-120123297D01*
X63497821Y-120031714D01*
X63427253Y-119934612D01*
X63354095Y-119833621D01*
X63279519Y-119730370D01*
X63204696Y-119626488D01*
X63130797Y-119523605D01*
X63058994Y-119423351D01*
X62990456Y-119327356D01*
X62926356Y-119237247D01*
X62867865Y-119154656D01*
X62816154Y-119081212D01*
X62772393Y-119018544D01*
X62737755Y-118968281D01*
X62713410Y-118932054D01*
X62700529Y-118911491D01*
X62698771Y-118907388D01*
X62706730Y-118896062D01*
X62727525Y-118868882D01*
X62759793Y-118827549D01*
X62802170Y-118773764D01*
X62853293Y-118709226D01*
X62911799Y-118635638D01*
X62976326Y-118554698D01*
X63045509Y-118468108D01*
X63117987Y-118377568D01*
X63192394Y-118284780D01*
X63252123Y-118210422D01*
X64263129Y-118210422D01*
X64269038Y-118223379D01*
X64283368Y-118245628D01*
X64284415Y-118247111D01*
X64303202Y-118277264D01*
X64322849Y-118314095D01*
X64326748Y-118322231D01*
X64330284Y-118330660D01*
X64333410Y-118340779D01*
X64336154Y-118353980D01*
X64338548Y-118371658D01*
X64340621Y-118395204D01*
X64342405Y-118426013D01*
X64343928Y-118465477D01*
X64345221Y-118514989D01*
X64346314Y-118575943D01*
X64347237Y-118649731D01*
X64348021Y-118737748D01*
X64348695Y-118841385D01*
X64349290Y-118962036D01*
X64349835Y-119101094D01*
X64350361Y-119259952D01*
X64350895Y-119438809D01*
X64351434Y-119623927D01*
X64351868Y-119787865D01*
X64352131Y-119932023D01*
X64352156Y-120057799D01*
X64351875Y-120166591D01*
X64351221Y-120259797D01*
X64350126Y-120338817D01*
X64348522Y-120405048D01*
X64346343Y-120459890D01*
X64343521Y-120504741D01*
X64339989Y-120540998D01*
X64335679Y-120570061D01*
X64330523Y-120593329D01*
X64324455Y-120612199D01*
X64317407Y-120628071D01*
X64309311Y-120642342D01*
X64300100Y-120656411D01*
X64291600Y-120668878D01*
X64274464Y-120695172D01*
X64264318Y-120712757D01*
X64263129Y-120715977D01*
X64274036Y-120717054D01*
X64305229Y-120718055D01*
X64354417Y-120718955D01*
X64419307Y-120719730D01*
X64497610Y-120720357D01*
X64587033Y-120720811D01*
X64685284Y-120721069D01*
X64754195Y-120721120D01*
X64859188Y-120720900D01*
X64956030Y-120720268D01*
X65042533Y-120719269D01*
X65116508Y-120717947D01*
X65175766Y-120716346D01*
X65218120Y-120714511D01*
X65241380Y-120712485D01*
X65245262Y-120711213D01*
X65237564Y-120696311D01*
X65229566Y-120688280D01*
X65216394Y-120671154D01*
X65199155Y-120640903D01*
X65187233Y-120616342D01*
X65160595Y-120557431D01*
X65157520Y-119380565D01*
X65154445Y-118203698D01*
X64708787Y-118203698D01*
X64610970Y-118203862D01*
X64520576Y-118204331D01*
X64440010Y-118205067D01*
X64371678Y-118206036D01*
X64317984Y-118207200D01*
X64281335Y-118208523D01*
X64264136Y-118209969D01*
X64263129Y-118210422D01*
X63252123Y-118210422D01*
X63267370Y-118191442D01*
X63341550Y-118099257D01*
X63413571Y-118009924D01*
X63482071Y-117925144D01*
X63545685Y-117846618D01*
X63603052Y-117776046D01*
X63652807Y-117715129D01*
X63693588Y-117665567D01*
X63710752Y-117644898D01*
X63797044Y-117544236D01*
X63873643Y-117460979D01*
X63942457Y-117393158D01*
X64005392Y-117338809D01*
X64014773Y-117331442D01*
X64054284Y-117300837D01*
X62922524Y-117300587D01*
X62927813Y-117348564D01*
X62924510Y-117405908D01*
X62902979Y-117474183D01*
X62863005Y-117553932D01*
X62817697Y-117626215D01*
X62801479Y-117648860D01*
X62773426Y-117686416D01*
X62735210Y-117736741D01*
X62688503Y-117797693D01*
X62634979Y-117867131D01*
X62576309Y-117942914D01*
X62514165Y-118022900D01*
X62450219Y-118104948D01*
X62386145Y-118186916D01*
X62323613Y-118266663D01*
X62264297Y-118342047D01*
X62209869Y-118410927D01*
X62162001Y-118471162D01*
X62122365Y-118520609D01*
X62092634Y-118557128D01*
X62074479Y-118578578D01*
X62071420Y-118581876D01*
X62068561Y-118573869D01*
X62066347Y-118543575D01*
X62064783Y-118491276D01*
X62063873Y-118417251D01*
X62063620Y-118321783D01*
X62064027Y-118205154D01*
X62064936Y-118085165D01*
X62066258Y-117953053D01*
X62067783Y-117841314D01*
X62069759Y-117747745D01*
X62072434Y-117670139D01*
X62076058Y-117606294D01*
X62080879Y-117554003D01*
X62087146Y-117511064D01*
X62095108Y-117475271D01*
X62105013Y-117444420D01*
X62117109Y-117416306D01*
X62131647Y-117388725D01*
X62146329Y-117363686D01*
X62184326Y-117300587D01*
X61124443Y-117300587D01*
X60821606Y-117300587D01*
X60821639Y-117294337D01*
X60822445Y-117192264D01*
X60823470Y-117103353D01*
X60824740Y-117026661D01*
X60826280Y-116961247D01*
X60828116Y-116906169D01*
X60830273Y-116860485D01*
X60832777Y-116823254D01*
X60835653Y-116793533D01*
X60838927Y-116770382D01*
X60842625Y-116752859D01*
X60846771Y-116740021D01*
X60851393Y-116730928D01*
X60856514Y-116724638D01*
X60862162Y-116720208D01*
X60868361Y-116716698D01*
X60875136Y-116713165D01*
X60881132Y-116709596D01*
X60886365Y-116707020D01*
X60894541Y-116704692D01*
X60906754Y-116702598D01*
X60924099Y-116700727D01*
X60947671Y-116699067D01*
X60978563Y-116697604D01*
X61017872Y-116696328D01*
X61066690Y-116695224D01*
X61126113Y-116694281D01*
X61197236Y-116693487D01*
X61281152Y-116692829D01*
X61378957Y-116692295D01*
X61491746Y-116691873D01*
X61620611Y-116691549D01*
X61766649Y-116691312D01*
X61930954Y-116691150D01*
X62114620Y-116691050D01*
X62318743Y-116691000D01*
X62529887Y-116690987D01*
X64150240Y-116690987D01*
X64150240Y-116787774D01*
X64150240Y-116787774D01*
G37*
X64150240Y-116787774D02*
X64161105Y-116901713D01*
X64192722Y-117009336D01*
X64243625Y-117108335D01*
X64312347Y-117196404D01*
X64397421Y-117271236D01*
X64494408Y-117329104D01*
X64600676Y-117368725D01*
X64707690Y-117387293D01*
X64813340Y-117386154D01*
X64915515Y-117366650D01*
X65012106Y-117330126D01*
X65101002Y-117277925D01*
X65180094Y-117211393D01*
X65247271Y-117131872D01*
X65300423Y-117040707D01*
X65337441Y-116939243D01*
X65356213Y-116828822D01*
X65358151Y-116778926D01*
X65358151Y-116690987D01*
X65410080Y-116690987D01*
X65446387Y-116693831D01*
X65473285Y-116705631D01*
X65500391Y-116729369D01*
X65538773Y-116767751D01*
X65538773Y-118959322D01*
X65538764Y-119221459D01*
X65538732Y-119461961D01*
X65538668Y-119681768D01*
X65538564Y-119881821D01*
X65538413Y-120063064D01*
X65538206Y-120226436D01*
X65537934Y-120372880D01*
X65537590Y-120503337D01*
X65537166Y-120618749D01*
X65536653Y-120720058D01*
X65536043Y-120808204D01*
X65535328Y-120884130D01*
X65534500Y-120948777D01*
X65533551Y-121003087D01*
X65532473Y-121048000D01*
X65531257Y-121084460D01*
X65529895Y-121113407D01*
X65528379Y-121135783D01*
X65526702Y-121152529D01*
X65524854Y-121164588D01*
X65522827Y-121172900D01*
X65520615Y-121178407D01*
X65519532Y-121180257D01*
X65515369Y-121187269D01*
X65511835Y-121193716D01*
X65508005Y-121199620D01*
X65502958Y-121205006D01*
X65495769Y-121209898D01*
X65485517Y-121214318D01*
X65471276Y-121218292D01*
X65452126Y-121221841D01*
X65427141Y-121224990D01*
X65395400Y-121227762D01*
X65355978Y-121230181D01*
X65307954Y-121232271D01*
X65250403Y-121234055D01*
X65182403Y-121235557D01*
X65103030Y-121236800D01*
X65011361Y-121237809D01*
X64906474Y-121238605D01*
X64787444Y-121239214D01*
X64653350Y-121239659D01*
X64503267Y-121239963D01*
X64336273Y-121240150D01*
X64151444Y-121240244D01*
X63947857Y-121240268D01*
X63724590Y-121240245D01*
X63480718Y-121240200D01*
X63215319Y-121240157D01*
X63176936Y-121240152D01*
X62909958Y-121240109D01*
X62664638Y-121240038D01*
X62440057Y-121239933D01*
X62235295Y-121239786D01*
X62049434Y-121239589D01*
X61881552Y-121239336D01*
X61730732Y-121239020D01*
X61596053Y-121238633D01*
X61476596Y-121238167D01*
X61371441Y-121237617D01*
X61279669Y-121236973D01*
X61200361Y-121236231D01*
X61132597Y-121235381D01*
X61075458Y-121234417D01*
X61028023Y-121233331D01*
X60989374Y-121232117D01*
X60958591Y-121230767D01*
X60934755Y-121229275D01*
X60916946Y-121227631D01*
X60904245Y-121225831D01*
X60895732Y-121223865D01*
X60891374Y-121222197D01*
X60882912Y-121218626D01*
X60875143Y-121215990D01*
X60868038Y-121213354D01*
X60861567Y-121209782D01*
X60855701Y-121204341D01*
X60850411Y-121196095D01*
X60845666Y-121184110D01*
X60841438Y-121167451D01*
X60837697Y-121145183D01*
X60834413Y-121116372D01*
X60831557Y-121080083D01*
X60829100Y-121035381D01*
X60827011Y-120981331D01*
X60825262Y-120916999D01*
X60823823Y-120841450D01*
X60822664Y-120753750D01*
X60821757Y-120652963D01*
X60821071Y-120538154D01*
X60820577Y-120408390D01*
X60820245Y-120262735D01*
X60820047Y-120100255D01*
X60819953Y-119920015D01*
X60819932Y-119721080D01*
X60819955Y-119502516D01*
X60819994Y-119263388D01*
X60820018Y-119002760D01*
X60820018Y-118960609D01*
X60820004Y-118697712D01*
X60819979Y-118456452D01*
X60819969Y-118235885D01*
X60819998Y-118035072D01*
X60820092Y-117853069D01*
X60820278Y-117688936D01*
X60820581Y-117541731D01*
X60821026Y-117410512D01*
X60821606Y-117300587D01*
X61124443Y-117300587D01*
X61164233Y-117358431D01*
X61175404Y-117374199D01*
X61185474Y-117388161D01*
X61194502Y-117401504D01*
X61202543Y-117415413D01*
X61209654Y-117431076D01*
X61215893Y-117449678D01*
X61221315Y-117472406D01*
X61225978Y-117500447D01*
X61229939Y-117534987D01*
X61233255Y-117577212D01*
X61235981Y-117628309D01*
X61238176Y-117689464D01*
X61239895Y-117761864D01*
X61241196Y-117846695D01*
X61242135Y-117945142D01*
X61242770Y-118058394D01*
X61243156Y-118187636D01*
X61243352Y-118334054D01*
X61243413Y-118498836D01*
X61243397Y-118683167D01*
X61243360Y-118888233D01*
X61243351Y-119010853D01*
X61243375Y-119227802D01*
X61243409Y-119423362D01*
X61243397Y-119598719D01*
X61243282Y-119755061D01*
X61243010Y-119893577D01*
X61242522Y-120015454D01*
X61241764Y-120121880D01*
X61240678Y-120214042D01*
X61239209Y-120293129D01*
X61237300Y-120360328D01*
X61234896Y-120416827D01*
X61231939Y-120463813D01*
X61228374Y-120502475D01*
X61224145Y-120534000D01*
X61219194Y-120559575D01*
X61213467Y-120580390D01*
X61206907Y-120597631D01*
X61199457Y-120612485D01*
X61191061Y-120626142D01*
X61181664Y-120639789D01*
X61171208Y-120654613D01*
X61165117Y-120663503D01*
X61126344Y-120721120D01*
X61657908Y-120721120D01*
X61781157Y-120721085D01*
X61883653Y-120720935D01*
X61967220Y-120720598D01*
X62033684Y-120720006D01*
X62084869Y-120719087D01*
X62122599Y-120717771D01*
X62148700Y-120715989D01*
X62164996Y-120713671D01*
X62173312Y-120710746D01*
X62175472Y-120707144D01*
X62173301Y-120702795D01*
X62172105Y-120701365D01*
X62146955Y-120664293D01*
X62121057Y-120611492D01*
X62097448Y-120549490D01*
X62089179Y-120523077D01*
X62084562Y-120505136D01*
X62080661Y-120484075D01*
X62077392Y-120457809D01*
X62074674Y-120424252D01*
X62072425Y-120381319D01*
X62070563Y-120326924D01*
X62069004Y-120258982D01*
X62067668Y-120175408D01*
X62066471Y-120074115D01*
X62065332Y-119953020D01*
X62064955Y-119908320D01*
X62063938Y-119783169D01*
X62063180Y-119678802D01*
X62062737Y-119593427D01*
X62062670Y-119525253D01*
X62063035Y-119472485D01*
X62063892Y-119433334D01*
X62065299Y-119406005D01*
X62067315Y-119388706D01*
X62069997Y-119379646D01*
X62073404Y-119377032D01*
X62077596Y-119379071D01*
X62082069Y-119383387D01*
X62092424Y-119396322D01*
X62114482Y-119425396D01*
X62146683Y-119468479D01*
X62187466Y-119523438D01*
X62235270Y-119588143D01*
X62288535Y-119660462D01*
X62345700Y-119738264D01*
X62405203Y-119819418D01*
X62465485Y-119901792D01*
X62524985Y-119983256D01*
X62582142Y-120061677D01*
X62635395Y-120134924D01*
X62683183Y-120200867D01*
X62723947Y-120257374D01*
X62756124Y-120302313D01*
X62778155Y-120333554D01*
X62782723Y-120340186D01*
X62805644Y-120377089D01*
X62832452Y-120425079D01*
X62857851Y-120474617D01*
X62861072Y-120481297D01*
X62882750Y-120529492D01*
X62895336Y-120567054D01*
X62901066Y-120602880D01*
X62902184Y-120644920D01*
X62901550Y-120721120D01*
X64055989Y-120721120D01*
X63964825Y-120627389D01*
X63918028Y-120577495D01*
X63867741Y-120521015D01*
X63821696Y-120466746D01*
X63801271Y-120441393D01*
X63770833Y-120401848D01*
X63730778Y-120348636D01*
X63682279Y-120283387D01*
X63626505Y-120207731D01*
X63564629Y-120123297D01*
X63497821Y-120031714D01*
X63427253Y-119934612D01*
X63354095Y-119833621D01*
X63279519Y-119730370D01*
X63204696Y-119626488D01*
X63130797Y-119523605D01*
X63058994Y-119423351D01*
X62990456Y-119327356D01*
X62926356Y-119237247D01*
X62867865Y-119154656D01*
X62816154Y-119081212D01*
X62772393Y-119018544D01*
X62737755Y-118968281D01*
X62713410Y-118932054D01*
X62700529Y-118911491D01*
X62698771Y-118907388D01*
X62706730Y-118896062D01*
X62727525Y-118868882D01*
X62759793Y-118827549D01*
X62802170Y-118773764D01*
X62853293Y-118709226D01*
X62911799Y-118635638D01*
X62976326Y-118554698D01*
X63045509Y-118468108D01*
X63117987Y-118377568D01*
X63192394Y-118284780D01*
X63252123Y-118210422D01*
X64263129Y-118210422D01*
X64269038Y-118223379D01*
X64283368Y-118245628D01*
X64284415Y-118247111D01*
X64303202Y-118277264D01*
X64322849Y-118314095D01*
X64326748Y-118322231D01*
X64330284Y-118330660D01*
X64333410Y-118340779D01*
X64336154Y-118353980D01*
X64338548Y-118371658D01*
X64340621Y-118395204D01*
X64342405Y-118426013D01*
X64343928Y-118465477D01*
X64345221Y-118514989D01*
X64346314Y-118575943D01*
X64347237Y-118649731D01*
X64348021Y-118737748D01*
X64348695Y-118841385D01*
X64349290Y-118962036D01*
X64349835Y-119101094D01*
X64350361Y-119259952D01*
X64350895Y-119438809D01*
X64351434Y-119623927D01*
X64351868Y-119787865D01*
X64352131Y-119932023D01*
X64352156Y-120057799D01*
X64351875Y-120166591D01*
X64351221Y-120259797D01*
X64350126Y-120338817D01*
X64348522Y-120405048D01*
X64346343Y-120459890D01*
X64343521Y-120504741D01*
X64339989Y-120540998D01*
X64335679Y-120570061D01*
X64330523Y-120593329D01*
X64324455Y-120612199D01*
X64317407Y-120628071D01*
X64309311Y-120642342D01*
X64300100Y-120656411D01*
X64291600Y-120668878D01*
X64274464Y-120695172D01*
X64264318Y-120712757D01*
X64263129Y-120715977D01*
X64274036Y-120717054D01*
X64305229Y-120718055D01*
X64354417Y-120718955D01*
X64419307Y-120719730D01*
X64497610Y-120720357D01*
X64587033Y-120720811D01*
X64685284Y-120721069D01*
X64754195Y-120721120D01*
X64859188Y-120720900D01*
X64956030Y-120720268D01*
X65042533Y-120719269D01*
X65116508Y-120717947D01*
X65175766Y-120716346D01*
X65218120Y-120714511D01*
X65241380Y-120712485D01*
X65245262Y-120711213D01*
X65237564Y-120696311D01*
X65229566Y-120688280D01*
X65216394Y-120671154D01*
X65199155Y-120640903D01*
X65187233Y-120616342D01*
X65160595Y-120557431D01*
X65157520Y-119380565D01*
X65154445Y-118203698D01*
X64708787Y-118203698D01*
X64610970Y-118203862D01*
X64520576Y-118204331D01*
X64440010Y-118205067D01*
X64371678Y-118206036D01*
X64317984Y-118207200D01*
X64281335Y-118208523D01*
X64264136Y-118209969D01*
X64263129Y-118210422D01*
X63252123Y-118210422D01*
X63267370Y-118191442D01*
X63341550Y-118099257D01*
X63413571Y-118009924D01*
X63482071Y-117925144D01*
X63545685Y-117846618D01*
X63603052Y-117776046D01*
X63652807Y-117715129D01*
X63693588Y-117665567D01*
X63710752Y-117644898D01*
X63797044Y-117544236D01*
X63873643Y-117460979D01*
X63942457Y-117393158D01*
X64005392Y-117338809D01*
X64014773Y-117331442D01*
X64054284Y-117300837D01*
X62922524Y-117300587D01*
X62927813Y-117348564D01*
X62924510Y-117405908D01*
X62902979Y-117474183D01*
X62863005Y-117553932D01*
X62817697Y-117626215D01*
X62801479Y-117648860D01*
X62773426Y-117686416D01*
X62735210Y-117736741D01*
X62688503Y-117797693D01*
X62634979Y-117867131D01*
X62576309Y-117942914D01*
X62514165Y-118022900D01*
X62450219Y-118104948D01*
X62386145Y-118186916D01*
X62323613Y-118266663D01*
X62264297Y-118342047D01*
X62209869Y-118410927D01*
X62162001Y-118471162D01*
X62122365Y-118520609D01*
X62092634Y-118557128D01*
X62074479Y-118578578D01*
X62071420Y-118581876D01*
X62068561Y-118573869D01*
X62066347Y-118543575D01*
X62064783Y-118491276D01*
X62063873Y-118417251D01*
X62063620Y-118321783D01*
X62064027Y-118205154D01*
X62064936Y-118085165D01*
X62066258Y-117953053D01*
X62067783Y-117841314D01*
X62069759Y-117747745D01*
X62072434Y-117670139D01*
X62076058Y-117606294D01*
X62080879Y-117554003D01*
X62087146Y-117511064D01*
X62095108Y-117475271D01*
X62105013Y-117444420D01*
X62117109Y-117416306D01*
X62131647Y-117388725D01*
X62146329Y-117363686D01*
X62184326Y-117300587D01*
X61124443Y-117300587D01*
X60821606Y-117300587D01*
X60821639Y-117294337D01*
X60822445Y-117192264D01*
X60823470Y-117103353D01*
X60824740Y-117026661D01*
X60826280Y-116961247D01*
X60828116Y-116906169D01*
X60830273Y-116860485D01*
X60832777Y-116823254D01*
X60835653Y-116793533D01*
X60838927Y-116770382D01*
X60842625Y-116752859D01*
X60846771Y-116740021D01*
X60851393Y-116730928D01*
X60856514Y-116724638D01*
X60862162Y-116720208D01*
X60868361Y-116716698D01*
X60875136Y-116713165D01*
X60881132Y-116709596D01*
X60886365Y-116707020D01*
X60894541Y-116704692D01*
X60906754Y-116702598D01*
X60924099Y-116700727D01*
X60947671Y-116699067D01*
X60978563Y-116697604D01*
X61017872Y-116696328D01*
X61066690Y-116695224D01*
X61126113Y-116694281D01*
X61197236Y-116693487D01*
X61281152Y-116692829D01*
X61378957Y-116692295D01*
X61491746Y-116691873D01*
X61620611Y-116691549D01*
X61766649Y-116691312D01*
X61930954Y-116691150D01*
X62114620Y-116691050D01*
X62318743Y-116691000D01*
X62529887Y-116690987D01*
X64150240Y-116690987D01*
X64150240Y-116787774D01*
D11*
X83243700Y-122520140D02*
X83243700Y-124484140D01*
X83243700Y-119744140D02*
X83243700Y-121530140D01*
X76293700Y-122520140D02*
X76293700Y-124484140D01*
X76293700Y-119744140D02*
X76293700Y-121530140D01*
X76293700Y-124484140D02*
X83243700Y-124484140D01*
X76293700Y-119744140D02*
X83243700Y-119744140D01*
X55400220Y-122250900D02*
X55400220Y-124214900D01*
X55400220Y-119474900D02*
X55400220Y-121260900D01*
X48450220Y-122250900D02*
X48450220Y-124214900D01*
X48450220Y-119474900D02*
X48450220Y-121260900D01*
X48450220Y-124214900D02*
X55400220Y-124214900D01*
X48450220Y-119474900D02*
X55400220Y-119474900D01*
D13*
X78706186Y-105130220D02*
X78372853Y-104654030D01*
X78134758Y-105130220D02*
X78134758Y-104130220D01*
X78515710Y-104130220D01*
X78610948Y-104177840D01*
X78658567Y-104225459D01*
X78706186Y-104320697D01*
X78706186Y-104463554D01*
X78658567Y-104558792D01*
X78610948Y-104606411D01*
X78515710Y-104654030D01*
X78134758Y-104654030D01*
X79134758Y-104606411D02*
X79468091Y-104606411D01*
X79610948Y-105130220D02*
X79134758Y-105130220D01*
X79134758Y-104130220D01*
X79610948Y-104130220D01*
X80372853Y-104606411D02*
X80039520Y-104606411D01*
X80039520Y-105130220D02*
X80039520Y-104130220D01*
X80515710Y-104130220D01*
X81039520Y-104130220D02*
X81039520Y-104368316D01*
X80801424Y-104273078D02*
X81039520Y-104368316D01*
X81277615Y-104273078D01*
X80896662Y-104558792D02*
X81039520Y-104368316D01*
X81182377Y-104558792D01*
X81801424Y-104130220D02*
X81801424Y-104368316D01*
X81563329Y-104273078D02*
X81801424Y-104368316D01*
X82039520Y-104273078D01*
X81658567Y-104558792D02*
X81801424Y-104368316D01*
X81944281Y-104558792D01*
X50623946Y-104665400D02*
X50290613Y-104189210D01*
X50052518Y-104665400D02*
X50052518Y-103665400D01*
X50433470Y-103665400D01*
X50528708Y-103713020D01*
X50576327Y-103760639D01*
X50623946Y-103855877D01*
X50623946Y-103998734D01*
X50576327Y-104093972D01*
X50528708Y-104141591D01*
X50433470Y-104189210D01*
X50052518Y-104189210D01*
X51052518Y-104141591D02*
X51385851Y-104141591D01*
X51528708Y-104665400D02*
X51052518Y-104665400D01*
X51052518Y-103665400D01*
X51528708Y-103665400D01*
X52290613Y-104141591D02*
X51957280Y-104141591D01*
X51957280Y-104665400D02*
X51957280Y-103665400D01*
X52433470Y-103665400D01*
X52957280Y-103665400D02*
X52957280Y-103903496D01*
X52719184Y-103808258D02*
X52957280Y-103903496D01*
X53195375Y-103808258D01*
X52814422Y-104093972D02*
X52957280Y-103903496D01*
X53100137Y-104093972D01*
X53719184Y-103665400D02*
X53719184Y-103903496D01*
X53481089Y-103808258D02*
X53719184Y-103903496D01*
X53957280Y-103808258D01*
X53576327Y-104093972D02*
X53719184Y-103903496D01*
X53862041Y-104093972D01*
X74817119Y-133775414D02*
X74769500Y-133727795D01*
X74721880Y-133632557D01*
X74721880Y-133394461D01*
X74769500Y-133299223D01*
X74817119Y-133251604D01*
X74912357Y-133203985D01*
X75007595Y-133203985D01*
X75150452Y-133251604D01*
X75721880Y-133823033D01*
X75721880Y-133203985D01*
X73921880Y-130603985D02*
X73921880Y-131175414D01*
X73921880Y-130889700D02*
X72921880Y-130889700D01*
X73064738Y-130984938D01*
X73159976Y-131080176D01*
X73207595Y-131175414D01*
X72921880Y-136423033D02*
X72921880Y-135803985D01*
X73302833Y-136137319D01*
X73302833Y-135994461D01*
X73350452Y-135899223D01*
X73398071Y-135851604D01*
X73493309Y-135803985D01*
X73731404Y-135803985D01*
X73826642Y-135851604D01*
X73874261Y-135899223D01*
X73921880Y-135994461D01*
X73921880Y-136280176D01*
X73874261Y-136375414D01*
X73826642Y-136423033D01*
X47286059Y-133615394D02*
X47238440Y-133567775D01*
X47190820Y-133472537D01*
X47190820Y-133234441D01*
X47238440Y-133139203D01*
X47286059Y-133091584D01*
X47381297Y-133043965D01*
X47476535Y-133043965D01*
X47619392Y-133091584D01*
X48190820Y-133663013D01*
X48190820Y-133043965D01*
X45390820Y-136263013D02*
X45390820Y-135643965D01*
X45771773Y-135977299D01*
X45771773Y-135834441D01*
X45819392Y-135739203D01*
X45867011Y-135691584D01*
X45962249Y-135643965D01*
X46200344Y-135643965D01*
X46295582Y-135691584D01*
X46343201Y-135739203D01*
X46390820Y-135834441D01*
X46390820Y-136120156D01*
X46343201Y-136215394D01*
X46295582Y-136263013D01*
X46390820Y-130443965D02*
X46390820Y-131015394D01*
X46390820Y-130729680D02*
X45390820Y-130729680D01*
X45533678Y-130824918D01*
X45628916Y-130920156D01*
X45676535Y-131015394D01*
X62524687Y-128834188D02*
X63286592Y-128834188D01*
X89004187Y-129240588D02*
X89766092Y-129240588D01*
X63972370Y-98438601D02*
X64115227Y-98486220D01*
X64353322Y-98486220D01*
X64448560Y-98438601D01*
X64496180Y-98390982D01*
X64543799Y-98295744D01*
X64543799Y-98200506D01*
X64496180Y-98105268D01*
X64448560Y-98057649D01*
X64353322Y-98010030D01*
X64162846Y-97962411D01*
X64067608Y-97914792D01*
X64019989Y-97867173D01*
X63972370Y-97771935D01*
X63972370Y-97676697D01*
X64019989Y-97581459D01*
X64067608Y-97533840D01*
X64162846Y-97486220D01*
X64400941Y-97486220D01*
X64543799Y-97533840D01*
X64972370Y-98486220D02*
X64972370Y-97486220D01*
X65543799Y-98486220D01*
X65543799Y-97486220D01*
X67019989Y-98819554D02*
X67019989Y-97390982D01*
X68496180Y-98105268D02*
X69258084Y-98105268D01*
X68877132Y-98486220D02*
X68877132Y-97724316D01*
X70734275Y-98819554D02*
X70734275Y-97390982D01*
X72210465Y-98105268D02*
X72972370Y-98105268D01*
X46095850Y-99002481D02*
X46238707Y-99050100D01*
X46476802Y-99050100D01*
X46572040Y-99002481D01*
X46619660Y-98954862D01*
X46667279Y-98859624D01*
X46667279Y-98764386D01*
X46619660Y-98669148D01*
X46572040Y-98621529D01*
X46476802Y-98573910D01*
X46286326Y-98526291D01*
X46191088Y-98478672D01*
X46143469Y-98431053D01*
X46095850Y-98335815D01*
X46095850Y-98240577D01*
X46143469Y-98145339D01*
X46191088Y-98097720D01*
X46286326Y-98050100D01*
X46524421Y-98050100D01*
X46667279Y-98097720D01*
X47095850Y-99050100D02*
X47095850Y-98050100D01*
X47667279Y-99050100D01*
X47667279Y-98050100D01*
X49143469Y-99383434D02*
X49143469Y-97954862D01*
X50619660Y-98669148D02*
X51381564Y-98669148D01*
X51000612Y-99050100D02*
X51000612Y-98288196D01*
X52857755Y-99383434D02*
X52857755Y-97954862D01*
X54333945Y-98669148D02*
X55095850Y-98669148D01*
X86535355Y-92509957D02*
X88059164Y-92509957D01*
X91199317Y-89844784D02*
X91199317Y-88320975D01*
X91961221Y-89082880D02*
X90437412Y-89082880D01*
X79391545Y-125076959D02*
X79439164Y-125029340D01*
X79534402Y-124981720D01*
X79772498Y-124981720D01*
X79867736Y-125029340D01*
X79915355Y-125076959D01*
X79962974Y-125172197D01*
X79962974Y-125267435D01*
X79915355Y-125410292D01*
X79343926Y-125981720D01*
X79962974Y-125981720D01*
X52132194Y-125598180D02*
X51560765Y-125598180D01*
X51846480Y-125598180D02*
X51846480Y-124598180D01*
X51751241Y-124741038D01*
X51656003Y-124836276D01*
X51560765Y-124883895D01*
X79482985Y-118161759D02*
X79530604Y-118114140D01*
X79625842Y-118066520D01*
X79863938Y-118066520D01*
X79959176Y-118114140D01*
X80006795Y-118161759D01*
X80054414Y-118256997D01*
X80054414Y-118352235D01*
X80006795Y-118495092D01*
X79435366Y-119066520D01*
X80054414Y-119066520D01*
X52210934Y-118797280D02*
X51639505Y-118797280D01*
X51925220Y-118797280D02*
X51925220Y-117797280D01*
X51829981Y-117940138D01*
X51734743Y-118035376D01*
X51639505Y-118082995D01*
M02*
