G04 #@! TF.GenerationSoftware,KiCad,Pcbnew,(5.1.2)-1*
G04 #@! TF.CreationDate,2019-06-07T20:02:52-04:00*
G04 #@! TF.ProjectId,mini2_2,6d696e69-325f-4322-9e6b-696361645f70,rev?*
G04 #@! TF.SameCoordinates,Original*
G04 #@! TF.FileFunction,Copper,L1,Top*
G04 #@! TF.FilePolarity,Positive*
%FSLAX46Y46*%
G04 Gerber Fmt 4.6, Leading zero omitted, Abs format (unit mm)*
G04 Created by KiCad (PCBNEW (5.1.2)-1) date 2019-06-07 20:02:52*
%MOMM*%
%LPD*%
G04 APERTURE LIST*
%ADD10C,1.550000*%
%ADD11R,1.550000X1.550000*%
%ADD12R,1.500000X1.000000*%
%ADD13R,2.499360X2.499360*%
%ADD14C,2.499360*%
%ADD15R,4.500880X4.500880*%
%ADD16C,4.500880*%
%ADD17C,1.440000*%
%ADD18C,1.000000*%
G04 APERTURE END LIST*
D10*
X79939520Y-112177840D03*
D11*
X77439520Y-107177840D03*
D10*
X82439520Y-107177840D03*
X51857280Y-111713020D03*
D11*
X49357280Y-106713020D03*
D10*
X54357280Y-106713020D03*
D12*
X73469500Y-132189700D03*
X73469500Y-133489700D03*
X73469500Y-134789700D03*
X45938440Y-134629680D03*
X45938440Y-133329680D03*
X45938440Y-132029680D03*
D13*
X58651140Y-128955800D03*
X86474300Y-129339340D03*
X71798180Y-92999560D03*
D14*
X68623180Y-92999560D03*
X65448180Y-92999560D03*
X47660560Y-93383100D03*
X50835560Y-93383100D03*
D13*
X54010560Y-93383100D03*
D15*
X87297260Y-96177100D03*
D16*
X87246460Y-89082880D03*
D13*
X76502260Y-129339340D03*
D14*
X79677260Y-129339340D03*
X82852260Y-129339340D03*
D13*
X48671480Y-128955800D03*
D14*
X51846480Y-128955800D03*
X55021480Y-128955800D03*
D17*
X77228700Y-122024140D03*
X79768700Y-122024140D03*
X82308700Y-122024140D03*
X49385220Y-121754900D03*
X51925220Y-121754900D03*
X54465220Y-121754900D03*
D18*
X82219800Y-121935240D02*
X82308700Y-122024140D01*
X54198520Y-121488200D02*
X54465220Y-121754900D01*
X49198520Y-121568200D02*
X49385220Y-121754900D01*
X51698520Y-121528200D02*
X51925220Y-121754900D01*
X77219800Y-115150900D02*
X77219800Y-121555500D01*
X50835560Y-89921080D02*
X50835560Y-93383100D01*
X51673760Y-89082880D02*
X50835560Y-89921080D01*
X68712080Y-91143346D02*
X68712080Y-89082880D01*
X68623180Y-91232246D02*
X68712080Y-91143346D01*
X68623180Y-92999560D02*
X68623180Y-91232246D01*
X87246460Y-89082880D02*
X68712080Y-89082880D01*
X68712080Y-89082880D02*
X51673760Y-89082880D01*
X82308700Y-128795780D02*
X82852260Y-129339340D01*
X82308700Y-122024140D02*
X82308700Y-128795780D01*
X77228700Y-128612900D02*
X76502260Y-129339340D01*
X77228700Y-122024140D02*
X77228700Y-128612900D01*
X54465220Y-128399540D02*
X55021480Y-128955800D01*
X54465220Y-121754900D02*
X54465220Y-128399540D01*
X49385220Y-128242060D02*
X48671480Y-128955800D01*
X49385220Y-121754900D02*
X49385220Y-128242060D01*
X87297260Y-128516380D02*
X86474300Y-129339340D01*
X87297260Y-96177100D02*
X87297260Y-128516380D01*
X58651140Y-126706120D02*
X63233300Y-122123960D01*
X58651140Y-128955800D02*
X58651140Y-126706120D01*
X63233300Y-122123960D02*
X63233300Y-102006400D01*
X69062600Y-96177100D02*
X87297260Y-96177100D01*
X63233300Y-102006400D02*
X69062600Y-96177100D01*
X73651900Y-132189700D02*
X76502260Y-129339340D01*
X73469500Y-132189700D02*
X73651900Y-132189700D01*
X75219500Y-134789700D02*
X77992700Y-132016500D01*
X73469500Y-134789700D02*
X75219500Y-134789700D01*
X77992700Y-132016500D02*
X86408260Y-132016500D01*
X86474300Y-131950460D02*
X86474300Y-129339340D01*
X86408260Y-132016500D02*
X86474300Y-131950460D01*
X45938440Y-131688840D02*
X48671480Y-128955800D01*
X45938440Y-132029680D02*
X45938440Y-131688840D01*
X58651140Y-131205480D02*
X58651140Y-128955800D01*
X58221120Y-131635500D02*
X58651140Y-131205480D01*
X50682620Y-131635500D02*
X58221120Y-131635500D01*
X47688440Y-134629680D02*
X50682620Y-131635500D01*
X45938440Y-134629680D02*
X47688440Y-134629680D01*
X77219800Y-109172560D02*
X77219800Y-115150900D01*
X77439520Y-108952840D02*
X77219800Y-109172560D01*
X77439520Y-107177840D02*
X77439520Y-108952840D01*
X82308700Y-107308660D02*
X82439520Y-107177840D01*
X82308700Y-122024140D02*
X82308700Y-107308660D01*
X54465220Y-106820960D02*
X54357280Y-106713020D01*
X54465220Y-121754900D02*
X54465220Y-106820960D01*
X49385220Y-106740960D02*
X49357280Y-106713020D01*
X49385220Y-121754900D02*
X49385220Y-106740960D01*
M02*
